<svg width="604px" height="658px" id="exavn3vo8mbk1" xmlns="http://www.w3.org/2000/svg" xmlns:xlink="http://www.w3.org/1999/xlink" viewBox="0 0 603 658" shape-rendering="geometricPrecision" text-rendering="geometricPrecision"><g id="exavn3vo8mbk2">
<g id="exavn3vo8mbk3" transform="matrix(1 0 0 1 0 0.19659100000001)">
<polygon id="exavn3vo8mbk4" points="533.796843,484.781249 551.091781,519.372242 516.501905,519.372242" transform="matrix(1 0 0 -1 0 1004.14999999999998)" opacity="0.2" fill="rgb(63,182,230)" fill-rule="evenodd" stroke="none" stroke-width="1"/>
<polygon id="exavn3vo8mbk5" points="533.796843,450.190256 551.091781,484.781249 516.501905,484.781249" opacity="0.2" fill="rgb(70,216,240)" fill-rule="evenodd" stroke="none" stroke-width="1"/>
<polygon id="exavn3vo8mbk6" points="499.206967,484.781249 516.501905,519.372242 481.912029,519.372242" transform="matrix(1 0 0 -1 0 1004.14999999999998)" opacity="0.2" fill="rgb(52,115,211)" fill-rule="evenodd" stroke="none" stroke-width="1"/>
<polygon id="exavn3vo8mbk7" points="499.206967,450.190256 516.501905,484.781249 481.912029,484.781249" opacity="0.68171" fill="rgb(46,81,201)" fill-rule="evenodd" stroke="none" stroke-width="1"/>
<polygon id="exavn3vo8mbk8" points="516.501905,450.190256 533.796843,484.781249 499.206967,484.781249" transform="matrix(1 0 0 -1 0 934.97100000000000)" opacity="0.2" fill="rgb(0,148,221)" fill-rule="evenodd" stroke="none" stroke-width="1"/>
<polygon id="exavn3vo8mbk9" points="516.501905,415.599264 533.796843,450.190256 499.206967,450.190256" opacity="0.2" fill="rgb(70,216,240)" fill-rule="evenodd" stroke="none" stroke-width="1"/>
<polygon id="exavn3vo8mbk10" points="568.386719,484.781249 585.681657,519.372242 551.091781,519.372242" transform="matrix(1 0 0 -1 0 1004.14999999999998)" opacity="0.2" fill="rgb(0,148,221)" fill-rule="evenodd" stroke="none" stroke-width="1"/>
<polygon id="exavn3vo8mbk11" points="568.386719,450.190256 585.681657,484.781249 551.091781,484.781249" opacity="0.502023" fill="rgb(52,115,211)" fill-rule="evenodd" stroke="none" stroke-width="1"/>
<polygon id="exavn3vo8mbk12" points="585.681657,450.190256 602.976595,484.781249 568.386719,484.781249" transform="matrix(1 0 0 -1 0 934.97100000000000)" opacity="0.585589" fill="rgb(46,81,201)" fill-rule="evenodd" stroke="none" stroke-width="1"/>
<polygon id="exavn3vo8mbk13" points="585.681657,415.599264 602.976595,450.190256 568.386719,450.190256" opacity="0.585589" fill="rgb(57,148,221)" fill-rule="evenodd" stroke="none" stroke-width="1"/>
<polygon id="exavn3vo8mbk14" points="568.386719,415.599264 585.681657,450.190256 551.091781,450.190256" transform="matrix(1 0 0 -1 0 865.78899999999999)" opacity="0.2" fill="rgb(57,148,221)" fill-rule="evenodd" stroke="none" stroke-width="1"/>
<polygon id="exavn3vo8mbk15" points="568.386719,381.008271 585.681657,415.599264 551.091781,415.599264" opacity="0.2" fill="rgb(70,216,240)" fill-rule="evenodd" stroke="none" stroke-width="1"/>
<polygon id="exavn3vo8mbk16" points="533.796843,415.599264 551.091781,450.190256 516.501905,450.190256" transform="matrix(1 0 0 -1 0 865.78899999999999)" opacity="0.2" fill="rgb(52,115,211)" fill-rule="evenodd" stroke="none" stroke-width="1"/>
<polygon id="exavn3vo8mbk17" points="533.796843,381.008271 551.091781,415.599264 516.501905,415.599264" fill="rgb(0,148,221)" fill-rule="evenodd" stroke="none" stroke-width="1"/>
<polygon id="exavn3vo8mbk18" points="551.091781,381.008271 568.386719,415.599264 533.796843,415.599264" transform="matrix(1 0 0 -1 0 796.60799999999995)" opacity="0.2" fill="rgb(63,182,230)" fill-rule="evenodd" stroke="none" stroke-width="1"/>
<polygon id="exavn3vo8mbk19" points="551.091781,346.417278 568.386719,381.008271 533.796843,381.008271" opacity="0.2" fill="rgb(52,115,211)" fill-rule="evenodd" stroke="none" stroke-width="1"/>
<polygon id="exavn3vo8mbk20" points="551.091781,450.190256 568.386719,484.781249 533.796843,484.781249" transform="matrix(1 0 0 -1 0 934.97100000000000)" opacity="0.2" fill="rgb(57,148,221)" fill-rule="evenodd" stroke="none" stroke-width="1"/>
<polygon id="exavn3vo8mbk21" points="568.386719,553.963235 585.681657,588.554228 551.091781,588.554228" transform="matrix(1 0 0 -1 0 1142.51999999999998)" opacity="0.2" fill="rgb(70,216,240)" fill-rule="evenodd" stroke="none" stroke-width="1"/>
<polygon id="exavn3vo8mbk22" points="568.386719,519.372242 585.681657,553.963235 551.091781,553.963235" opacity="0.2" fill="rgb(0,148,221)" fill-rule="evenodd" stroke="none" stroke-width="1"/>
<polygon id="exavn3vo8mbk23" points="551.091781,519.372242 568.386719,553.963235 533.796843,553.963235" transform="matrix(1 0 0 -1 0 1073.33999999999992)" opacity="0.2" fill="rgb(52,115,211)" fill-rule="evenodd" stroke="none" stroke-width="1"/>
<polygon id="exavn3vo8mbk24" points="551.091781,484.781249 568.386719,519.372242 533.796843,519.372242" opacity="0.502023" fill="rgb(0,148,221)" fill-rule="evenodd" stroke="none" stroke-width="1"/>
<polygon id="exavn3vo8mbk25" points="446.715687,34.590993 429.420749,0 464.010625,0" transform="matrix(-1 0 -0 -1 893.43100000000004 34.59100000000000)" opacity="0.2" fill="rgb(57,148,221)" fill-rule="evenodd" stroke="none" stroke-width="1"/>
<polygon id="exavn3vo8mbk26" points="446.715687,34.590993 464.010625,69.181986 429.420749,69.181986" transform="matrix(-1 0 -0 -1 893.43100000000004 103.77300000000000)" opacity="0.2" fill="rgb(46,81,201)" fill-rule="evenodd" stroke="none" stroke-width="1"/>
<polygon id="exavn3vo8mbk27" points="377.909880,172.954964 360.614942,138.363971 395.204818,138.363971" transform="matrix(-1 0 -0 -1 755.82000000000005 311.31900000000002)" opacity="0.2" fill="rgb(57,148,221)" fill-rule="evenodd" stroke="none" stroke-width="1"/>
<polygon id="exavn3vo8mbk28" points="412.499756,172.954964 395.204818,138.363971 429.794694,138.363971" transform="matrix(-1 0 -0 -1 825 311.31900000000002)" opacity="0.2" fill="rgb(0,148,221)" fill-rule="evenodd" stroke="none" stroke-width="1"/>
<polygon id="exavn3vo8mbk29" points="412.499756,172.954964 429.794694,207.545957 395.204818,207.545957" transform="matrix(-1 0 -0 -1 825 380.50099999999998)" opacity="0.2" fill="rgb(52,115,211)" fill-rule="evenodd" stroke="none" stroke-width="1"/>
<polygon id="exavn3vo8mbk30" points="395.204818,138.363971 377.909880,103.772978 412.499756,103.772978" transform="matrix(-1 0 -0 -1 790.40999999999997 242.13700000000000)" opacity="0.569731" fill="rgb(63,182,230)" fill-rule="evenodd" stroke="none" stroke-width="1"/>
<polygon id="exavn3vo8mbk31" points="395.204818,138.363971 412.499756,172.954964 377.909880,172.954964" transform="matrix(-1 0 -0 -1 790.40999999999997 311.31900000000002)" opacity="0.2" fill="rgb(70,216,240)" fill-rule="evenodd" stroke="none" stroke-width="1"/>
<polygon id="exavn3vo8mbk32" points="412.499756,103.772978 395.204818,69.181986 429.794694,69.181986" transform="matrix(-1 0 -0 -1 825 172.95500000000001)" opacity="0.2" fill="rgb(70,216,240)" fill-rule="evenodd" stroke="none" stroke-width="1"/>
<polygon id="exavn3vo8mbk33" points="412.499756,103.772978 429.794694,138.363971 395.204818,138.363971" transform="matrix(-1 0 -0 -1 825 242.13700000000000)" opacity="0.569731" fill="rgb(0,148,221)" fill-rule="evenodd" stroke="none" stroke-width="1"/>
<polygon id="exavn3vo8mbk34" points="429.794694,138.363971 412.499756,103.772978 447.089632,103.772978" transform="matrix(-1 0 -0 -1 859.58900000000006 242.13700000000000)" opacity="0.481678" fill="rgb(52,115,211)" fill-rule="evenodd" stroke="none" stroke-width="1"/>
<polygon id="exavn3vo8mbk35" points="429.794694,138.363971 447.089632,172.954964 412.499756,172.954964" transform="matrix(-1 0 -0 -1 859.58900000000006 311.31900000000002)" opacity="0.2" fill="rgb(0,148,221)" fill-rule="evenodd" stroke="none" stroke-width="1"/>
<polygon id="exavn3vo8mbk36" points="429.794694,69.181986 412.499756,34.590993 447.089632,34.590993" transform="matrix(-1 0 -0 -1 859.58900000000006 103.77300000000000)" opacity="0.2" fill="rgb(57,148,221)" fill-rule="evenodd" stroke="none" stroke-width="1"/>
<polygon id="exavn3vo8mbk37" points="429.794694,69.181986 447.089632,103.772978 412.499756,103.772978" transform="matrix(-1 0 -0 -1 859.58900000000006 172.95500000000001)" opacity="0.2" fill="rgb(46,81,201)" fill-rule="evenodd" stroke="none" stroke-width="1"/>
<polygon id="exavn3vo8mbk38" points="378.283824,34.590993 395.578762,69.181986 360.988886,69.181986" transform="matrix(-1 0 -0 -1 756.56799999999998 103.77300000000000)" opacity="0.2" fill="rgb(70,216,240)" fill-rule="evenodd" stroke="none" stroke-width="1"/>
<polygon id="exavn3vo8mbk39" points="395.578762,69.181986 412.873700,103.772978 378.283824,103.772978" transform="matrix(-1 0 -0 -1 791.15800000000002 172.95500000000001)" opacity="0.2" fill="rgb(70,216,240)" fill-rule="evenodd" stroke="none" stroke-width="1"/>
<polygon id="exavn3vo8mbk40" points="360.988886,138.363971 378.283824,172.954964 343.693948,172.954964" transform="matrix(-1 0 -0 -1 721.97799999999995 311.31900000000002)" fill="rgb(52,115,211)" fill-rule="evenodd" stroke="none" stroke-width="1"/>
<polygon id="exavn3vo8mbk41" points="360.988886,69.181986 378.283824,103.772978 343.693948,103.772978" transform="matrix(-1 0 -0 -1 721.97799999999995 172.95500000000001)" opacity="0.717285" fill="rgb(46,81,201)" fill-rule="evenodd" stroke="none" stroke-width="1"/>
<polygon id="exavn3vo8mbk42" points="344.067893,172.954964 326.772955,138.363971 361.362831,138.363971" transform="matrix(-1 0 -0 -1 688.13599999999997 311.31900000000002)" opacity="0.569731" fill="rgb(52,115,211)" fill-rule="evenodd" stroke="none" stroke-width="1"/>
<polygon id="exavn3vo8mbk43" points="344.067893,172.954964 361.362831,207.545957 326.772955,207.545957" transform="matrix(-1 0 -0 -1 688.13599999999997 380.50099999999998)" fill="rgb(46,81,201)" fill-rule="evenodd" stroke="none" stroke-width="1"/>
<polygon id="exavn3vo8mbk44" points="326.772955,207.545957 309.478017,172.954964 344.067893,172.954964" transform="matrix(-1 0 -0 -1 653.54600000000005 380.50099999999998)" opacity="0.646996" fill="rgb(0,148,221)" fill-rule="evenodd" stroke="none" stroke-width="1"/>
<polygon id="exavn3vo8mbk45" points="326.772955,138.363971 309.478017,103.772978 344.067893,103.772978" transform="matrix(-1 0 -0 -1 653.54600000000005 242.13700000000000)" fill="rgb(46,81,201)" fill-rule="evenodd" stroke="none" stroke-width="1"/>
<polygon id="exavn3vo8mbk46" points="326.772955,138.363971 344.067893,172.954964 309.478017,172.954964" transform="matrix(-1 0 -0 -1 653.54600000000005 311.31900000000002)" fill="rgb(57,148,221)" fill-rule="evenodd" stroke="none" stroke-width="1"/>
<polygon id="exavn3vo8mbk47" points="274.888141,172.954964 257.593203,138.363971 292.183079,138.363971" transform="matrix(-1 0 -0 -1 549.77599999999995 311.31900000000002)" opacity="0.2" fill="rgb(0,148,221)" fill-rule="evenodd" stroke="none" stroke-width="1"/>
<polygon id="exavn3vo8mbk48" points="274.888141,172.954964 292.183079,207.545957 257.593203,207.545957" transform="matrix(-1 0 -0 -1 549.77599999999995 380.50099999999998)" fill="rgb(52,115,211)" fill-rule="evenodd" stroke="none" stroke-width="1"/>
<polygon id="exavn3vo8mbk49" points="257.593203,207.545957 240.298265,172.954964 274.888141,172.954964" transform="matrix(-1 0 -0 -1 515.18600000000004 380.50099999999998)" opacity="0.2" fill="rgb(46,81,201)" fill-rule="evenodd" stroke="none" stroke-width="1"/>
<polygon id="exavn3vo8mbk50" points="257.593203,138.363971 240.298265,103.772978 274.888141,103.772978" transform="matrix(-1 0 -0 -1 515.18600000000004 242.13700000000000)" opacity="0.2" fill="rgb(63,182,230)" fill-rule="evenodd" stroke="none" stroke-width="1"/>
<polygon id="exavn3vo8mbk51" points="292.183079,207.545957 274.888141,172.954964 309.478017,172.954964" transform="matrix(-1 0 -0 -1 584.36599999999999 380.50099999999998)" fill="rgb(57,148,221)" fill-rule="evenodd" stroke="none" stroke-width="1"/>
<polygon id="exavn3vo8mbk52" points="274.888141,103.772978 292.183079,138.363971 257.593203,138.363971" transform="matrix(-1 0 -0 -1 549.77599999999995 242.13700000000000)" opacity="0.2" fill="rgb(0,148,221)" fill-rule="evenodd" stroke="none" stroke-width="1"/>
<polygon id="exavn3vo8mbk53" points="292.183079,138.363971 274.888141,103.772978 309.478017,103.772978" transform="matrix(-1 0 -0 -1 584.36599999999999 242.13700000000000)" opacity="0.2" fill="rgb(52,115,211)" fill-rule="evenodd" stroke="none" stroke-width="1"/>
<polygon id="exavn3vo8mbk54" points="206.082333,103.772978 223.377271,138.363971 188.787395,138.363971" transform="matrix(-1 0 -0 -1 412.16500000000002 242.13700000000000)" opacity="0.2" fill="rgb(70,216,240)" fill-rule="evenodd" stroke="none" stroke-width="1"/>
<polygon id="exavn3vo8mbk55" points="223.377271,138.363971 206.082333,103.772978 240.672209,103.772978" transform="matrix(-1 0 -0 -1 446.75500000000000 242.13700000000000)" opacity="0.2" fill="rgb(63,182,230)" fill-rule="evenodd" stroke="none" stroke-width="1"/>
<polygon id="exavn3vo8mbk56" points="206.456278,172.954964 223.751216,207.545957 189.161340,207.545957" transform="matrix(-1 0 -0 -1 412.91300000000001 380.50099999999998)" opacity="0.2" fill="rgb(46,81,201)" fill-rule="evenodd" stroke="none" stroke-width="1"/>
<polygon id="exavn3vo8mbk57" points="360.988886,207.545957 343.693948,172.954964 378.283824,172.954964" transform="matrix(-1 0 -0 -1 721.97799999999995 380.50099999999998)" opacity="0.2" fill="rgb(57,148,221)" fill-rule="evenodd" stroke="none" stroke-width="1"/>
<polygon id="exavn3vo8mbk58" points="51.884814,346.145892 69.179752,380.736885 34.589876,380.736885" transform="matrix(1 0 0 -1 0 726.88300000000004)" opacity="0.2" fill="rgb(63,182,230)" fill-rule="evenodd" stroke="none" stroke-width="1"/>
<polygon id="exavn3vo8mbk59" points="17.294938,346.145892 34.589876,380.736885 0,380.736885" transform="matrix(1 0 0 -1 0 726.88300000000004)" opacity="0.668945" fill="rgb(52,115,211)" fill-rule="evenodd" stroke="none" stroke-width="1"/>
<polygon id="exavn3vo8mbk60" points="34.589876,346.145892 51.884814,380.736885 17.294938,380.736885" opacity="0.449661" fill="rgb(57,148,221)" fill-rule="evenodd" stroke="none" stroke-width="1"/>
<polygon id="exavn3vo8mbk61" points="121.064566,346.145892 138.359504,380.736885 103.769628,380.736885" transform="matrix(1 0 0 -1 0 726.88300000000004)" opacity="0.2" fill="rgb(57,148,221)" fill-rule="evenodd" stroke="none" stroke-width="1"/>
<polygon id="exavn3vo8mbk62" points="121.064566,311.554900 138.359504,346.145892 103.769628,346.145892" opacity="0.2" fill="rgb(46,81,201)" fill-rule="evenodd" stroke="none" stroke-width="1"/>
<polygon id="exavn3vo8mbk63" points="103.769628,346.145892 121.064566,380.736885 86.474690,380.736885" opacity="0.2" fill="rgb(70,216,240)" fill-rule="evenodd" stroke="none" stroke-width="1"/>
<polygon id="exavn3vo8mbk64" points="69.179752,380.736885 86.474690,415.327878 51.884814,415.327878" transform="matrix(1 0 0 -1 0 796.06500000000005)" opacity="0.449661" fill="rgb(52,115,211)" fill-rule="evenodd" stroke="none" stroke-width="1"/>
<polygon id="exavn3vo8mbk65" points="69.179752,346.145892 86.474690,380.736885 51.884814,380.736885" opacity="0.2" fill="rgb(0,148,221)" fill-rule="evenodd" stroke="none" stroke-width="1"/>
<polygon id="exavn3vo8mbk66" points="137.985560,380.736885 155.280498,415.327878 120.690621,415.327878" transform="matrix(1 0 0 -1 0 796.06500000000005)" opacity="0.2" fill="rgb(63,182,230)" fill-rule="evenodd" stroke="none" stroke-width="1"/>
<polygon id="exavn3vo8mbk67" points="137.985560,346.145892 155.280498,380.736885 120.690621,380.736885" opacity="0.568662" fill="rgb(52,115,211)" fill-rule="evenodd" stroke="none" stroke-width="1"/>
<polygon id="exavn3vo8mbk68" points="224.086305,519.100856 241.381243,553.691849 206.791367,553.691849" opacity="0.2" fill="rgb(70,216,240)" fill-rule="evenodd" stroke="none" stroke-width="1"/>
<polygon id="exavn3vo8mbk69" points="258.302236,484.509863 275.597174,519.100856 241.007298,519.100856" transform="matrix(1 0 0 -1 0 1003.61000000000001)" opacity="0.2" fill="rgb(63,182,230)" fill-rule="evenodd" stroke="none" stroke-width="1"/>
<polygon id="exavn3vo8mbk70" points="241.007298,519.100856 258.302236,553.691849 223.712360,553.691849" transform="matrix(1 0 0 -1 0 1072.78999999999996)" opacity="0.2" fill="rgb(46,81,201)" fill-rule="evenodd" stroke="none" stroke-width="1"/>
<polygon id="exavn3vo8mbk71" points="327.481988,449.918871 344.776926,484.509863 310.187050,484.509863" opacity="0.449661" fill="rgb(46,81,201)" fill-rule="evenodd" stroke="none" stroke-width="1"/>
<polygon id="exavn3vo8mbk72" points="292.892112,484.509863 310.187050,519.100856 275.597174,519.100856" transform="matrix(1 0 0 -1 0 1003.61000000000001)" opacity="0.2" fill="rgb(0,148,221)" fill-rule="evenodd" stroke="none" stroke-width="1"/>
<polygon id="exavn3vo8mbk73" points="292.892112,449.918871 310.187050,484.509863 275.597174,484.509863" opacity="0.449661" fill="rgb(52,115,211)" fill-rule="evenodd" stroke="none" stroke-width="1"/>
<polygon id="exavn3vo8mbk74" points="310.187050,415.327878 327.481988,449.918871 292.892112,449.918871" opacity="0.2" fill="rgb(57,148,221)" fill-rule="evenodd" stroke="none" stroke-width="1"/>
<polygon id="exavn3vo8mbk75" points="310.187050,519.100856 327.481988,553.691849 292.892112,553.691849" transform="matrix(1 0 0 -1 0 1072.78999999999996)" opacity="0.2" fill="rgb(63,182,230)" fill-rule="evenodd" stroke="none" stroke-width="1"/>
<polygon id="exavn3vo8mbk76" points="292.892112,415.327878 310.187050,449.918871 275.597174,449.918871" transform="matrix(1 0 0 -1 0 865.24699999999996)" opacity="0.2" fill="rgb(57,148,221)" fill-rule="evenodd" stroke="none" stroke-width="1"/>
<polygon id="exavn3vo8mbk77" points="292.892112,380.736885 310.187050,415.327878 275.597174,415.327878" opacity="0.2" fill="rgb(70,216,240)" fill-rule="evenodd" stroke="none" stroke-width="1"/>
<polygon id="exavn3vo8mbk78" points="258.302236,415.327878 275.597174,449.918871 241.007298,449.918871" transform="matrix(1 0 0 -1 0 865.24699999999996)" opacity="0.2" fill="rgb(52,115,211)" fill-rule="evenodd" stroke="none" stroke-width="1"/>
<polygon id="exavn3vo8mbk79" points="258.302236,380.736885 275.597174,415.327878 241.007298,415.327878" opacity="0.2" fill="rgb(0,148,221)" fill-rule="evenodd" stroke="none" stroke-width="1"/>
<polygon id="exavn3vo8mbk80" points="275.597174,380.736885 292.892112,415.327878 258.302236,415.327878" transform="matrix(1 0 0 -1 0 796.06500000000005)" opacity="0.449661" fill="rgb(63,182,230)" fill-rule="evenodd" stroke="none" stroke-width="1"/>
<polygon id="exavn3vo8mbk81" points="275.597174,449.918871 292.892112,484.509863 258.302236,484.509863" transform="matrix(1 0 0 -1 0 934.42899999999997)" opacity="0.2" fill="rgb(57,148,221)" fill-rule="evenodd" stroke="none" stroke-width="1"/>
<polygon id="exavn3vo8mbk82" points="292.892112,519.100856 310.187050,553.691849 275.597174,553.691849" opacity="0.2" fill="rgb(0,148,221)" fill-rule="evenodd" stroke="none" stroke-width="1"/>
<polygon id="exavn3vo8mbk83" points="275.597174,519.100856 292.892112,553.691849 258.302236,553.691849" transform="matrix(1 0 0 -1 0 1072.78999999999996)" opacity="0.2" fill="rgb(52,115,211)" fill-rule="evenodd" stroke="none" stroke-width="1"/>
<polygon id="exavn3vo8mbk84" points="275.597174,484.509863 292.892112,519.100856 258.302236,519.100856" opacity="0.2" fill="rgb(0,148,221)" fill-rule="evenodd" stroke="none" stroke-width="1"/>
<polygon id="exavn3vo8mbk85" points="327.108044,346.145892 344.402982,380.736885 309.813106,380.736885" transform="matrix(1 0 0 -1 0 726.88300000000004)" opacity="0.383208" fill="rgb(63,182,230)" fill-rule="evenodd" stroke="none" stroke-width="1"/>
<polygon id="exavn3vo8mbk86" points="327.108044,311.554900 344.402982,346.145892 309.813106,346.145892" opacity="0.639021" fill="rgb(70,216,240)" fill-rule="evenodd" stroke="none" stroke-width="1"/>
<polygon id="exavn3vo8mbk87" points="292.518168,346.145892 309.813106,380.736885 275.223230,380.736885" transform="matrix(1 0 0 -1 0 726.88300000000004)" fill="rgb(52,115,211)" fill-rule="evenodd" stroke="none" stroke-width="1"/>
<polygon id="exavn3vo8mbk88" points="292.518168,311.554900 309.813106,346.145892 275.223230,346.145892" fill="rgb(46,81,201)" fill-rule="evenodd" stroke="none" stroke-width="1"/>
<polygon id="exavn3vo8mbk89" points="309.813106,311.554900 327.108044,346.145892 292.518168,346.145892" transform="matrix(1 0 0 -1 0 657.70100000000002)" opacity="0.2" fill="rgb(0,148,221)" fill-rule="evenodd" stroke="none" stroke-width="1"/>
<polygon id="exavn3vo8mbk90" points="309.813106,276.963907 327.108044,311.554900 292.518168,311.554900" opacity="0.2" fill="rgb(70,216,240)" fill-rule="evenodd" stroke="none" stroke-width="1"/>
<polygon id="exavn3vo8mbk91" points="309.813106,380.736885 327.108044,415.327878 292.518168,415.327878" transform="matrix(1 0 0 -1 0 796.06500000000005)" opacity="0.2" fill="rgb(46,81,201)" fill-rule="evenodd" stroke="none" stroke-width="1"/>
<polygon id="exavn3vo8mbk92" points="309.813106,346.145892 327.108044,380.736885 292.518168,380.736885" opacity="0.449661" fill="rgb(57,148,221)" fill-rule="evenodd" stroke="none" stroke-width="1"/>
<polygon id="exavn3vo8mbk93" points="361.697920,311.554900 378.992858,346.145892 344.402982,346.145892" opacity="0.508208" fill="rgb(52,115,211)" fill-rule="evenodd" stroke="none" stroke-width="1"/>
<polygon id="exavn3vo8mbk94" points="378.992858,276.963907 396.287796,311.554900 361.697920,311.554900" opacity="0.622256" fill="rgb(57,148,221)" fill-rule="evenodd" stroke="none" stroke-width="1"/>
<polygon id="exavn3vo8mbk95" points="361.697920,276.963907 378.992858,311.554900 344.402982,311.554900" transform="matrix(1 0 0 -1 0 588.51900000000001)" opacity="0.2" fill="rgb(57,148,221)" fill-rule="evenodd" stroke="none" stroke-width="1"/>
<polygon id="exavn3vo8mbk96" points="361.697920,242.372914 378.992858,276.963907 344.402982,276.963907" opacity="0.2" fill="rgb(70,216,240)" fill-rule="evenodd" stroke="none" stroke-width="1"/>
<polygon id="exavn3vo8mbk97" points="327.108044,276.963907 344.402982,311.554900 309.813106,311.554900" transform="matrix(1 0 0 -1 0 588.51900000000001)" opacity="0.2" fill="rgb(52,115,211)" fill-rule="evenodd" stroke="none" stroke-width="1"/>
<polygon id="exavn3vo8mbk98" points="327.108044,242.372914 344.402982,276.963907 309.813106,276.963907" opacity="0.2" fill="rgb(0,148,221)" fill-rule="evenodd" stroke="none" stroke-width="1"/>
<polygon id="exavn3vo8mbk99" points="344.402982,242.372914 361.697920,276.963907 327.108044,276.963907" transform="matrix(1 0 0 -1 0 519.33699999999999)" opacity="0.2" fill="rgb(63,182,230)" fill-rule="evenodd" stroke="none" stroke-width="1"/>
<polygon id="exavn3vo8mbk100" points="344.402982,207.781921 361.697920,242.372914 327.108044,242.372914" opacity="0.551688" fill="rgb(52,115,211)" fill-rule="evenodd" stroke="none" stroke-width="1"/>
<polygon id="exavn3vo8mbk101" points="344.402982,311.554900 361.697920,346.145892 327.108044,346.145892" transform="matrix(1 0 0 -1 0 657.70100000000002)" opacity="0.2" fill="rgb(57,148,221)" fill-rule="evenodd" stroke="none" stroke-width="1"/>
<polygon id="exavn3vo8mbk102" points="344.402982,276.963907 361.697920,311.554900 327.108044,311.554900" fill="rgb(46,81,201)" fill-rule="evenodd" stroke="none" stroke-width="1"/>
<polygon id="exavn3vo8mbk103" points="327.108044,415.327878 344.402982,449.918871 309.813106,449.918871" transform="matrix(1 0 0 -1 0 865.24699999999996)" opacity="0.686012" fill="rgb(52,115,211)" fill-rule="evenodd" stroke="none" stroke-width="1"/>
<polygon id="exavn3vo8mbk104" points="327.108044,380.736885 344.402982,415.327878 309.813106,415.327878" opacity="0.2" fill="rgb(57,148,221)" fill-rule="evenodd" stroke="none" stroke-width="1"/>
<polygon id="exavn3vo8mbk105" points="344.402982,346.145892 361.697920,380.736885 327.108044,380.736885" opacity="0.383208" fill="rgb(0,148,221)" fill-rule="evenodd" stroke="none" stroke-width="1"/>
<polygon id="exavn3vo8mbk106" points="344.402982,415.327878 361.697920,449.918871 327.108044,449.918871" opacity="0.508208" fill="rgb(46,81,201)" fill-rule="evenodd" stroke="none" stroke-width="1"/>
<polygon id="exavn3vo8mbk107" points="465.093603,484.509863 482.388541,519.100856 447.798665,519.100856" transform="matrix(1 0 0 -1 0 1003.61000000000001)" opacity="0.2" fill="rgb(57,148,221)" fill-rule="evenodd" stroke="none" stroke-width="1"/>
<polygon id="exavn3vo8mbk108" points="465.093603,449.918871 482.388541,484.509863 447.798665,484.509863" opacity="0.2" fill="rgb(46,81,201)" fill-rule="evenodd" stroke="none" stroke-width="1"/>
<polygon id="exavn3vo8mbk109" points="447.798665,449.918871 465.093603,484.509863 430.503727,484.509863" transform="matrix(1 0 0 -1 0 934.42899999999997)" opacity="0.585589" fill="rgb(46,81,201)" fill-rule="evenodd" stroke="none" stroke-width="1"/>
<polygon id="exavn3vo8mbk110" points="447.798665,415.327878 465.093603,449.918871 430.503727,449.918871" opacity="0.585589" fill="rgb(57,148,221)" fill-rule="evenodd" stroke="none" stroke-width="1"/>
<polygon id="exavn3vo8mbk111" points="447.798665,519.100856 465.093603,553.691849 430.503727,553.691849" transform="matrix(1 0 0 -1 0 1072.78999999999996)" opacity="0.2" fill="rgb(63,182,230)" fill-rule="evenodd" stroke="none" stroke-width="1"/>
<polygon id="exavn3vo8mbk112" points="447.798665,484.509863 465.093603,519.100856 430.503727,519.100856" opacity="0.2" fill="rgb(70,216,240)" fill-rule="evenodd" stroke="none" stroke-width="1"/>
<polygon id="exavn3vo8mbk113" points="430.503727,415.327878 447.798665,449.918871 413.208789,449.918871" transform="matrix(1 0 0 -1 0 865.24699999999996)" opacity="0.686012" fill="rgb(57,148,221)" fill-rule="evenodd" stroke="none" stroke-width="1"/>
<polygon id="exavn3vo8mbk114" points="430.503727,380.736885 447.798665,415.327878 413.208789,415.327878" opacity="0.2" fill="rgb(70,216,240)" fill-rule="evenodd" stroke="none" stroke-width="1"/>
<polygon id="exavn3vo8mbk115" points="413.208789,346.145892 430.503727,380.736885 395.913851,380.736885" opacity="0.383208" fill="rgb(52,115,211)" fill-rule="evenodd" stroke="none" stroke-width="1"/>
<polygon id="exavn3vo8mbk116" points="413.208789,415.327878 430.503727,449.918871 395.913851,449.918871" opacity="0.585589" fill="rgb(46,81,201)" fill-rule="evenodd" stroke="none" stroke-width="1"/>
<polygon id="exavn3vo8mbk117" points="499.309535,622.873835 516.604473,657.464827 482.014597,657.464827" transform="matrix(1 0 0 -1 0 1280.33999999999992)" opacity="0.2" fill="rgb(0,148,221)" fill-rule="evenodd" stroke="none" stroke-width="1"/>
<polygon id="exavn3vo8mbk118" points="499.309535,588.282842 516.604473,622.873835 482.014597,622.873835" opacity="0.2" fill="rgb(52,115,211)" fill-rule="evenodd" stroke="none" stroke-width="1"/>
<polygon id="exavn3vo8mbk119" points="499.309535,519.100856 516.604473,553.691849 482.014597,553.691849" opacity="0.2" fill="rgb(70,216,240)" fill-rule="evenodd" stroke="none" stroke-width="1"/>
<polygon id="exavn3vo8mbk120" points="464.719659,553.691849 482.014597,588.282842 447.424721,588.282842" transform="matrix(1 0 0 -1 0 1141.97000000000003)" opacity="0.2" fill="rgb(52,115,211)" fill-rule="evenodd" stroke="none" stroke-width="1"/>
<polygon id="exavn3vo8mbk121" points="464.719659,519.100856 482.014597,553.691849 447.424721,553.691849" opacity="0.2" fill="rgb(0,148,221)" fill-rule="evenodd" stroke="none" stroke-width="1"/>
<polygon id="exavn3vo8mbk122" points="482.014597,519.100856 499.309535,553.691849 464.719659,553.691849" transform="matrix(1 0 0 -1 0 1072.78999999999996)" opacity="0.2" fill="rgb(63,182,230)" fill-rule="evenodd" stroke="none" stroke-width="1"/>
<polygon id="exavn3vo8mbk123" points="482.014597,484.509863 499.309535,519.100856 464.719659,519.100856" opacity="0.559663" fill="rgb(52,115,211)" fill-rule="evenodd" stroke="none" stroke-width="1"/>
<polygon id="exavn3vo8mbk124" points="482.014597,588.282842 499.309535,622.873835 464.719659,622.873835" transform="matrix(1 0 0 -1 0 1211.16000000000008)" opacity="0.2" fill="rgb(57,148,221)" fill-rule="evenodd" stroke="none" stroke-width="1"/>
<polygon id="exavn3vo8mbk125" points="482.014597,553.691849 499.309535,588.282842 464.719659,588.282842" opacity="0.2" fill="rgb(46,81,201)" fill-rule="evenodd" stroke="none" stroke-width="1"/>
<polygon id="exavn3vo8mbk126" points="189.870374,207.781921 207.165312,242.372914 172.575436,242.372914" transform="matrix(1 0 0 -1 0 450.15499999999997)" opacity="0.30771" fill="rgb(57,148,221)" fill-rule="evenodd" stroke="none" stroke-width="1"/>
<polygon id="exavn3vo8mbk127" points="172.575436,242.372914 189.870374,276.963907 155.280498,276.963907" transform="matrix(1 0 0 -1 0 519.33699999999999)" opacity="0.668945" fill="rgb(63,182,230)" fill-rule="evenodd" stroke="none" stroke-width="1"/>
<polygon id="exavn3vo8mbk128" points="155.280498,276.963907 172.575436,311.554900 137.985560,311.554900" transform="matrix(1 0 0 -1 0 588.51900000000001)" opacity="0.30771" fill="rgb(70,216,240)" fill-rule="evenodd" stroke="none" stroke-width="1"/>
<polygon id="exavn3vo8mbk129" points="155.280498,242.372914 172.575436,276.963907 137.985560,276.963907" opacity="0.668945" fill="rgb(0,148,221)" fill-rule="evenodd" stroke="none" stroke-width="1"/>
<polygon id="exavn3vo8mbk130" points="137.985560,276.963907 155.280498,311.554900 120.690621,311.554900" opacity="0.668945" fill="rgb(46,81,201)" fill-rule="evenodd" stroke="none" stroke-width="1"/>
<polygon id="exavn3vo8mbk131" points="154.906553,346.145892 172.201491,380.736885 137.611615,380.736885" transform="matrix(1 0 0 -1 0 726.88300000000004)" opacity="0.2" fill="rgb(52,115,211)" fill-rule="evenodd" stroke="none" stroke-width="1"/>
<polygon id="exavn3vo8mbk132" points="154.906553,311.554900 172.201491,346.145892 137.611615,346.145892" opacity="0.568662" fill="rgb(46,81,201)" fill-rule="evenodd" stroke="none" stroke-width="1"/>
<polygon id="exavn3vo8mbk133" points="172.201491,276.963907 189.496429,311.554900 154.906553,311.554900" opacity="0.449661" fill="rgb(70,216,240)" fill-rule="evenodd" stroke="none" stroke-width="1"/>
<polygon id="exavn3vo8mbk134" points="258.676181,346.145892 275.971119,380.736885 241.381243,380.736885" transform="matrix(1 0 0 -1 0 726.88300000000004)" opacity="0.2" fill="rgb(57,148,221)" fill-rule="evenodd" stroke="none" stroke-width="1"/>
<polygon id="exavn3vo8mbk135" points="258.676181,311.554900 275.971119,346.145892 241.381243,346.145892" opacity="0.551688" fill="rgb(46,81,201)" fill-rule="evenodd" stroke="none" stroke-width="1"/>
<polygon id="exavn3vo8mbk136" points="241.381243,311.554900 258.676181,346.145892 224.086305,346.145892" transform="matrix(1 0 0 -1 0 657.70100000000002)" opacity="0.646996" fill="rgb(46,81,201)" fill-rule="evenodd" stroke="none" stroke-width="1"/>
<polygon id="exavn3vo8mbk137" points="241.381243,380.736885 258.676181,415.327878 224.086305,415.327878" transform="matrix(1 0 0 -1 0 796.06500000000005)" opacity="0.2" fill="rgb(63,182,230)" fill-rule="evenodd" stroke="none" stroke-width="1"/>
<polygon id="exavn3vo8mbk138" points="241.381243,346.145892 258.676181,380.736885 224.086305,380.736885" opacity="0.2" fill="rgb(70,216,240)" fill-rule="evenodd" stroke="none" stroke-width="1"/>
<polygon id="exavn3vo8mbk139" points="224.086305,276.963907 241.381243,311.554900 206.791367,311.554900" transform="matrix(1 0 0 -1 0 588.51900000000001)" opacity="0.392764" fill="rgb(57,148,221)" fill-rule="evenodd" stroke="none" stroke-width="1"/>
<polygon id="exavn3vo8mbk140" points="189.496429,276.963907 206.791367,311.554900 172.201491,311.554900" transform="matrix(1 0 0 -1 0 588.51900000000001)" opacity="0.646996" fill="rgb(52,115,211)" fill-rule="evenodd" stroke="none" stroke-width="1"/>
<polygon id="exavn3vo8mbk141" points="206.791367,242.372914 224.086305,276.963907 189.496429,276.963907" transform="matrix(1 0 0 -1 0 519.33699999999999)" opacity="0.668945" fill="rgb(63,182,230)" fill-rule="evenodd" stroke="none" stroke-width="1"/>
<polygon id="exavn3vo8mbk142" points="206.791367,207.781921 224.086305,242.372914 189.496429,242.372914" opacity="0.668945" fill="rgb(52,115,211)" fill-rule="evenodd" stroke="none" stroke-width="1"/>
<polygon id="exavn3vo8mbk143" points="206.791367,276.963907 224.086305,311.554900 189.496429,311.554900" opacity="0.646996" fill="rgb(46,81,201)" fill-rule="evenodd" stroke="none" stroke-width="1"/>
<polygon id="exavn3vo8mbk144" points="224.086305,380.736885 241.381243,415.327878 206.791367,415.327878" opacity="0.2" fill="rgb(0,148,221)" fill-rule="evenodd" stroke="none" stroke-width="1"/>
<polygon id="exavn3vo8mbk145" points="258.302236,207.781921 275.597174,242.372914 241.007298,242.372914" transform="matrix(1 0 0 -1 0 450.15499999999997)" opacity="0.622256" fill="rgb(63,182,230)" fill-rule="evenodd" stroke="none" stroke-width="1"/>
<polygon id="exavn3vo8mbk146" points="223.712360,207.781921 241.007298,242.372914 206.417422,242.372914" transform="matrix(1 0 0 -1 0 450.15499999999997)" opacity="0.392764" fill="rgb(52,115,211)" fill-rule="evenodd" stroke="none" stroke-width="1"/>
<polygon id="exavn3vo8mbk147" points="241.007298,242.372914 258.302236,276.963907 223.712360,276.963907" transform="matrix(1 0 0 -1 0 519.33699999999999)" opacity="0.449661" fill="rgb(46,81,201)" fill-rule="evenodd" stroke="none" stroke-width="1"/>
<polygon id="exavn3vo8mbk148" points="241.007298,207.781921 258.302236,242.372914 223.712360,242.372914" opacity="0.449661" fill="rgb(57,148,221)" fill-rule="evenodd" stroke="none" stroke-width="1"/>
<polygon id="exavn3vo8mbk149" points="292.892112,207.781921 310.187050,242.372914 275.597174,242.372914" transform="matrix(1 0 0 -1 0 450.15499999999997)" opacity="0.585589" fill="rgb(0,148,221)" fill-rule="evenodd" stroke="none" stroke-width="1"/>
<polygon id="exavn3vo8mbk150" points="310.187050,242.372914 327.481988,276.963907 292.892112,276.963907" transform="matrix(1 0 0 -1 0 519.33699999999999)" opacity="0.748744" fill="rgb(63,182,230)" fill-rule="evenodd" stroke="none" stroke-width="1"/>
<polygon id="exavn3vo8mbk151" points="310.187050,207.781921 327.481988,242.372914 292.892112,242.372914" opacity="0.748744" fill="rgb(70,216,240)" fill-rule="evenodd" stroke="none" stroke-width="1"/>
<polygon id="exavn3vo8mbk152" points="292.892112,276.963907 310.187050,311.554900 275.597174,311.554900" transform="matrix(1 0 0 -1 0 588.51900000000001)" opacity="0.2" fill="rgb(70,216,240)" fill-rule="evenodd" stroke="none" stroke-width="1"/>
<polygon id="exavn3vo8mbk153" points="292.892112,242.372914 310.187050,276.963907 275.597174,276.963907" opacity="0.585589" fill="rgb(0,148,221)" fill-rule="evenodd" stroke="none" stroke-width="1"/>
<polygon id="exavn3vo8mbk154" points="258.302236,276.963907 275.597174,311.554900 241.007298,311.554900" transform="matrix(1 0 0 -1 0 588.51900000000001)" opacity="0.449661" fill="rgb(52,115,211)" fill-rule="evenodd" stroke="none" stroke-width="1"/>
<polygon id="exavn3vo8mbk155" points="258.302236,242.372914 275.597174,276.963907 241.007298,276.963907" opacity="0.585589" fill="rgb(57,148,221)" fill-rule="evenodd" stroke="none" stroke-width="1"/>
<polygon id="exavn3vo8mbk156" points="275.597174,242.372914 292.892112,276.963907 258.302236,276.963907" transform="matrix(1 0 0 -1 0 519.33699999999999)" opacity="0.646996" fill="rgb(52,115,211)" fill-rule="evenodd" stroke="none" stroke-width="1"/>
<polygon id="exavn3vo8mbk157" points="275.597174,207.781921 292.892112,242.372914 258.302236,242.372914" opacity="0.646996" fill="rgb(0,148,221)" fill-rule="evenodd" stroke="none" stroke-width="1"/>
<polygon id="exavn3vo8mbk158" points="275.597174,311.554900 292.892112,346.145892 258.302236,346.145892" transform="matrix(1 0 0 -1 0 657.70100000000002)" opacity="0.449661" fill="rgb(57,148,221)" fill-rule="evenodd" stroke="none" stroke-width="1"/>
<polygon id="exavn3vo8mbk159" points="378.618913,242.372914 395.913851,276.963907 361.323975,276.963907" transform="matrix(1 0 0 -1 0 519.33699999999999)" fill="rgb(46,81,201)" fill-rule="evenodd" stroke="none" stroke-width="1"/>
<polygon id="exavn3vo8mbk160" points="378.618913,207.781921 395.913851,242.372914 361.323975,242.372914" opacity="0.551688" fill="rgb(57,148,221)" fill-rule="evenodd" stroke="none" stroke-width="1"/>
<polygon id="exavn3vo8mbk161" points="465.093603,207.781921 482.388541,242.372914 447.798665,242.372914" transform="matrix(1 0 0 -1 0 450.15499999999997)" opacity="0.537133" fill="rgb(57,148,221)" fill-rule="evenodd" stroke="none" stroke-width="1"/>
<polygon id="exavn3vo8mbk162" points="447.798665,242.372914 465.093603,276.963907 430.503727,276.963907" transform="matrix(1 0 0 -1 0 519.33699999999999)" opacity="0.585589" fill="rgb(63,182,230)" fill-rule="evenodd" stroke="none" stroke-width="1"/>
<polygon id="exavn3vo8mbk163" points="447.798665,207.781921 465.093603,242.372914 430.503727,242.372914" opacity="0.449661" fill="rgb(70,216,240)" fill-rule="evenodd" stroke="none" stroke-width="1"/>
<polygon id="exavn3vo8mbk164" points="430.503727,276.963907 447.798665,311.554900 413.208789,311.554900" transform="matrix(1 0 0 -1 0 588.51900000000001)" opacity="0.383208" fill="rgb(70,216,240)" fill-rule="evenodd" stroke="none" stroke-width="1"/>
<polygon id="exavn3vo8mbk165" points="395.913851,242.372914 413.208789,276.963907 378.618913,276.963907" opacity="0.449661" fill="rgb(57,148,221)" fill-rule="evenodd" stroke="none" stroke-width="1"/>
<polygon id="exavn3vo8mbk166" points="413.208789,242.372914 430.503727,276.963907 395.913851,276.963907" transform="matrix(1 0 0 -1 0 519.33699999999999)" opacity="0.748744" fill="rgb(52,115,211)" fill-rule="evenodd" stroke="none" stroke-width="1"/>
<polygon id="exavn3vo8mbk167" points="413.208789,207.781921 430.503727,242.372914 395.913851,242.372914" opacity="0.748744" fill="rgb(0,148,221)" fill-rule="evenodd" stroke="none" stroke-width="1"/>
<polygon id="exavn3vo8mbk168" points="413.208789,311.554900 430.503727,346.145892 395.913851,346.145892" transform="matrix(1 0 0 -1 0 657.70100000000002)" opacity="0.383208" fill="rgb(57,148,221)" fill-rule="evenodd" stroke="none" stroke-width="1"/>
<polygon id="exavn3vo8mbk169" points="464.719659,346.145892 482.014597,380.736885 447.424721,380.736885" transform="matrix(1 0 0 -1 0 726.88300000000004)" opacity="0.2" fill="rgb(63,182,230)" fill-rule="evenodd" stroke="none" stroke-width="1"/>
<polygon id="exavn3vo8mbk170" points="464.719659,311.554900 482.014597,346.145892 447.424721,346.145892" opacity="0.2" fill="rgb(70,216,240)" fill-rule="evenodd" stroke="none" stroke-width="1"/>
<polygon id="exavn3vo8mbk171" points="447.424721,311.554900 464.719659,346.145892 430.129783,346.145892" transform="matrix(1 0 0 -1 0 657.70100000000002)" opacity="0.2" fill="rgb(0,148,221)" fill-rule="evenodd" stroke="none" stroke-width="1"/>
<polygon id="exavn3vo8mbk172" points="447.424721,276.963907 464.719659,311.554900 430.129783,311.554900" opacity="0.585589" fill="rgb(70,216,240)" fill-rule="evenodd" stroke="none" stroke-width="1"/>
<polygon id="exavn3vo8mbk173" points="447.424721,380.736885 464.719659,415.327878 430.129783,415.327878" transform="matrix(1 0 0 -1 0 796.06500000000005)" fill="rgb(46,81,201)" fill-rule="evenodd" stroke="none" stroke-width="1"/>
<polygon id="exavn3vo8mbk174" points="447.424721,346.145892 464.719659,380.736885 430.129783,380.736885" opacity="0.2" fill="rgb(57,148,221)" fill-rule="evenodd" stroke="none" stroke-width="1"/>
<polygon id="exavn3vo8mbk175" points="533.899411,346.145892 551.194349,380.736885 516.604473,380.736885" transform="matrix(1 0 0 -1 0 726.88300000000004)" opacity="0.2" fill="rgb(57,148,221)" fill-rule="evenodd" stroke="none" stroke-width="1"/>
<polygon id="exavn3vo8mbk176" points="533.899411,311.554900 551.194349,346.145892 516.604473,346.145892" fill="rgb(46,81,201)" fill-rule="evenodd" stroke="none" stroke-width="1"/>
<polygon id="exavn3vo8mbk177" points="499.309535,346.145892 516.604473,380.736885 482.014597,380.736885" transform="matrix(1 0 0 -1 0 726.88300000000004)" opacity="0.2" fill="rgb(0,148,221)" fill-rule="evenodd" stroke="none" stroke-width="1"/>
<polygon id="exavn3vo8mbk178" points="499.309535,311.554900 516.604473,346.145892 482.014597,346.145892" opacity="0.2" fill="rgb(52,115,211)" fill-rule="evenodd" stroke="none" stroke-width="1"/>
<polygon id="exavn3vo8mbk179" points="516.604473,311.554900 533.899411,346.145892 499.309535,346.145892" transform="matrix(1 0 0 -1 0 657.70100000000002)" opacity="0.585589" fill="rgb(46,81,201)" fill-rule="evenodd" stroke="none" stroke-width="1"/>
<polygon id="exavn3vo8mbk180" points="516.604473,276.963907 533.899411,311.554900 499.309535,311.554900" opacity="0.585589" fill="rgb(57,148,221)" fill-rule="evenodd" stroke="none" stroke-width="1"/>
<polygon id="exavn3vo8mbk181" points="516.604473,346.145892 533.899411,380.736885 499.309535,380.736885" opacity="0.2" fill="rgb(70,216,240)" fill-rule="evenodd" stroke="none" stroke-width="1"/>
<polygon id="exavn3vo8mbk182" points="499.309535,242.372914 516.604473,276.963907 482.014597,276.963907" opacity="0.748744" fill="rgb(70,216,240)" fill-rule="evenodd" stroke="none" stroke-width="1"/>
<polygon id="exavn3vo8mbk183" points="464.719659,276.963907 482.014597,311.554900 447.424721,311.554900" transform="matrix(1 0 0 -1 0 588.51900000000001)" fill="rgb(52,115,211)" fill-rule="evenodd" stroke="none" stroke-width="1"/>
<polygon id="exavn3vo8mbk184" points="464.719659,242.372914 482.014597,276.963907 447.424721,276.963907" opacity="0.748744" fill="rgb(0,148,221)" fill-rule="evenodd" stroke="none" stroke-width="1"/>
<polygon id="exavn3vo8mbk185" points="482.014597,207.781921 499.309535,242.372914 464.719659,242.372914" opacity="0.807664" fill="rgb(52,115,211)" fill-rule="evenodd" stroke="none" stroke-width="1"/>
<polygon id="exavn3vo8mbk186" points="482.014597,311.554900 499.309535,346.145892 464.719659,346.145892" transform="matrix(1 0 0 -1 0 657.70100000000002)" opacity="0.2" fill="rgb(57,148,221)" fill-rule="evenodd" stroke="none" stroke-width="1"/>
<polygon id="exavn3vo8mbk187" points="482.014597,276.963907 499.309535,311.554900 464.719659,311.554900" opacity="0.585589" fill="rgb(46,81,201)" fill-rule="evenodd" stroke="none" stroke-width="1"/>
<polygon id="exavn3vo8mbk188" points="499.309535,415.327878 516.604473,449.918871 482.014597,449.918871" transform="matrix(1 0 0 -1 0 865.24699999999996)" opacity="0.585589" fill="rgb(70,216,240)" fill-rule="evenodd" stroke="none" stroke-width="1"/>
<polygon id="exavn3vo8mbk189" points="464.719659,415.327878 482.014597,449.918871 447.424721,449.918871" transform="matrix(1 0 0 -1 0 865.24699999999996)" fill="rgb(52,115,211)" fill-rule="evenodd" stroke="none" stroke-width="1"/>
<polygon id="exavn3vo8mbk190" points="464.719659,380.736885 482.014597,415.327878 447.424721,415.327878" opacity="0.2" fill="rgb(57,148,221)" fill-rule="evenodd" stroke="none" stroke-width="1"/>
<polygon id="exavn3vo8mbk191" points="482.014597,380.736885 499.309535,415.327878 464.719659,415.327878" transform="matrix(1 0 0 -1 0 796.06500000000005)" opacity="0.2" fill="rgb(52,115,211)" fill-rule="evenodd" stroke="none" stroke-width="1"/>
<polygon id="exavn3vo8mbk192" points="482.014597,346.145892 499.309535,380.736885 464.719659,380.736885" opacity="0.2" fill="rgb(0,148,221)" fill-rule="evenodd" stroke="none" stroke-width="1"/>
<polygon id="exavn3vo8mbk193" points="482.014597,449.918871 499.309535,484.509863 464.719659,484.509863" transform="matrix(1 0 0 -1 0 934.42899999999997)" opacity="0.2" fill="rgb(57,148,221)" fill-rule="evenodd" stroke="none" stroke-width="1"/>
<polygon id="exavn3vo8mbk194" points="498.935590,207.781921 516.230528,242.372914 481.640652,242.372914" transform="matrix(1 0 0 -1 0 450.15499999999997)" opacity="0.748744" fill="rgb(52,115,211)" fill-rule="evenodd" stroke="none" stroke-width="1"/>
<polygon id="exavn3vo8mbk195" points="516.230528,242.372914 533.525466,276.963907 498.935590,276.963907" transform="matrix(1 0 0 -1 0 519.33699999999999)" opacity="0.748744" fill="rgb(46,81,201)" fill-rule="evenodd" stroke="none" stroke-width="1"/>
<polygon id="exavn3vo8mbk196" points="516.230528,207.781921 533.525466,242.372914 498.935590,242.372914" opacity="0.537133" fill="rgb(57,148,221)" fill-rule="evenodd" stroke="none" stroke-width="1"/>
<polygon id="exavn3vo8mbk197" points="568.115342,242.372914 585.410280,276.963907 550.820404,276.963907" opacity="0.502023" fill="rgb(0,148,221)" fill-rule="evenodd" stroke="none" stroke-width="1"/>
<polygon id="exavn3vo8mbk198" points="533.525466,276.963907 550.820404,311.554900 516.230528,311.554900" transform="matrix(1 0 0 -1 0 588.51900000000001)" fill="rgb(52,115,211)" fill-rule="evenodd" stroke="none" stroke-width="1"/>
<polygon id="exavn3vo8mbk199" points="550.820404,242.372914 568.115342,276.963907 533.525466,276.963907" transform="matrix(1 0 0 -1 0 519.33699999999999)" opacity="0.807664" fill="rgb(52,115,211)" fill-rule="evenodd" stroke="none" stroke-width="1"/>
<polygon id="exavn3vo8mbk200" points="550.820404,311.554900 568.115342,346.145892 533.525466,346.145892" transform="matrix(1 0 0 -1 0 657.70100000000002)" opacity="0.748744" fill="rgb(57,148,221)" fill-rule="evenodd" stroke="none" stroke-width="1"/>
<polygon id="exavn3vo8mbk201" points="550.820404,276.963907 568.115342,311.554900 533.525466,311.554900" opacity="0.481678" fill="rgb(46,81,201)" fill-rule="evenodd" stroke="none" stroke-width="1"/>
<polygon id="exavn3vo8mbk202" points="567.365850,311.485451 584.660788,346.076443 550.070912,346.076443" opacity="0.481678" fill="rgb(46,81,201)" fill-rule="evenodd" stroke="none" stroke-width="1"/>
<polygon id="exavn3vo8mbk203" points="584.660788,346.076443 601.955726,380.667436 567.365850,380.667436" opacity="0.807664" fill="rgb(57,148,221)" fill-rule="evenodd" stroke="none" stroke-width="1"/>
</g><g id="exavn3vo8mbk204" transform="matrix(1 0 0 1 172.20099999999999 173.15199999999999)" opacity="0.56"><polygon id="exavn3vo8mbk205" points="223.003327,34.590993 205.708389,-0 240.298265,-0" transform="matrix(-1 0 -0 -1 446.00700000000001 34.59100000000000)" fill="rgb(46,81,201)" fill-rule="evenodd" stroke="none" stroke-width="1"/>
<polygon id="exavn3vo8mbk206" points="103.395683,242.372914 120.690621,276.963907 86.100746,276.963907" opacity="0.620884" fill="rgb(46,81,201)" fill-rule="evenodd" stroke="none" stroke-width="1"/>
<polygon id="exavn3vo8mbk207" points="241.007298,207.781921 258.302236,242.372914 223.712360,242.372914" transform="matrix(1 0 0 -1 0 450.15499999999997)" opacity="0.785993" fill="rgb(63,182,230)" fill-rule="evenodd" stroke="none" stroke-width="1"/>
<polygon id="exavn3vo8mbk208" points="17.294938,69.417950 34.589876,104.008943 0,104.008943" opacity="0.668945" fill="rgb(0,148,221)" fill-rule="evenodd" stroke="none" stroke-width="1"/>
<polygon id="exavn3vo8mbk209" points="103.395683,104.008943 120.690621,138.599936 86.100746,138.599936" fill="rgb(46,81,201)" fill-rule="evenodd" stroke="none" stroke-width="1"/>
<polygon id="exavn3vo8mbk210" points="223.712360,34.826957 241.007298,69.417950 206.417422,69.417950" transform="matrix(1 0 0 -1 0 104.24500000000000)" fill="rgb(63,182,230)" fill-rule="evenodd" stroke="none" stroke-width="1"/>
<polygon id="exavn3vo8mbk211" points="241.007298,104.008943 258.302236,138.599936 223.712360,138.599936" fill="rgb(46,81,201)" fill-rule="evenodd" stroke="none" stroke-width="1"/>
<polygon id="exavn3vo8mbk212" points="344.402982,207.781921 361.697920,242.372914 327.108044,242.372914" transform="matrix(1 0 0 -1 0 450.15499999999997)" fill="rgb(63,182,230)" fill-rule="evenodd" stroke="none" stroke-width="1"/>
<polygon id="exavn3vo8mbk213" points="309.813106,242.372914 327.108044,276.963907 292.518168,276.963907" fill="rgb(46,81,201)" fill-rule="evenodd" stroke="none" stroke-width="1"/>
<polygon id="exavn3vo8mbk214" points="412.459297,138.530487 429.754236,173.121479 395.164359,173.121479" transform="matrix(1 0 0 -1 0 311.65199999999999)" opacity="0.807664" fill="rgb(0,148,221)" fill-rule="evenodd" stroke="none" stroke-width="1"/>
</g><g id="exavn3vo8mbk215" transform="matrix(1 0 0 1 69.17970000000003 103.97000000000000)" opacity="0.7"><polygon id="exavn3vo8mbk216" points="308.730128,69.181986 326.025066,103.772978 291.435190,103.772978" transform="matrix(-1 0 -0 -1 617.46000000000004 172.95500000000001)" fill="rgb(46,81,201)" fill-rule="evenodd" stroke="none" stroke-width="1"/>
<polygon id="exavn3vo8mbk217" points="309.104072,0 326.399010,34.590993 291.809134,34.590993" transform="matrix(-1 0 -0 -1 618.20799999999997 34.59100000000000)" fill="rgb(0,148,221)" fill-rule="evenodd" stroke="none" stroke-width="1"/>
<polygon id="exavn3vo8mbk218" points="17.294938,242.372914 34.589876,276.963907 -0,276.963907" transform="matrix(1 0 0 -1 0 519.33699999999999)" opacity="0.68171" fill="rgb(0,148,221)" fill-rule="evenodd" stroke="none" stroke-width="1"/>
<polygon id="exavn3vo8mbk219" points="206.417422,242.372914 223.712360,276.963907 189.122484,276.963907" fill="rgb(52,115,211)" fill-rule="evenodd" stroke="none" stroke-width="1"/>
<polygon id="exavn3vo8mbk220" points="154.906553,138.599936 172.201491,173.190929 137.611615,173.190929" opacity="0.748744" fill="rgb(70,216,240)" fill-rule="evenodd" stroke="none" stroke-width="1"/>
<polygon id="exavn3vo8mbk221" points="361.323975,104.008943 378.618913,138.599936 344.029037,138.599936" transform="matrix(1 0 0 -1 0 242.60900000000001)" fill="rgb(0,148,221)" fill-rule="evenodd" stroke="none" stroke-width="1"/>
<polygon id="exavn3vo8mbk222" points="360.950031,207.781921 378.244969,242.372914 343.655093,242.372914" fill="rgb(46,81,201)" fill-rule="evenodd" stroke="none" stroke-width="1"/>
<polygon id="exavn3vo8mbk223" points="430.129783,276.963907 447.424721,311.554900 412.834845,311.554900" fill="rgb(0,148,221)" fill-rule="evenodd" stroke="none" stroke-width="1"/>
<polygon id="exavn3vo8mbk224" points="498.186098,242.303465 515.481036,276.894458 480.891160,276.894458" transform="matrix(1 0 0 -1 0 519.19799999999998)" fill="rgb(52,115,211)" fill-rule="evenodd" stroke="none" stroke-width="1"/>
</g><g id="exavn3vo8mbk225" transform="matrix(1 0 0 1 34.58990000000000 34.78760000000000)"><polygon id="exavn3vo8mbk226" points="516.501905,381.008271 533.796843,415.599264 499.206967,415.599264" fill="rgb(46,81,201)" fill-rule="evenodd" stroke="none" stroke-width="1"/>
<polygon id="exavn3vo8mbk227" points="429.420749,34.590993 412.125811,-0 446.715687,-0" transform="matrix(-1 0 -0 -1 858.84100000000001 34.59100000000000)" opacity="0.717285" fill="rgb(46,81,201)" fill-rule="evenodd" stroke="none" stroke-width="1"/>
<polygon id="exavn3vo8mbk228" points="395.204818,172.954964 377.909880,138.363971 412.499756,138.363971" transform="matrix(-1 0 -0 -1 790.40999999999997 311.31900000000002)" fill="rgb(57,148,221)" fill-rule="evenodd" stroke="none" stroke-width="1"/>
<polygon id="exavn3vo8mbk229" points="274.888141,138.363971 292.183079,172.954964 257.593203,172.954964" transform="matrix(-1 0 -0 -1 549.77599999999995 311.31900000000002)" fill="rgb(70,216,240)" fill-rule="evenodd" stroke="none" stroke-width="1"/>
<polygon id="exavn3vo8mbk230" points="17.294938,346.145892 34.589876,380.736885 0,380.736885" opacity="0.668945" fill="rgb(57,148,221)" fill-rule="evenodd" stroke="none" stroke-width="1"/>
<polygon id="exavn3vo8mbk231" points="275.597174,415.327878 292.892112,449.918871 258.302236,449.918871" transform="matrix(1 0 0 -1 0 865.24699999999996)" opacity="0.68171" fill="rgb(46,81,201)" fill-rule="evenodd" stroke="none" stroke-width="1"/>
<polygon id="exavn3vo8mbk232" points="103.395683,276.963907 120.690621,311.554900 86.100746,311.554900" transform="matrix(1 0 0 -1 0 588.51900000000001)" opacity="0.68171" fill="rgb(57,148,221)" fill-rule="evenodd" stroke="none" stroke-width="1"/>
<polygon id="exavn3vo8mbk233" points="206.791367,242.372914 224.086305,276.963907 189.496429,276.963907" fill="rgb(57,148,221)" fill-rule="evenodd" stroke="none" stroke-width="1"/>
<polygon id="exavn3vo8mbk234" points="292.892112,173.190929 310.187050,207.781921 275.597174,207.781921" transform="matrix(1 0 0 -1 0 380.97300000000001)" fill="rgb(57,148,221)" fill-rule="evenodd" stroke="none" stroke-width="1"/>
<polygon id="exavn3vo8mbk235" points="326.734099,173.190929 344.029037,207.781921 309.439161,207.781921" transform="matrix(1 0 0 -1 0 380.97300000000001)" fill="rgb(52,115,211)" fill-rule="evenodd" stroke="none" stroke-width="1"/>
<polygon id="exavn3vo8mbk236" points="395.913851,207.781921 413.208789,242.372914 378.618913,242.372914" fill="rgb(0,148,221)" fill-rule="evenodd" stroke="none" stroke-width="1"/>
<polygon id="exavn3vo8mbk237" points="361.323975,242.372914 378.618913,276.963907 344.029037,276.963907" transform="matrix(1 0 0 -1 0 519.33699999999999)" fill="rgb(52,115,211)" fill-rule="evenodd" stroke="none" stroke-width="1"/>
<polygon id="exavn3vo8mbk238" points="395.539907,311.554900 412.834845,346.145892 378.244969,346.145892" transform="matrix(1 0 0 -1 0 657.70100000000002)" fill="rgb(52,115,211)" fill-rule="evenodd" stroke="none" stroke-width="1"/>
<polygon id="exavn3vo8mbk239" points="464.719659,242.372914 482.014597,276.963907 447.424721,276.963907" transform="matrix(1 0 0 -1 0 519.33699999999999)" fill="rgb(57,148,221)" fill-rule="evenodd" stroke="none" stroke-width="1"/>
<polygon id="exavn3vo8mbk240" points="447.424721,207.781921 464.719659,242.372914 430.129783,242.372914" transform="matrix(1 0 0 -1 0 450.15499999999997)" fill="rgb(63,182,230)" fill-rule="evenodd" stroke="none" stroke-width="1"/>
<polygon id="exavn3vo8mbk241" points="498.935590,207.781921 516.230528,242.372914 481.640652,242.372914" fill="rgb(57,148,221)" fill-rule="evenodd" stroke="none" stroke-width="1"/>
</g></g>
</svg>