<?xml version="1.0" encoding="UTF-8"?>
<svg width="258px" height="56px" viewBox="0 0 258 56" version="1.1" xmlns="http://www.w3.org/2000/svg" xmlns:xlink="http://www.w3.org/1999/xlink">
    <!-- Generator: Sketch 55.2 (78181) - https://sketchapp.com -->
    <title>client logo/apilayer</title>
    <desc>Created with Sketch.</desc>
    <g id="client-logo/apilayer" stroke="none" stroke-width="1" fill="none" fill-rule="evenodd">
        <g>
            <rect id="Rectangle" x="0" y="0" width="258" height="56"></rect>
            <path d="M64.1568151,34.8418616 C64.1568151,34.5637902 63.8323985,34.4247545 63.6006723,34.6101354 C63.5079818,34.7028259 63.4152914,34.7955163 63.2762557,34.8882068 C62.951839,35.1662782 62.6274224,35.3980044 62.3030057,35.5833853 C61.8858986,35.8151115 61.4224462,36.0004925 61.0053391,36.0931829 C60.5418868,36.1858734 60.0320892,36.2785639 59.5222916,36.2785639 C58.224625,36.2785639 57.1586846,35.8151115 56.3244703,34.8882068 C55.4439109,33.9613021 55.0268037,32.756326 55.0268037,31.2732784 C55.0268037,30.1146476 55.2585299,29.1413976 55.675637,28.3998739 C56.0927442,27.6583501 56.7415775,27.055862 57.5294465,26.6387549 C58.3173155,26.2216478 59.3369106,25.8972311 60.4955415,25.7118502 C61.6541724,25.5264693 62.9054938,25.3874335 64.1568151,25.2947431 L64.1568151,25.2020526 C64.1568151,24.3214931 63.8323985,23.7190051 63.2299104,23.3945884 C62.6274224,23.0701718 61.7468629,22.8847908 60.5418868,22.8847908 C59.8467082,22.8847908 59.0588392,23.0238265 58.2709702,23.3482432 C57.4831012,23.6263146 56.8806132,23.8580408 56.5561965,24.0434217 L56.1390894,24.0434217 L56.1390894,20.4284934 C56.1390894,20.2894576 56.2317799,20.1504219 56.3708156,20.1040767 C56.8342679,19.965041 57.4831012,19.8260053 58.3636607,19.6869696 C59.3832559,19.5015886 60.4028511,19.4088982 61.4224462,19.4088982 C63.8787437,19.4088982 65.6398627,19.8723505 66.7058031,20.75291 C67.7717435,21.6334695 68.3278863,23.0701718 68.3278863,24.9703264 L68.3278863,35.4906949 C68.3278863,35.6760758 68.1888506,35.8151115 68.0034697,35.8151115 L64.3885413,35.8151115 C64.2031604,35.8151115 64.0641247,35.6760758 64.0641247,35.4906949 L64.0641247,34.8418616 L64.1568151,34.8418616 Z M64.1568151,31.4586594 L64.1568151,28.6316 C64.1568151,28.4462191 63.9714342,28.2608381 63.7860533,28.3071834 C63.3226009,28.3535286 62.8128033,28.4462191 62.2566605,28.4925643 C61.5614819,28.5852548 61.0516844,28.7242905 60.7272677,28.816981 C60.3101606,28.9560167 59.9857439,29.2340881 59.7540178,29.5121595 C59.5222916,29.8365762 59.4296011,30.207338 59.4296011,30.7171356 C59.4296011,31.0415523 59.4759464,31.3196237 59.5222916,31.5050046 C59.5686368,31.6903856 59.7076725,31.9221117 59.8930535,32.1074927 C60.0784344,32.2928736 60.3101606,32.4319093 60.5418868,32.5245998 C60.7736129,32.6172903 61.1907201,32.6636355 61.7468629,32.6636355 C62.16397,32.6636355 62.6274224,32.570945 63.0445295,32.3392189 C63.4616366,32.1538379 63.7860533,31.9221117 64.1104699,31.5976951 C64.1104699,31.6440403 64.1568151,31.5513499 64.1568151,31.4586594 Z M86.4025282,27.6120048 C86.4025282,28.9096714 86.2171472,30.1146476 85.8927306,31.2269332 C85.5683139,32.2928736 85.1048616,33.2197783 84.5487187,33.9149569 C83.9925759,34.6564806 83.3437426,35.2126235 82.6022188,35.5833853 C81.8606951,35.9541472 81.1191713,36.1395282 80.2849571,36.1395282 C79.5434333,36.1395282 78.8946,36.0468377 78.3384572,35.8614568 C77.9676953,35.7224211 77.5969334,35.5370401 77.1798263,35.3516592 C76.9481001,35.2126235 76.7163739,35.3980044 76.7163739,35.6297306 L76.7163739,41.3301945 C76.7163739,41.5155755 76.5773382,41.6546112 76.3919573,41.6546112 L72.7306837,41.6546112 C72.5453028,41.6546112 72.406267,41.5155755 72.406267,41.3301945 L72.406267,20.1967672 C72.406267,20.0113862 72.5453028,19.8723505 72.7306837,19.8723505 L76.3919573,19.8723505 C76.5773382,19.8723505 76.7163739,20.0113862 76.7163739,20.1967672 L76.7163739,20.7992552 C76.7163739,21.0773266 77.0407906,21.2163624 77.2725168,21.0309814 C77.7823144,20.6138743 78.2457667,20.2894576 78.7555643,20.0113862 C79.4507428,19.6406243 80.2386118,19.4088982 81.1191713,19.4088982 C82.7875998,19.4088982 84.0852664,20.1504219 85.0121711,21.5871242 C85.9390758,23.0701718 86.4025282,25.0630169 86.4025282,27.6120048 Z M81.9533855,27.7046953 C81.9533855,26.1753025 81.7216594,25.0166717 81.3045523,24.3214931 C80.8410999,23.6263146 80.1459214,23.2555527 79.1726714,23.2555527 C78.7555643,23.2555527 78.3384572,23.3482432 77.9213501,23.4872789 C77.5505882,23.6263146 77.1798263,23.8116955 76.8554096,23.9970765 C76.7627192,24.0434217 76.7163739,24.1824574 76.7163739,24.2751479 L76.7163739,31.8757665 C76.7163739,32.0148022 76.8090644,32.1538379 76.9017549,32.2001832 C77.1334811,32.2928736 77.3652072,32.3392189 77.5969334,32.3855641 C77.9213501,32.4319093 78.2457667,32.4319093 78.5701834,32.4319093 C79.7288142,32.4319093 80.5630285,32.0148022 81.1191713,31.2269332 C81.6753141,30.4390642 81.9533855,29.2804333 81.9533855,27.7046953 Z M93.0762421,17.5550888 L90.2491827,17.5550888 C89.7857303,17.5550888 89.3686232,17.1843269 89.3686232,16.6745293 L89.3686232,14.5426484 C89.3686232,14.0791961 89.7393851,13.662089 90.2491827,13.662089 L93.0762421,13.662089 C93.5396944,13.662089 93.9568015,14.0328509 93.9568015,14.5426484 L93.9568015,16.6745293 C93.9104563,17.1843269 93.5396944,17.5550888 93.0762421,17.5550888 Z M93.4933492,35.8151115 L89.8320756,35.8151115 C89.6466946,35.8151115 89.5076589,35.6760758 89.5076589,35.4906949 L89.5076589,20.1967672 C89.5076589,20.0113862 89.6466946,19.8723505 89.8320756,19.8723505 L93.4933492,19.8723505 C93.6787301,19.8723505 93.8177658,20.0113862 93.8177658,20.1967672 L93.8177658,35.4906949 C93.8177658,35.6297306 93.6787301,35.8151115 93.4933492,35.8151115 Z M101.835492,35.8151115 L98.174218,35.8151115 C97.988837,35.8151115 97.8498013,35.6760758 97.8498013,35.4906949 L97.8498013,14.0328509 C97.8498013,13.8474699 97.988837,13.7084342 98.174218,13.7084342 L101.835492,13.7084342 C102.020873,13.7084342 102.159908,13.8474699 102.159908,14.0328509 L102.159908,35.4906949 C102.159908,35.6297306 102.020873,35.8151115 101.835492,35.8151115 Z M114.348705,34.8418616 C114.348705,34.5637902 114.024288,34.4247545 113.792562,34.6101354 C113.699872,34.7028259 113.607181,34.7955163 113.468146,34.8882068 C113.143729,35.1662782 112.819312,35.3980044 112.494896,35.5833853 C112.077789,35.8151115 111.614336,36.0004925 111.197229,36.0931829 C110.733777,36.1858734 110.223979,36.2785639 109.714182,36.2785639 C108.416515,36.2785639 107.350575,35.8151115 106.51636,34.8882068 C105.635801,33.9613021 105.218694,32.756326 105.218694,31.2732784 C105.218694,30.1146476 105.45042,29.1413976 105.867527,28.3998739 C106.284634,27.6583501 106.933467,27.055862 107.721336,26.6387549 C108.509205,26.2216478 109.528801,25.8972311 110.687432,25.7118502 C111.846062,25.5264693 113.097384,25.3874335 114.348705,25.2947431 L114.348705,25.2020526 C114.348705,24.3214931 114.024288,23.7190051 113.4218,23.3945884 C112.819312,23.0701718 111.938753,22.8847908 110.733777,22.8847908 C110.038598,22.8847908 109.250729,23.0238265 108.46286,23.3482432 C107.674991,23.6263146 107.072503,23.8580408 106.748087,24.0434217 L106.330979,24.0434217 L106.330979,20.4284934 C106.330979,20.2894576 106.42367,20.1504219 106.562706,20.1040767 C107.026158,19.965041 107.674991,19.8260053 108.555551,19.6869696 C109.575146,19.5015886 110.594741,19.4088982 111.614336,19.4088982 C114.070634,19.4088982 115.831753,19.8723505 116.897693,20.75291 C117.963633,21.6334695 118.519776,23.0701718 118.519776,24.9703264 L118.519776,35.4906949 C118.519776,35.6760758 118.380741,35.8151115 118.19536,35.8151115 L114.580431,35.8151115 C114.39505,35.8151115 114.256015,35.6760758 114.256015,35.4906949 L114.256015,34.8418616 L114.348705,34.8418616 Z M114.348705,31.4586594 L114.348705,28.6316 C114.348705,28.4462191 114.163324,28.2608381 113.977943,28.3071834 C113.514491,28.3535286 113.004693,28.4462191 112.44855,28.4925643 C111.753372,28.5852548 111.243574,28.7242905 110.919158,28.816981 C110.502051,28.9560167 110.177634,29.2340881 109.945908,29.5121595 C109.714182,29.8365762 109.621491,30.207338 109.621491,30.7171356 C109.621491,31.0415523 109.667836,31.3196237 109.714182,31.5050046 C109.760527,31.6903856 109.899563,31.9221117 110.084943,32.1074927 C110.270324,32.2928736 110.502051,32.4319093 110.733777,32.5245998 C110.965503,32.6172903 111.38261,32.6636355 111.938753,32.6636355 C112.35586,32.6636355 112.819312,32.570945 113.236419,32.3392189 C113.653527,32.1538379 113.977943,31.9221117 114.30236,31.5976951 C114.348705,31.6440403 114.348705,31.5513499 114.348705,31.4586594 Z M128.947454,29.1413976 L131.635478,20.1040767 C131.681823,19.965041 131.820859,19.8723505 131.959895,19.8723505 L135.667513,19.8723505 C135.89924,19.8723505 136.038275,20.1040767 135.99193,20.2894576 L128.762073,41.422885 C128.715728,41.5619207 128.576692,41.6546112 128.437657,41.6546112 L124.451966,41.6546112 C124.22024,41.6546112 124.081205,41.422885 124.12755,41.2375041 L126.07405,35.8151115 C126.120395,35.7687663 126.120395,35.6760758 126.07405,35.5833853 L121.022419,20.2894576 C120.929729,20.0577315 121.11511,19.8723505 121.346836,19.8723505 L125.19349,19.8723505 C125.332526,19.8723505 125.471562,19.965041 125.517907,20.1040767 L128.344966,29.1413976 C128.437657,29.419469 128.854764,29.419469 128.947454,29.1413976 Z M151.424893,28.7706357 L142.248537,28.7706357 C142.063156,28.7706357 141.877775,28.9560167 141.92412,29.1413976 C142.063156,30.207338 142.433918,31.0415523 143.082751,31.6440403 C143.824275,32.2928736 144.890215,32.6172903 146.326918,32.6172903 C147.253822,32.6172903 148.134382,32.4319093 148.968596,32.0148022 C149.80281,31.6440403 150.497989,31.2269332 151.007786,30.7634809 L151.471239,30.7634809 L151.471239,34.6564806 C151.471239,34.7955163 151.378548,34.8882068 151.285858,34.9808973 C150.405298,35.3980044 149.524739,35.7224211 148.73687,35.907802 C147.85631,36.0931829 146.929406,36.2322186 145.863465,36.2322186 C143.175442,36.2322186 141.089906,35.4906949 139.653204,34.0539926 C138.216501,32.6172903 137.521323,30.5780999 137.521323,27.8900763 C137.521323,25.2483978 138.216501,23.1628622 139.560513,21.6334695 C140.904525,20.1040767 142.80468,19.3162077 145.168287,19.3162077 C147.346513,19.3162077 149.014941,19.965041 150.080882,21.2627076 C151.193167,22.5603742 151.74931,24.4605288 151.74931,26.9168263 L151.74931,28.3998739 C151.74931,28.6316 151.610274,28.7706357 151.424893,28.7706357 Z M147.114787,25.7581954 C147.300168,25.7581954 147.439203,25.6191597 147.439203,25.4337788 C147.392858,24.5532193 147.161132,23.8580408 146.79037,23.3482432 C146.373263,22.7921004 145.72443,22.5603742 144.797525,22.5603742 C143.963311,22.5603742 143.268132,22.8384456 142.758334,23.3482432 C142.294882,23.8116955 141.970465,24.5068741 141.877775,25.4337788 C141.877775,25.6191597 142.016811,25.8045407 142.202192,25.8045407 L147.114787,25.7581954 Z M164.540595,24.7386002 L164.169833,24.7386002 C163.984452,24.6459098 163.706381,24.5995645 163.289274,24.5532193 C162.872167,24.5068741 162.54775,24.5068741 162.269679,24.5068741 C161.667191,24.5068741 161.111048,24.5532193 160.647595,24.6459098 C160.230488,24.7386002 159.813381,24.877636 159.349929,25.0630169 C159.210893,25.1093621 159.118203,25.2483978 159.118203,25.3874335 L159.118203,35.5370401 C159.118203,35.7224211 158.979167,35.8614568 158.793786,35.8614568 L155.132512,35.8614568 C154.947131,35.8614568 154.808096,35.7224211 154.808096,35.5370401 L154.808096,20.2431124 C154.808096,20.0577315 154.947131,19.9186958 155.132512,19.9186958 L158.793786,19.9186958 C158.979167,19.9186958 159.118203,20.0577315 159.118203,20.2431124 L159.118203,21.4944338 C159.118203,21.7725052 159.442619,21.9115409 159.674345,21.7261599 C160.369524,21.0773266 161.018357,20.6138743 161.5745,20.3358029 C162.269679,20.0113862 162.918512,19.8723505 163.521,19.8723505 C163.660036,19.8723505 163.845417,19.8723505 164.030798,19.8723505 C164.216178,19.8723505 164.401559,19.9186958 164.540595,19.9186958 L164.540595,24.7386002 Z M41.5439506,32.9067215 L39.4589026,35.617284 C38.5727572,36.7640604 37.217476,37.441701 35.8100686,37.441701 L14.5425788,37.441701 L6.67152261,18.7283951 C6.0981344,17.3731139 6.3066392,15.8093278 7.19278461,14.6625514 L8.91294922,12.3689986 L17.5137723,32.9067215 L41.5439506,32.9067215 Z M41.8045816,29.8312757 L19.7551989,29.8312757 L11.9362688,11.170096 C11.1022496,9.18930041 12.5617832,7 14.6989574,7 L36.7483402,7 L44.5672702,25.6611797 C45.4012894,27.6419753 43.9417558,29.8312757 41.8045816,29.8312757 Z M35.7058162,40.4650206 L33.6207681,43.175583 C32.7346227,44.3223594 31.3793415,45 29.9719341,45 L11.467133,45 C10.1118518,45 8.91294922,44.218107 8.39168722,42.9670782 L1.35465018,26.0781893 C0.729135775,24.5665295 0.937640576,22.7942387 1.92803838,21.4910837 L3.49182439,19.4581619 L12.3011522,40.4650206 L35.7058162,40.4650206 Z" id="Combined-Shape" fill="#FFFFFF" fill-rule="nonzero" opacity="0.5"></path>
        </g>
    </g>
</svg>