<?xml version="1.0" encoding="UTF-8"?>
<svg width="293px" height="172px" viewBox="0 0 293 172" version="1.1" xmlns="http://www.w3.org/2000/svg" xmlns:xlink="http://www.w3.org/1999/xlink">
    <!-- Generator: Sketch 55.2 (78181) - https://sketchapp.com -->
    <title>article quote shape</title>
    <desc>Created with Sketch.</desc>
    <g id="Page-1" stroke="none" stroke-width="1" fill="none" fill-rule="evenodd" opacity="0.699730283">
        <g id="LP-article" transform="translate(-451.000000, -1080.000000)">
            <g id="quote" transform="translate(24.000000, 1080.000000)">
                <g id="Group-2">
                    <g id="article-quote-shape" transform="translate(427.000000, -1.000000)">
                        <polygon id="Rectangle" fill="#0094DD" opacity="0.646995908" transform="translate(274.772955, 51.886489) scale(-1, -1) translate(-274.772955, -51.886489) " points="274.772955 69.1819856 257.478017 34.5909928 292.067893 34.5909928"></polygon>
                        <polygon id="Rectangle" fill="#3994DD" transform="translate(274.772955, 17.295496) scale(-1, -1) translate(-274.772955, -17.295496) " points="274.772955 5.68434189e-14 292.067893 34.5909928 257.478017 34.5909928"></polygon>
                        <polygon id="Rectangle" fill="#0094DD" opacity="0.200000003" transform="translate(222.888141, 17.295496) scale(-1, -1) translate(-222.888141, -17.295496) " points="222.888141 34.5909928 205.593203 5.68434189e-14 240.183079 5.68434189e-14"></polygon>
                        <polygon id="Rectangle" fill="#3473D3" transform="translate(222.888141, 51.886489) scale(-1, -1) translate(-222.888141, -51.886489) " points="222.888141 34.5909928 240.183079 69.1819856 205.593203 69.1819856"></polygon>
                        <polygon id="Rectangle" fill="#2E51C9" opacity="0.200000003" transform="translate(205.593203, 51.886489) scale(-1, -1) translate(-205.593203, -51.886489) " points="205.593203 69.1819856 188.298265 34.5909928 222.888141 34.5909928"></polygon>
                        <polygon id="Rectangle" fill="#3994DD" transform="translate(240.183079, 51.886489) scale(-1, -1) translate(-240.183079, -51.886489) " points="240.183079 69.1819856 222.888141 34.5909928 257.478017 34.5909928"></polygon>
                        <polygon id="Rectangle" fill="#2E51C9" opacity="0.200000003" transform="translate(154.456278, 51.886489) scale(-1, -1) translate(-154.456278, -51.886489) " points="154.456278 34.5909928 171.751216 69.1819856 137.16134 69.1819856"></polygon>
                        <polygon id="Rectangle" fill="#3473D3" opacity="0.668945312" transform="translate(17.294938, 121.077418) scale(1, -1) translate(-17.294938, -121.077418) " points="17.294938 103.781921 34.589876 138.372914 3.51718654e-13 138.372914"></polygon>
                        <polygon id="Rectangle" fill="#3994DD" opacity="0.449660528" points="34.589876 103.781921 51.884814 138.372914 17.294938 138.372914"></polygon>
                        <polygon id="Rectangle" fill="#3473D3" opacity="0.449660528" transform="translate(69.179752, 155.668410) scale(1, -1) translate(-69.179752, -155.668410) " points="69.1797521 138.372914 86.4746901 172.963907 51.884814 172.963907"></polygon>
                        <polygon id="Rectangle" fill="#46D8F0" opacity="0.200000003" points="257.813106 138.599936 275.108044 173.190929 240.518168 173.190929"></polygon>
                        <polygon id="Rectangle" fill="#3473D3" opacity="0.200000003" transform="translate(275.108044, 155.895432) scale(1, -1) translate(-275.108044, -155.895432) " points="275.108044 138.599936 292.402982 173.190929 257.813106 173.190929"></polygon>
                        <polygon id="Rectangle" fill="#0094DD" opacity="0.200000003" points="275.108044 104.008943 292.402982 138.599936 257.813106 138.599936"></polygon>
                        <polygon id="Rectangle" fill="#3994DD" opacity="0.307710193" transform="translate(137.870374, 86.713447) scale(1, -1) translate(-137.870374, -86.713447) " points="137.870374 69.4179502 155.165312 104.008943 120.575436 104.008943"></polygon>
                        <polygon id="Rectangle" fill="#46D8F0" opacity="0.307710193" transform="translate(103.280498, 155.895432) scale(1, -1) translate(-103.280498, -155.895432) " points="103.280498 138.599936 120.575436 173.190929 85.9855595 173.190929"></polygon>
                        <polygon id="Rectangle" fill="#2E51C9" opacity="0.668945312" points="85.9855595 138.599936 103.280498 173.190929 68.6906215 173.190929"></polygon>
                        <polygon id="Rectangle" fill="#46D8F0" opacity="0.449660528" points="120.201491 138.599936 137.496429 173.190929 102.906553 173.190929"></polygon>
                        <polygon id="Rectangle" fill="#3994DD" opacity="0.392764137" transform="translate(172.086305, 155.895432) scale(1, -1) translate(-172.086305, -155.895432) " points="172.086305 138.599936 189.381243 173.190929 154.791367 173.190929"></polygon>
                        <polygon id="Rectangle" fill="#3473D3" opacity="0.646995908" transform="translate(137.496429, 155.895432) scale(1, -1) translate(-137.496429, -155.895432) " points="137.496429 138.599936 154.791367 173.190929 120.201491 173.190929"></polygon>
                        <polygon id="Rectangle" fill="#3FB6E6" opacity="0.668945312" transform="translate(154.791367, 121.304439) scale(1, -1) translate(-154.791367, -121.304439) " points="154.791367 104.008943 172.086305 138.599936 137.496429 138.599936"></polygon>
                        <polygon id="Rectangle" fill="#3473D3" opacity="0.668945312" points="154.791367 69.4179502 172.086305 104.008943 137.496429 104.008943"></polygon>
                        <polygon id="Rectangle" fill="#2E51C9" opacity="0.646995908" points="154.791367 138.599936 172.086305 173.190929 137.496429 173.190929"></polygon>
                        <polygon id="Rectangle" fill="#3FB6E6" opacity="0.622256324" transform="translate(206.302236, 86.713447) scale(1, -1) translate(-206.302236, -86.713447) " points="206.302236 69.4179502 223.597174 104.008943 189.007298 104.008943"></polygon>
                        <polygon id="Rectangle" fill="#3473D3" opacity="0.392764137" transform="translate(171.712360, 86.713447) scale(1, -1) translate(-171.712360, -86.713447) " points="171.71236 69.4179502 189.007298 104.008943 154.417422 104.008943"></polygon>
                        <polygon id="Rectangle" fill="#2E51C9" opacity="0.449660528" transform="translate(189.007298, 121.304439) scale(1, -1) translate(-189.007298, -121.304439) " points="189.007298 104.008943 206.302236 138.599936 171.71236 138.599936"></polygon>
                        <polygon id="Rectangle" fill="#3994DD" opacity="0.449660528" points="189.007298 69.4179502 206.302236 104.008943 171.71236 104.008943"></polygon>
                        <polygon id="Rectangle" fill="#0094DD" opacity="0.585588728" transform="translate(240.892112, 86.713447) scale(1, -1) translate(-240.892112, -86.713447) " points="240.892112 69.4179502 258.18705 104.008943 223.597174 104.008943"></polygon>
                        <polygon id="Rectangle" fill="#3FB6E6" opacity="0.74874442" transform="translate(258.187050, 121.304439) scale(1, -1) translate(-258.187050, -121.304439) " points="258.18705 104.008943 275.481988 138.599936 240.892112 138.599936"></polygon>
                        <polygon id="Rectangle" fill="#46D8F0" opacity="0.74874442" points="258.18705 69.4179502 275.481988 104.008943 240.892112 104.008943"></polygon>
                        <polygon id="Rectangle" fill="#46D8F0" opacity="0.200000003" transform="translate(240.892112, 155.895432) scale(1, -1) translate(-240.892112, -155.895432) " points="240.892112 138.599936 258.18705 173.190929 223.597174 173.190929"></polygon>
                        <polygon id="Rectangle" fill="#0094DD" opacity="0.585588728" points="240.892112 104.008943 258.18705 138.599936 223.597174 138.599936"></polygon>
                        <polygon id="Rectangle" fill="#3473D3" opacity="0.449660528" transform="translate(206.302236, 155.895432) scale(1, -1) translate(-206.302236, -155.895432) " points="206.302236 138.599936 223.597174 173.190929 189.007298 173.190929"></polygon>
                        <polygon id="Rectangle" fill="#3994DD" opacity="0.585588728" points="206.302236 104.008943 223.597174 138.599936 189.007298 138.599936"></polygon>
                        <polygon id="Rectangle" fill="#3473D3" opacity="0.646995908" transform="translate(223.597174, 121.304439) scale(1, -1) translate(-223.597174, -121.304439) " points="223.597174 104.008943 240.892112 138.599936 206.302236 138.599936"></polygon>
                        <polygon id="Rectangle" fill="#0094DD" opacity="0.646995908" points="223.597174 69.4179502 240.892112 104.008943 206.302236 104.008943"></polygon>
                        <polygon id="Rectangle" fill="#0094DD" opacity="0.668945312" points="137.496429 104.008943 154.791367 138.599936 120.201491 138.599936"></polygon>
                        <polygon id="Rectangle" fill="#2E51C9" points="223.597174 138.599936 240.892112 173.190929 206.302236 173.190929"></polygon>
                        <polygon id="Rectangle" fill="#46D8F0" opacity="0.74874442" points="172.086305 104.008943 189.381243 138.599936 154.791367 138.599936"></polygon>
                        <polygon id="Rectangle" fill="#46D8F0" transform="translate(257.478017, 51.886489) scale(-1, -1) translate(-257.478017, -51.886489) " points="257.478017 34.5909928 274.772955 69.1819856 240.183079 69.1819856"></polygon>
                        <polygon id="Rectangle" fill="#3994DD" opacity="0.668945312" points="51.884814 138.372914 69.1797521 172.963907 34.589876 172.963907"></polygon>
                        <polygon id="Rectangle" fill="#3994DD" points="189.381243 138.599936 206.676181 173.190929 172.086305 173.190929"></polygon>
                        <polygon id="Rectangle" fill="#3994DD" transform="translate(275.481988, 86.713447) scale(1, -1) translate(-275.481988, -86.713447) " points="275.481988 69.4179502 292.776926 104.008943 258.18705 104.008943"></polygon>
                    </g>
                </g>
            </g>
        </g>
    </g>
</svg>