<?xml version="1.0" encoding="UTF-8"?>
<svg width="258px" height="56px" viewBox="0 0 258 56" version="1.1" xmlns="http://www.w3.org/2000/svg" xmlns:xlink="http://www.w3.org/1999/xlink">
    <!-- Generator: Sketch 55.2 (78181) - https://sketchapp.com -->
    <title>client logo/combinvest</title>
    <desc>Created with Sketch.</desc>
    <g id="client-logo/combinvest" stroke="none" stroke-width="1" fill="none" fill-rule="evenodd">
        <g>
            <rect id="Rectangle" x="0" y="0" width="258" height="56"></rect>
            <path d="M53.4311341,25.5841323 L53.048461,25.2100171 C52.4942522,24.6682022 51.8550869,24.2458601 51.1279993,23.9413548 C50.4039374,23.6381167 49.6559752,23.4869885 48.8803133,23.4869885 C47.8111944,23.4869885 46.8378334,23.7429974 45.9512247,24.2560191 C45.0628731,24.7700493 44.3616701,25.4690096 43.8415557,26.3591295 C43.3227349,27.2470355 43.0641247,28.2141625 43.0641247,29.2696494 C43.0641247,30.3247163 43.3225126,31.2877364 43.8407349,32.1680487 C44.3612617,33.0522755 45.0635702,33.7523378 45.9536182,34.2739523 C46.8397224,34.7932555 47.8121965,35.0523103 48.8803133,35.0523103 C49.6427767,35.0523103 50.3848954,34.9043244 51.1101781,34.6071783 C51.8395527,34.3083558 52.4876847,33.8943939 53.0571719,33.3638536 L53.4229467,33.0230938 L55.0052943,34.7209778 L54.6366591,35.0617606 C53.8512157,35.7878593 52.952325,36.3627913 51.9424013,36.7854742 C50.925476,37.2110875 49.8821781,37.4246322 48.8160809,37.4246322 C47.3156823,37.4246322 45.9302549,37.0587034 44.6687234,36.3280622 C43.4097945,35.5989283 42.409284,34.6083651 41.6732686,33.3621244 C40.9352759,32.1125357 40.565368,30.7452862 40.565368,29.2696494 C40.565368,27.792488 40.9396661,26.4307788 41.6865166,25.1943601 C42.4302521,23.9630984 43.4381262,22.9842026 44.7039251,22.2630706 C45.971811,21.5407496 47.3596572,21.1789943 48.8589025,21.1789943 C49.9362994,21.1789943 50.9773703,21.3806676 51.9787222,21.7833212 C52.978118,22.1851882 53.8590624,22.7441998 54.6185613,23.4591864 L54.9651917,23.7855017 L53.4311341,25.5841323 Z M63.8892905,21.1789943 C65.4025886,21.1789943 66.7975868,21.5406323 68.0656787,22.2630706 C69.3314776,22.9842026 70.3393517,23.9630984 71.0830872,25.1943601 C71.8299377,26.4307788 72.2042357,27.792488 72.2042357,29.2696494 C72.2042357,30.7461086 71.8303188,32.1140739 71.0844808,33.3640601 C70.3411396,34.6098617 69.3335013,35.5999525 68.067638,36.3287125 C66.7991254,37.0589976 65.4034027,37.4246322 63.8892905,37.4246322 C62.3751782,37.4246322 60.9794555,37.0589976 59.7109429,36.3287125 C58.4450796,35.5999525 57.4374413,34.6098617 56.6941001,33.3640601 C55.9482621,32.1140739 55.5743452,30.7461086 55.5743452,29.2696494 C55.5743452,27.792488 55.9486432,26.4307788 56.6954937,25.1943601 C57.4392292,23.9630984 58.4471033,22.9842026 59.7129022,22.2630706 C60.9809941,21.5406323 62.3759923,21.1789943 63.8892905,21.1789943 Z M63.9107013,23.508431 C62.8557214,23.508431 61.8853817,23.7645075 60.9909347,24.2782591 C60.0946133,24.7930874 59.3860021,25.4896065 58.8590118,26.373623 C58.3345215,27.2534458 58.0731018,28.2155864 58.0731018,29.2696494 C58.0731018,30.3245537 58.3349726,31.2949111 58.8606651,32.1899124 C59.3881406,33.0879492 60.0970601,33.794632 60.993324,34.3160272 C61.8872653,34.8360712 62.8567248,35.0951954 63.9107013,35.0951954 C64.9496979,35.0951954 65.9079544,34.8364431 66.7945747,34.3168374 C67.6842041,33.7954682 68.3901028,33.0885238 68.9179158,32.1899124 C69.4436083,31.2949111 69.7054791,30.3245537 69.7054791,29.2696494 C69.7054791,28.2155864 69.4440594,27.2534458 68.9195691,26.373623 C68.3922379,25.4890347 67.6866501,24.7922615 66.7969683,24.2774616 C65.9098462,23.7641429 64.9507086,23.508431 63.9107013,23.508431 Z M76.8503813,37.295977 L74.4586787,37.295977 L74.4586787,21.2862069 L77.1032636,21.2862069 L82.6641264,31.9569298 L88.1641038,21.2862069 L90.8102288,21.2862069 L90.8102288,37.295977 L88.4407629,37.295977 L88.4219122,25.8933048 L83.3562822,35.6877874 L81.9345457,35.6877874 L76.8503813,25.8932149 L76.8503813,37.295977 Z M106.223628,29.833001 C106.924619,30.6003359 107.275141,31.5718223 107.275141,32.7218966 C107.275141,34.1627985 106.725475,35.3130567 105.639943,36.1243548 C104.587803,36.9106974 103.156683,37.295977 101.358206,37.295977 L94.5206068,37.295977 L94.5206068,21.2862069 L101.293974,21.2862069 C102.896481,21.2862069 104.178064,21.6490149 105.124221,22.3895438 C106.097669,23.1514327 106.589995,24.2162665 106.589995,25.5386494 C106.589995,26.5366988 106.306507,27.392538 105.737916,28.0857615 C105.487722,28.3907956 105.194442,28.6489525 104.859754,28.8601475 C105.390241,29.0955436 105.846022,29.4196576 106.223628,29.833001 Z M101.229741,27.9119483 C102.18147,27.9119483 102.893747,27.7103546 103.381106,27.323461 C103.841752,26.9577735 104.069828,26.4424512 104.069828,25.7316322 C104.069828,25.051742 103.84397,24.5552228 103.384066,24.1957415 C102.898383,23.8161105 102.187405,23.6241714 101.229741,23.6370862 L96.9979526,23.6370862 L96.9979526,27.9119483 L101.229741,27.9119483 Z M101.229741,34.9665402 C102.417991,34.9665402 103.313536,34.7383042 103.924869,34.2992235 C104.498649,33.8871156 104.776384,33.3280118 104.776384,32.5717989 C104.776384,31.8326811 104.497706,31.2856625 103.918828,30.8798474 C103.298947,30.4452879 102.405328,30.2199425 101.229741,30.2199425 L96.9979526,30.2199425 L96.9979526,34.9665402 L101.229741,34.9665402 Z M110.170342,21.3076494 L112.647687,21.3076494 L112.647687,37.295977 L110.170342,37.295977 L110.170342,21.3076494 Z M127.944446,21.3076494 L130.400381,21.3076494 L130.400381,37.295977 L128.08341,37.295977 L119.566512,25.6343763 L119.566512,37.295977 L117.089166,37.295977 L117.089166,21.3076494 L119.405792,21.3076494 L127.944446,32.9721009 L127.944446,21.3076494 Z M145.044221,21.3076494 L147.691898,21.3076494 L141.137016,37.295977 L138.92375,37.295977 L132.414547,21.3076494 L135.081161,21.3076494 L140.072714,33.8150583 L145.044221,21.3076494 Z M160.981283,34.9665402 L160.981283,37.295977 L149.682684,37.295977 L149.682684,21.3076494 L160.702943,21.3076494 L160.702943,23.6370862 L152.16003,23.6370862 L152.16003,27.9977184 L159.803689,27.9977184 L159.803689,30.3271552 L152.16003,30.3271552 L152.16003,34.9665402 L160.981283,34.9665402 Z M173.335943,24.9670861 L172.872038,24.6753653 C172.298837,24.3149149 171.671527,24.0375541 170.988663,23.8431189 C170.303544,23.6480414 169.664103,23.5513161 169.070151,23.5513161 C168.133137,23.5513161 167.402964,23.7317555 166.871499,24.0804726 C166.389038,24.3970364 166.165832,24.7952907 166.165832,25.3242241 C166.165832,25.8219096 166.296497,26.2035788 166.55364,26.493294 C166.84802,26.824962 167.210486,27.0864472 167.645643,27.279445 C168.12505,27.4920681 168.793332,27.7325878 169.640374,27.9968659 C170.676379,28.3037437 171.516433,28.6086685 172.163312,28.9139712 C172.855471,29.2406442 173.44529,29.7155933 173.928385,30.3342363 C174.437689,30.9864425 174.687334,31.830756 174.687334,32.8505517 C174.687334,33.755827 174.429609,34.5670202 173.916454,35.2685559 C173.41038,35.9604094 172.704382,36.4916909 171.808857,36.8614457 C170.93166,37.2236329 169.932208,37.4031897 168.813221,37.4031897 C167.704493,37.4031897 166.622019,37.1825702 165.569395,36.7426951 C164.521464,36.3047811 163.616303,35.7206756 162.857057,34.9907191 L162.578476,34.7228855 L163.772096,32.5935992 L164.238731,33.050982 C164.864255,33.6641039 165.589041,34.1435713 166.41612,34.4909246 C167.241494,34.8375617 168.046737,35.0094253 168.834632,35.0094253 C169.88208,35.0094253 170.69042,34.8022602 171.269142,34.4014867 C171.80662,34.0292759 172.060113,33.5566493 172.060113,32.9363218 C172.060113,32.4213407 171.927362,32.0225001 171.666387,31.7175777 C171.37402,31.3759779 171.015591,31.114363 170.585809,30.9298979 C170.103614,30.7229363 169.418336,30.4778319 168.536568,30.1974782 C167.504741,29.8772835 166.672503,29.5738706 166.037168,29.2853269 C165.349032,28.9728027 164.763804,28.5071382 164.286314,27.8934526 C163.784901,27.2490186 163.538611,26.4227242 163.538611,25.4314368 C163.538611,24.5673979 163.786668,23.7972798 164.280722,23.1375659 C164.766427,22.489 165.441102,21.9943097 166.294253,21.6541259 C167.12725,21.3219782 168.081804,21.1575517 169.155794,21.1575517 C170.018104,21.1575517 170.883028,21.2861587 171.749285,21.5426487 C172.613322,21.7984816 173.380366,22.1390541 174.049249,22.5653379 L174.431635,22.8090344 L173.335943,24.9670861 Z M175.960013,23.6370862 L175.960013,21.2862069 L188.329153,21.2862069 L188.329153,23.6370862 L183.383256,23.6370862 L183.383256,37.295977 L180.90591,37.295977 L180.90591,23.6370862 L175.960013,23.6370862 Z M190.551981,34.5162471 C190.954742,34.5162471 191.31073,34.6610813 191.590942,34.9417084 C191.871011,35.2221921 192.015468,35.5783047 192.015468,35.9811609 C192.015468,36.3814664 191.873027,36.7380942 191.597544,37.0245975 C191.317367,37.3159808 190.958701,37.4675172 190.551981,37.4675172 C190.146563,37.4675172 189.79098,37.3205514 189.516868,37.0350521 C189.246315,36.7532599 189.109906,36.3926061 189.109906,35.9811609 C189.109906,35.58232 189.247688,35.229074 189.516868,34.9487123 C189.79098,34.663213 190.146563,34.5162471 190.551981,34.5162471 Z M206.62495,25.5841323 L206.242277,25.2100171 C205.688068,24.6682022 205.048903,24.2458601 204.321816,23.9413548 C203.597754,23.6381167 202.849791,23.4869885 202.07413,23.4869885 C201.005011,23.4869885 200.03165,23.7429974 199.145041,24.2560191 C198.256689,24.7700493 197.555486,25.4690096 197.035372,26.3591295 C196.516551,27.2470355 196.257941,28.2141625 196.257941,29.2696494 C196.257941,30.3247163 196.516329,31.2877364 197.034551,32.1680487 C197.555078,33.0522755 198.257386,33.7523378 199.147435,34.2739523 C200.033539,34.7932555 201.006013,35.0523103 202.07413,35.0523103 C202.836593,35.0523103 203.578712,34.9043244 204.303994,34.6071783 C205.033369,34.3083558 205.681501,33.8943939 206.250988,33.3638536 L206.616763,33.0230938 L208.199111,34.7209778 L207.830475,35.0617606 C207.045032,35.7878593 206.146141,36.3627913 205.136218,36.7854742 C204.119292,37.2110875 203.075994,37.4246322 202.009897,37.4246322 C200.509499,37.4246322 199.124071,37.0587034 197.86254,36.3280622 C196.603611,35.5989283 195.6031,34.6083651 194.867085,33.3621244 C194.129092,32.1125357 193.759184,30.7452862 193.759184,29.2696494 C193.759184,27.792488 194.133482,26.4307788 194.880333,25.1943601 C195.624068,23.9630984 196.631942,22.9842026 197.897741,22.2630706 C199.165627,21.5407496 200.553473,21.1789943 202.052719,21.1789943 C203.130116,21.1789943 204.171187,21.3806676 205.172539,21.7833212 C206.171934,22.1851882 207.052879,22.7441998 207.812378,23.4591864 L208.159008,23.7855017 L206.62495,25.5841323 Z M213.432543,37.295977 L210.955197,37.295977 L210.955197,21.3076494 L213.432543,21.3076494 L213.432543,28.1692586 L221.789067,28.1692586 L221.789067,21.3076494 L224.266412,21.3076494 L224.266412,37.295977 L221.789067,37.295977 L221.789067,30.4986954 L213.432543,30.4986954 L213.432543,37.295977 Z M22.6408927,33.4255731 C24.0534289,32.0681509 27.518686,31.6691522 31.2393747,31.8448497 C30.3099982,37.7735767 23.2932282,43.3333333 16.1739986,43.3333333 C7.79341631,43.3333333 1,36.5427702 1,28.1666667 C1,19.7905631 7.79341631,13 16.1739986,13 C23.7696338,13 30.9377248,19.4254764 31.2884615,26.0920749 C26.9671328,26.0463649 24.6407485,25.5241745 23.2902506,23.8243519 C21.786156,21.3656454 19.1121284,19.8331541 16.1739986,19.8331541 C11.5702979,19.8331541 7.8379696,23.5640333 7.8379696,28.1666667 C7.8379696,32.7693 11.5702979,36.5001792 16.1739986,36.5001792 C18.7143628,36.5001792 21.0680849,35.3564029 22.6408927,33.4255731 Z M16.1442308,31.4166667 C14.3519605,31.4166667 12.8990385,29.9615921 12.8990385,28.1666667 C12.8990385,26.3717412 14.3519605,24.9166667 16.1442308,24.9166667 C17.936501,24.9166667 19.3894231,26.3717412 19.3894231,28.1666667 C19.3894231,29.9615921 17.936501,31.4166667 16.1442308,31.4166667 Z" id="Combined-Shape" fill="#FFFFFF" fill-rule="nonzero" opacity="0.5"></path>
        </g>
    </g>
</svg>