<?xml version="1.0" encoding="UTF-8"?>
<svg width="604px" height="658px" viewBox="0 0 604 658" version="1.1" xmlns="http://www.w3.org/2000/svg" xmlns:xlink="http://www.w3.org/1999/xlink">
    <!-- Generator: sketchtool 55.2 (78181) - https://sketchapp.com -->
    <title>973141EC-856D-42E9-A4EC-589347D18D83</title>
    <desc>Created with sketchtool.</desc>
    <g id="Asset-Artboard-Page" stroke="none" stroke-width="1" fill="none" fill-rule="evenodd">
        <g id="Group-15" transform="translate(0.600000, 0.000000)">
            <g id="all" transform="translate(0.000000, 0.196591)">
                <polygon id="Rectangle" fill="#3FB6E6" opacity="0.200000003" transform="translate(533.796843, 502.076746) scale(1, -1) translate(-533.796843, -502.076746) " points="533.796843 484.781249 551.091781 519.372242 516.501905 519.372242"></polygon>
                <polygon id="Rectangle" fill="#46D8F0" opacity="0.200000003" points="533.796843 450.190256 551.091781 484.781249 516.501905 484.781249"></polygon>
                <polygon id="Rectangle" fill="#3473D3" opacity="0.200000003" transform="translate(499.206967, 502.076746) scale(1, -1) translate(-499.206967, -502.076746) " points="499.206967 484.781249 516.501905 519.372242 481.912029 519.372242"></polygon>
                <polygon id="Rectangle" fill="#2E51C9" opacity="0.681710379" points="499.206967 450.190256 516.501905 484.781249 481.912029 484.781249"></polygon>
                <polygon id="Rectangle" fill="#0094DD" opacity="0.200000003" transform="translate(516.501905, 467.485753) scale(1, -1) translate(-516.501905, -467.485753) " points="516.501905 450.190256 533.796843 484.781249 499.206967 484.781249"></polygon>
                <polygon id="Rectangle" fill="#46D8F0" opacity="0.200000003" points="516.501905 415.599264 533.796843 450.190256 499.206967 450.190256"></polygon>
                <polygon id="Rectangle" fill="#0094DD" opacity="0.200000003" transform="translate(568.386719, 502.076746) scale(1, -1) translate(-568.386719, -502.076746) " points="568.386719 484.781249 585.681657 519.372242 551.091781 519.372242"></polygon>
                <polygon id="Rectangle" fill="#3473D3" opacity="0.502022879" points="568.386719 450.190256 585.681657 484.781249 551.091781 484.781249"></polygon>
                <polygon id="Rectangle" fill="#2E51C9" opacity="0.585588728" transform="translate(585.681657, 467.485753) scale(1, -1) translate(-585.681657, -467.485753) " points="585.681657 450.190256 602.976595 484.781249 568.386719 484.781249"></polygon>
                <polygon id="Rectangle" fill="#3994DD" opacity="0.585588728" points="585.681657 415.599264 602.976595 450.190256 568.386719 450.190256"></polygon>
                <polygon id="Rectangle" fill="#3994DD" opacity="0.200000003" transform="translate(568.386719, 432.894760) scale(1, -1) translate(-568.386719, -432.894760) " points="568.386719 415.599264 585.681657 450.190256 551.091781 450.190256"></polygon>
                <polygon id="Rectangle" fill="#46D8F0" opacity="0.200000003" points="568.386719 381.008271 585.681657 415.599264 551.091781 415.599264"></polygon>
                <polygon id="Rectangle" fill="#3473D3" opacity="0.200000003" transform="translate(533.796843, 432.894760) scale(1, -1) translate(-533.796843, -432.894760) " points="533.796843 415.599264 551.091781 450.190256 516.501905 450.190256"></polygon>
                <polygon id="Rectangle" fill="#0094DD" points="533.796843 381.008271 551.091781 415.599264 516.501905 415.599264"></polygon>
                <polygon id="Rectangle" fill="#3FB6E6" opacity="0.200000003" transform="translate(551.091781, 398.303767) scale(1, -1) translate(-551.091781, -398.303767) " points="551.091781 381.008271 568.386719 415.599264 533.796843 415.599264"></polygon>
                <polygon id="Rectangle" fill="#3473D3" opacity="0.200000003" points="551.091781 346.417278 568.386719 381.008271 533.796843 381.008271"></polygon>
                <polygon id="Rectangle" fill="#3994DD" opacity="0.200000003" transform="translate(551.091781, 467.485753) scale(1, -1) translate(-551.091781, -467.485753) " points="551.091781 450.190256 568.386719 484.781249 533.796843 484.781249"></polygon>
                <polygon id="Rectangle" fill="#46D8F0" opacity="0.200000003" transform="translate(568.386719, 571.258731) scale(1, -1) translate(-568.386719, -571.258731) " points="568.386719 553.963235 585.681657 588.554228 551.091781 588.554228"></polygon>
                <polygon id="Rectangle" fill="#0094DD" opacity="0.200000003" points="568.386719 519.372242 585.681657 553.963235 551.091781 553.963235"></polygon>
                <polygon id="Rectangle" fill="#3473D3" opacity="0.200000003" transform="translate(551.091781, 536.667738) scale(1, -1) translate(-551.091781, -536.667738) " points="551.091781 519.372242 568.386719 553.963235 533.796843 553.963235"></polygon>
                <polygon id="Rectangle" fill="#0094DD" opacity="0.502022879" points="551.091781 484.781249 568.386719 519.372242 533.796843 519.372242"></polygon>
                <polygon id="Rectangle" fill="#3994DD" opacity="0.200000003" transform="translate(446.715687, 17.295496) scale(-1, -1) translate(-446.715687, -17.295496) " points="446.715687 34.5909928 429.420749 0 464.010625 0"></polygon>
                <polygon id="Rectangle" fill="#2E51C9" opacity="0.200000003" transform="translate(446.715687, 51.886489) scale(-1, -1) translate(-446.715687, -51.886489) " points="446.715687 34.5909928 464.010625 69.1819856 429.420749 69.1819856"></polygon>
                <polygon id="Rectangle" fill="#3994DD" opacity="0.200000003" transform="translate(377.909880, 155.659467) scale(-1, -1) translate(-377.909880, -155.659467) " points="377.90988 172.954964 360.614942 138.363971 395.204818 138.363971"></polygon>
                <polygon id="Rectangle" fill="#0094DD" opacity="0.200000003" transform="translate(412.499756, 155.659467) scale(-1, -1) translate(-412.499756, -155.659467) " points="412.499756 172.954964 395.204818 138.363971 429.794694 138.363971"></polygon>
                <polygon id="Rectangle" fill="#3473D3" opacity="0.200000003" transform="translate(412.499756, 190.250460) scale(-1, -1) translate(-412.499756, -190.250460) " points="412.499756 172.954964 429.794694 207.545957 395.204818 207.545957"></polygon>
                <polygon id="Rectangle" fill="#3FB6E6" opacity="0.569731213" transform="translate(395.204818, 121.068475) scale(-1, -1) translate(-395.204818, -121.068475) " points="395.204818 138.363971 377.90988 103.772978 412.499756 103.772978"></polygon>
                <polygon id="Rectangle" fill="#46D8F0" opacity="0.200000003" transform="translate(395.204818, 155.659467) scale(-1, -1) translate(-395.204818, -155.659467) " points="395.204818 138.363971 412.499756 172.954964 377.90988 172.954964"></polygon>
                <polygon id="Rectangle" fill="#46D8F0" opacity="0.200000003" transform="translate(412.499756, 86.477482) scale(-1, -1) translate(-412.499756, -86.477482) " points="412.499756 103.772978 395.204818 69.1819856 429.794694 69.1819856"></polygon>
                <polygon id="Rectangle" fill="#0094DD" opacity="0.569731213" transform="translate(412.499756, 121.068475) scale(-1, -1) translate(-412.499756, -121.068475) " points="412.499756 103.772978 429.794694 138.363971 395.204818 138.363971"></polygon>
                <polygon id="Rectangle" fill="#3473D3" opacity="0.481677827" transform="translate(429.794694, 121.068475) scale(-1, -1) translate(-429.794694, -121.068475) " points="429.794694 138.363971 412.499756 103.772978 447.089632 103.772978"></polygon>
                <polygon id="Rectangle" fill="#0094DD" opacity="0.200000003" transform="translate(429.794694, 155.659467) scale(-1, -1) translate(-429.794694, -155.659467) " points="429.794694 138.363971 447.089632 172.954964 412.499756 172.954964"></polygon>
                <polygon id="Rectangle" fill="#3994DD" opacity="0.200000003" transform="translate(429.794694, 51.886489) scale(-1, -1) translate(-429.794694, -51.886489) " points="429.794694 69.1819856 412.499756 34.5909928 447.089632 34.5909928"></polygon>
                <polygon id="Rectangle" fill="#2E51C9" opacity="0.200000003" transform="translate(429.794694, 86.477482) scale(-1, -1) translate(-429.794694, -86.477482) " points="429.794694 69.1819856 447.089632 103.772978 412.499756 103.772978"></polygon>
                <polygon id="Rectangle" fill="#46D8F0" opacity="0.200000003" transform="translate(378.283824, 51.886489) scale(-1, -1) translate(-378.283824, -51.886489) " points="378.283824 34.5909928 395.578762 69.1819856 360.988886 69.1819856"></polygon>
                <polygon id="Rectangle" fill="#46D8F0" opacity="0.200000003" transform="translate(395.578762, 86.477482) scale(-1, -1) translate(-395.578762, -86.477482) " points="395.578762 69.1819856 412.8737 103.772978 378.283824 103.772978"></polygon>
                <polygon id="Rectangle" fill="#3473D3" transform="translate(360.988886, 155.659467) scale(-1, -1) translate(-360.988886, -155.659467) " points="360.988886 138.363971 378.283824 172.954964 343.693948 172.954964"></polygon>
                <polygon id="Rectangle" fill="#2E51C9" opacity="0.717285156" transform="translate(360.988886, 86.477482) scale(-1, -1) translate(-360.988886, -86.477482) " points="360.988886 69.1819856 378.283824 103.772978 343.693948 103.772978"></polygon>
                <polygon id="Rectangle" fill="#3473D3" opacity="0.569731213" transform="translate(344.067893, 155.659467) scale(-1, -1) translate(-344.067893, -155.659467) " points="344.067893 172.954964 326.772955 138.363971 361.362831 138.363971"></polygon>
                <polygon id="Rectangle" fill="#2E51C9" transform="translate(344.067893, 190.250460) scale(-1, -1) translate(-344.067893, -190.250460) " points="344.067893 172.954964 361.362831 207.545957 326.772955 207.545957"></polygon>
                <polygon id="Rectangle" fill="#0094DD" opacity="0.646995908" transform="translate(326.772955, 190.250460) scale(-1, -1) translate(-326.772955, -190.250460) " points="326.772955 207.545957 309.478017 172.954964 344.067893 172.954964"></polygon>
                <polygon id="Rectangle" fill="#2E51C9" transform="translate(326.772955, 121.068475) scale(-1, -1) translate(-326.772955, -121.068475) " points="326.772955 138.363971 309.478017 103.772978 344.067893 103.772978"></polygon>
                <polygon id="Rectangle" fill="#3994DD" transform="translate(326.772955, 155.659467) scale(-1, -1) translate(-326.772955, -155.659467) " points="326.772955 138.363971 344.067893 172.954964 309.478017 172.954964"></polygon>
                <polygon id="Rectangle" fill="#0094DD" opacity="0.200000003" transform="translate(274.888141, 155.659467) scale(-1, -1) translate(-274.888141, -155.659467) " points="274.888141 172.954964 257.593203 138.363971 292.183079 138.363971"></polygon>
                <polygon id="Rectangle" fill="#3473D3" transform="translate(274.888141, 190.250460) scale(-1, -1) translate(-274.888141, -190.250460) " points="274.888141 172.954964 292.183079 207.545957 257.593203 207.545957"></polygon>
                <polygon id="Rectangle" fill="#2E51C9" opacity="0.200000003" transform="translate(257.593203, 190.250460) scale(-1, -1) translate(-257.593203, -190.250460) " points="257.593203 207.545957 240.298265 172.954964 274.888141 172.954964"></polygon>
                <polygon id="Rectangle" fill="#3FB6E6" opacity="0.200000003" transform="translate(257.593203, 121.068475) scale(-1, -1) translate(-257.593203, -121.068475) " points="257.593203 138.363971 240.298265 103.772978 274.888141 103.772978"></polygon>
                <polygon id="Rectangle" fill="#3994DD" transform="translate(292.183079, 190.250460) scale(-1, -1) translate(-292.183079, -190.250460) " points="292.183079 207.545957 274.888141 172.954964 309.478017 172.954964"></polygon>
                <polygon id="Rectangle" fill="#0094DD" opacity="0.200000003" transform="translate(274.888141, 121.068475) scale(-1, -1) translate(-274.888141, -121.068475) " points="274.888141 103.772978 292.183079 138.363971 257.593203 138.363971"></polygon>
                <polygon id="Rectangle" fill="#3473D3" opacity="0.200000003" transform="translate(292.183079, 121.068475) scale(-1, -1) translate(-292.183079, -121.068475) " points="292.183079 138.363971 274.888141 103.772978 309.478017 103.772978"></polygon>
                <polygon id="Rectangle" fill="#46D8F0" opacity="0.200000003" transform="translate(206.082333, 121.068475) scale(-1, -1) translate(-206.082333, -121.068475) " points="206.082333 103.772978 223.377271 138.363971 188.787395 138.363971"></polygon>
                <polygon id="Rectangle" fill="#3FB6E6" opacity="0.200000003" transform="translate(223.377271, 121.068475) scale(-1, -1) translate(-223.377271, -121.068475) " points="223.377271 138.363971 206.082333 103.772978 240.672209 103.772978"></polygon>
                <polygon id="Rectangle" fill="#2E51C9" opacity="0.200000003" transform="translate(206.456278, 190.250460) scale(-1, -1) translate(-206.456278, -190.250460) " points="206.456278 172.954964 223.751216 207.545957 189.16134 207.545957"></polygon>
                <polygon id="Rectangle" fill="#3994DD" opacity="0.200000003" transform="translate(360.988886, 190.250460) scale(-1, -1) translate(-360.988886, -190.250460) " points="360.988886 207.545957 343.693948 172.954964 378.283824 172.954964"></polygon>
                <polygon id="Rectangle" fill="#3FB6E6" opacity="0.200000003" transform="translate(51.884814, 363.441389) scale(1, -1) translate(-51.884814, -363.441389) " points="51.884814 346.145892 69.1797521 380.736885 34.589876 380.736885"></polygon>
                <polygon id="Rectangle" fill="#3473D3" opacity="0.668945312" transform="translate(17.294938, 363.441389) scale(1, -1) translate(-17.294938, -363.441389) " points="17.294938 346.145892 34.589876 380.736885 3.51718654e-13 380.736885"></polygon>
                <polygon id="Rectangle" fill="#3994DD" opacity="0.449660528" points="34.589876 346.145892 51.884814 380.736885 17.294938 380.736885"></polygon>
                <polygon id="Rectangle" fill="#3994DD" opacity="0.200000003" transform="translate(121.064566, 363.441389) scale(1, -1) translate(-121.064566, -363.441389) " points="121.064566 346.145892 138.359504 380.736885 103.769628 380.736885"></polygon>
                <polygon id="Rectangle" fill="#2E51C9" opacity="0.200000003" points="121.064566 311.5549 138.359504 346.145892 103.769628 346.145892"></polygon>
                <polygon id="Rectangle" fill="#46D8F0" opacity="0.200000003" points="103.769628 346.145892 121.064566 380.736885 86.4746901 380.736885"></polygon>
                <polygon id="Rectangle" fill="#3473D3" opacity="0.449660528" transform="translate(69.179752, 398.032382) scale(1, -1) translate(-69.179752, -398.032382) " points="69.1797521 380.736885 86.4746901 415.327878 51.884814 415.327878"></polygon>
                <polygon id="Rectangle" fill="#0094DD" opacity="0.200000003" points="69.1797521 346.145892 86.4746901 380.736885 51.884814 380.736885"></polygon>
                <polygon id="Rectangle" fill="#3FB6E6" opacity="0.200000003" transform="translate(137.985560, 398.032382) scale(1, -1) translate(-137.985560, -398.032382) " points="137.98556 380.736885 155.280498 415.327878 120.690621 415.327878"></polygon>
                <polygon id="Rectangle" fill="#3473D3" opacity="0.568661644" points="137.98556 346.145892 155.280498 380.736885 120.690621 380.736885"></polygon>
                <polygon id="Rectangle" fill="#46D8F0" opacity="0.200000003" points="224.086305 519.100856 241.381243 553.691849 206.791367 553.691849"></polygon>
                <polygon id="Rectangle" fill="#3FB6E6" opacity="0.200000003" transform="translate(258.302236, 501.805360) scale(1, -1) translate(-258.302236, -501.805360) " points="258.302236 484.509863 275.597174 519.100856 241.007298 519.100856"></polygon>
                <polygon id="Rectangle" fill="#2E51C9" opacity="0.200000003" transform="translate(241.007298, 536.396353) scale(1, -1) translate(-241.007298, -536.396353) " points="241.007298 519.100856 258.302236 553.691849 223.71236 553.691849"></polygon>
                <polygon id="Rectangle" fill="#2E51C9" opacity="0.449660528" points="327.481988 449.918871 344.776926 484.509863 310.18705 484.509863"></polygon>
                <polygon id="Rectangle" fill="#0094DD" opacity="0.200000003" transform="translate(292.892112, 501.805360) scale(1, -1) translate(-292.892112, -501.805360) " points="292.892112 484.509863 310.18705 519.100856 275.597174 519.100856"></polygon>
                <polygon id="Rectangle" fill="#3473D3" opacity="0.449660528" points="292.892112 449.918871 310.18705 484.509863 275.597174 484.509863"></polygon>
                <polygon id="Rectangle" fill="#3994DD" opacity="0.200000003" points="310.18705 415.327878 327.481988 449.918871 292.892112 449.918871"></polygon>
                <polygon id="Rectangle" fill="#3FB6E6" opacity="0.200000003" transform="translate(310.187050, 536.396353) scale(1, -1) translate(-310.187050, -536.396353) " points="310.18705 519.100856 327.481988 553.691849 292.892112 553.691849"></polygon>
                <polygon id="Rectangle" fill="#3994DD" opacity="0.200000003" transform="translate(292.892112, 432.623374) scale(1, -1) translate(-292.892112, -432.623374) " points="292.892112 415.327878 310.18705 449.918871 275.597174 449.918871"></polygon>
                <polygon id="Rectangle" fill="#46D8F0" opacity="0.200000003" points="292.892112 380.736885 310.18705 415.327878 275.597174 415.327878"></polygon>
                <polygon id="Rectangle" fill="#3473D3" opacity="0.200000003" transform="translate(258.302236, 432.623374) scale(1, -1) translate(-258.302236, -432.623374) " points="258.302236 415.327878 275.597174 449.918871 241.007298 449.918871"></polygon>
                <polygon id="Rectangle" fill="#0094DD" opacity="0.200000003" points="258.302236 380.736885 275.597174 415.327878 241.007298 415.327878"></polygon>
                <polygon id="Rectangle" fill="#3FB6E6" opacity="0.449660528" transform="translate(275.597174, 398.032382) scale(1, -1) translate(-275.597174, -398.032382) " points="275.597174 380.736885 292.892112 415.327878 258.302236 415.327878"></polygon>
                <polygon id="Rectangle" fill="#3994DD" opacity="0.200000003" transform="translate(275.597174, 467.214367) scale(1, -1) translate(-275.597174, -467.214367) " points="275.597174 449.918871 292.892112 484.509863 258.302236 484.509863"></polygon>
                <polygon id="Rectangle" fill="#0094DD" opacity="0.200000003" points="292.892112 519.100856 310.18705 553.691849 275.597174 553.691849"></polygon>
                <polygon id="Rectangle" fill="#3473D3" opacity="0.200000003" transform="translate(275.597174, 536.396353) scale(1, -1) translate(-275.597174, -536.396353) " points="275.597174 519.100856 292.892112 553.691849 258.302236 553.691849"></polygon>
                <polygon id="Rectangle" fill="#0094DD" opacity="0.200000003" points="275.597174 484.509863 292.892112 519.100856 258.302236 519.100856"></polygon>
                <polygon id="Rectangle" fill="#3FB6E6" opacity="0.383207775" transform="translate(327.108044, 363.441389) scale(1, -1) translate(-327.108044, -363.441389) " points="327.108044 346.145892 344.402982 380.736885 309.813106 380.736885"></polygon>
                <polygon id="Rectangle" fill="#46D8F0" opacity="0.639020647" points="327.108044 311.5549 344.402982 346.145892 309.813106 346.145892"></polygon>
                <polygon id="Rectangle" fill="#3473D3" transform="translate(292.518168, 363.441389) scale(1, -1) translate(-292.518168, -363.441389) " points="292.518168 346.145892 309.813106 380.736885 275.22323 380.736885"></polygon>
                <polygon id="Rectangle" fill="#2E51C9" points="292.518168 311.5549 309.813106 346.145892 275.22323 346.145892"></polygon>
                <polygon id="Rectangle" fill="#0094DD" opacity="0.200000003" transform="translate(309.813106, 328.850396) scale(1, -1) translate(-309.813106, -328.850396) " points="309.813106 311.5549 327.108044 346.145892 292.518168 346.145892"></polygon>
                <polygon id="Rectangle" fill="#46D8F0" opacity="0.200000003" points="309.813106 276.963907 327.108044 311.5549 292.518168 311.5549"></polygon>
                <polygon id="Rectangle" fill="#2E51C9" opacity="0.200000003" transform="translate(309.813106, 398.032382) scale(1, -1) translate(-309.813106, -398.032382) " points="309.813106 380.736885 327.108044 415.327878 292.518168 415.327878"></polygon>
                <polygon id="Rectangle" fill="#3994DD" opacity="0.449660528" points="309.813106 346.145892 327.108044 380.736885 292.518168 380.736885"></polygon>
                <polygon id="Rectangle" fill="#3473D3" opacity="0.508207775" points="361.69792 311.5549 378.992858 346.145892 344.402982 346.145892"></polygon>
                <polygon id="Rectangle" fill="#3994DD" opacity="0.622256324" points="378.992858 276.963907 396.287796 311.5549 361.69792 311.5549"></polygon>
                <polygon id="Rectangle" fill="#3994DD" opacity="0.200000003" transform="translate(361.697920, 294.259403) scale(1, -1) translate(-361.697920, -294.259403) " points="361.69792 276.963907 378.992858 311.5549 344.402982 311.5549"></polygon>
                <polygon id="Rectangle" fill="#46D8F0" opacity="0.200000003" points="361.69792 242.372914 378.992858 276.963907 344.402982 276.963907"></polygon>
                <polygon id="Rectangle" fill="#3473D3" opacity="0.200000003" transform="translate(327.108044, 294.259403) scale(1, -1) translate(-327.108044, -294.259403) " points="327.108044 276.963907 344.402982 311.5549 309.813106 311.5549"></polygon>
                <polygon id="Rectangle" fill="#0094DD" opacity="0.200000003" points="327.108044 242.372914 344.402982 276.963907 309.813106 276.963907"></polygon>
                <polygon id="Rectangle" fill="#3FB6E6" opacity="0.200000003" transform="translate(344.402982, 259.668410) scale(1, -1) translate(-344.402982, -259.668410) " points="344.402982 242.372914 361.69792 276.963907 327.108044 276.963907"></polygon>
                <polygon id="Rectangle" fill="#3473D3" opacity="0.551688058" points="344.402982 207.781921 361.69792 242.372914 327.108044 242.372914"></polygon>
                <polygon id="Rectangle" fill="#3994DD" opacity="0.200000003" transform="translate(344.402982, 328.850396) scale(1, -1) translate(-344.402982, -328.850396) " points="344.402982 311.5549 361.69792 346.145892 327.108044 346.145892"></polygon>
                <polygon id="Rectangle" fill="#2E51C9" points="344.402982 276.963907 361.69792 311.5549 327.108044 311.5549"></polygon>
                <polygon id="Rectangle" fill="#3473D3" opacity="0.686011905" transform="translate(327.108044, 432.623374) scale(1, -1) translate(-327.108044, -432.623374) " points="327.108044 415.327878 344.402982 449.918871 309.813106 449.918871"></polygon>
                <polygon id="Rectangle" fill="#3994DD" opacity="0.200000003" points="327.108044 380.736885 344.402982 415.327878 309.813106 415.327878"></polygon>
                <polygon id="Rectangle" fill="#0094DD" opacity="0.383207775" points="344.402982 346.145892 361.69792 380.736885 327.108044 380.736885"></polygon>
                <polygon id="Rectangle" fill="#2E51C9" opacity="0.508207775" points="344.402982 415.327878 361.69792 449.918871 327.108044 449.918871"></polygon>
                <polygon id="Rectangle" fill="#3994DD" opacity="0.200000003" transform="translate(465.093603, 501.805360) scale(1, -1) translate(-465.093603, -501.805360) " points="465.093603 484.509863 482.388541 519.100856 447.798665 519.100856"></polygon>
                <polygon id="Rectangle" fill="#2E51C9" opacity="0.200000003" points="465.093603 449.918871 482.388541 484.509863 447.798665 484.509863"></polygon>
                <polygon id="Rectangle" fill="#2E51C9" opacity="0.585588728" transform="translate(447.798665, 467.214367) scale(1, -1) translate(-447.798665, -467.214367) " points="447.798665 449.918871 465.093603 484.509863 430.503727 484.509863"></polygon>
                <polygon id="Rectangle" fill="#3994DD" opacity="0.585588728" points="447.798665 415.327878 465.093603 449.918871 430.503727 449.918871"></polygon>
                <polygon id="Rectangle" fill="#3FB6E6" opacity="0.200000003" transform="translate(447.798665, 536.396353) scale(1, -1) translate(-447.798665, -536.396353) " points="447.798665 519.100856 465.093603 553.691849 430.503727 553.691849"></polygon>
                <polygon id="Rectangle" fill="#46D8F0" opacity="0.200000003" points="447.798665 484.509863 465.093603 519.100856 430.503727 519.100856"></polygon>
                <polygon id="Rectangle" fill="#3994DD" opacity="0.686011905" transform="translate(430.503727, 432.623374) scale(1, -1) translate(-430.503727, -432.623374) " points="430.503727 415.327878 447.798665 449.918871 413.208789 449.918871"></polygon>
                <polygon id="Rectangle" fill="#46D8F0" opacity="0.200000003" points="430.503727 380.736885 447.798665 415.327878 413.208789 415.327878"></polygon>
                <polygon id="Rectangle" fill="#3473D3" opacity="0.383207775" points="413.208789 346.145892 430.503727 380.736885 395.913851 380.736885"></polygon>
                <polygon id="Rectangle" fill="#2E51C9" opacity="0.585588728" points="413.208789 415.327878 430.503727 449.918871 395.913851 449.918871"></polygon>
                <polygon id="Rectangle" fill="#0094DD" opacity="0.200000003" transform="translate(499.309535, 640.169331) scale(1, -1) translate(-499.309535, -640.169331) " points="499.309535 622.873835 516.604473 657.464827 482.014597 657.464827"></polygon>
                <polygon id="Rectangle" fill="#3473D3" opacity="0.200000003" points="499.309535 588.282842 516.604473 622.873835 482.014597 622.873835"></polygon>
                <polygon id="Rectangle" fill="#46D8F0" opacity="0.200000003" points="499.309535 519.100856 516.604473 553.691849 482.014597 553.691849"></polygon>
                <polygon id="Rectangle" fill="#3473D3" opacity="0.200000003" transform="translate(464.719659, 570.987345) scale(1, -1) translate(-464.719659, -570.987345) " points="464.719659 553.691849 482.014597 588.282842 447.424721 588.282842"></polygon>
                <polygon id="Rectangle" fill="#0094DD" opacity="0.200000003" points="464.719659 519.100856 482.014597 553.691849 447.424721 553.691849"></polygon>
                <polygon id="Rectangle" fill="#3FB6E6" opacity="0.200000003" transform="translate(482.014597, 536.396353) scale(1, -1) translate(-482.014597, -536.396353) " points="482.014597 519.100856 499.309535 553.691849 464.719659 553.691849"></polygon>
                <polygon id="Rectangle" fill="#3473D3" opacity="0.559663318" points="482.014597 484.509863 499.309535 519.100856 464.719659 519.100856"></polygon>
                <polygon id="Rectangle" fill="#3994DD" opacity="0.200000003" transform="translate(482.014597, 605.578338) scale(1, -1) translate(-482.014597, -605.578338) " points="482.014597 588.282842 499.309535 622.873835 464.719659 622.873835"></polygon>
                <polygon id="Rectangle" fill="#2E51C9" opacity="0.200000003" points="482.014597 553.691849 499.309535 588.282842 464.719659 588.282842"></polygon>
                <polygon id="Rectangle" fill="#3994DD" opacity="0.307710193" transform="translate(189.870374, 225.077418) scale(1, -1) translate(-189.870374, -225.077418) " points="189.870374 207.781921 207.165312 242.372914 172.575436 242.372914"></polygon>
                <polygon id="Rectangle" fill="#3FB6E6" opacity="0.668945312" transform="translate(172.575436, 259.668410) scale(1, -1) translate(-172.575436, -259.668410) " points="172.575436 242.372914 189.870374 276.963907 155.280498 276.963907"></polygon>
                <polygon id="Rectangle" fill="#46D8F0" opacity="0.307710193" transform="translate(155.280498, 294.259403) scale(1, -1) translate(-155.280498, -294.259403) " points="155.280498 276.963907 172.575436 311.5549 137.98556 311.5549"></polygon>
                <polygon id="Rectangle" fill="#0094DD" opacity="0.668945312" points="155.280498 242.372914 172.575436 276.963907 137.98556 276.963907"></polygon>
                <polygon id="Rectangle" fill="#2E51C9" opacity="0.668945312" points="137.98556 276.963907 155.280498 311.5549 120.690621 311.5549"></polygon>
                <polygon id="Rectangle" fill="#3473D3" opacity="0.200000003" transform="translate(154.906553, 363.441389) scale(1, -1) translate(-154.906553, -363.441389) " points="154.906553 346.145892 172.201491 380.736885 137.611615 380.736885"></polygon>
                <polygon id="Rectangle" fill="#2E51C9" opacity="0.568661644" points="154.906553 311.5549 172.201491 346.145892 137.611615 346.145892"></polygon>
                <polygon id="Rectangle" fill="#46D8F0" opacity="0.449660528" points="172.201491 276.963907 189.496429 311.5549 154.906553 311.5549"></polygon>
                <polygon id="Rectangle" fill="#3994DD" opacity="0.200000003" transform="translate(258.676181, 363.441389) scale(1, -1) translate(-258.676181, -363.441389) " points="258.676181 346.145892 275.971119 380.736885 241.381243 380.736885"></polygon>
                <polygon id="Rectangle" fill="#2E51C9" opacity="0.551688058" points="258.676181 311.5549 275.971119 346.145892 241.381243 346.145892"></polygon>
                <polygon id="Rectangle" fill="#2E51C9" opacity="0.646995908" transform="translate(241.381243, 328.850396) scale(1, -1) translate(-241.381243, -328.850396) " points="241.381243 311.5549 258.676181 346.145892 224.086305 346.145892"></polygon>
                <polygon id="Rectangle" fill="#3FB6E6" opacity="0.200000003" transform="translate(241.381243, 398.032382) scale(1, -1) translate(-241.381243, -398.032382) " points="241.381243 380.736885 258.676181 415.327878 224.086305 415.327878"></polygon>
                <polygon id="Rectangle" fill="#46D8F0" opacity="0.200000003" points="241.381243 346.145892 258.676181 380.736885 224.086305 380.736885"></polygon>
                <polygon id="Rectangle" fill="#3994DD" opacity="0.392764137" transform="translate(224.086305, 294.259403) scale(1, -1) translate(-224.086305, -294.259403) " points="224.086305 276.963907 241.381243 311.5549 206.791367 311.5549"></polygon>
                <polygon id="Rectangle" fill="#3473D3" opacity="0.646995908" transform="translate(189.496429, 294.259403) scale(1, -1) translate(-189.496429, -294.259403) " points="189.496429 276.963907 206.791367 311.5549 172.201491 311.5549"></polygon>
                <polygon id="Rectangle" fill="#3FB6E6" opacity="0.668945312" transform="translate(206.791367, 259.668410) scale(1, -1) translate(-206.791367, -259.668410) " points="206.791367 242.372914 224.086305 276.963907 189.496429 276.963907"></polygon>
                <polygon id="Rectangle" fill="#3473D3" opacity="0.668945312" points="206.791367 207.781921 224.086305 242.372914 189.496429 242.372914"></polygon>
                <polygon id="Rectangle" fill="#2E51C9" opacity="0.646995908" points="206.791367 276.963907 224.086305 311.5549 189.496429 311.5549"></polygon>
                <polygon id="Rectangle" fill="#0094DD" opacity="0.200000003" points="224.086305 380.736885 241.381243 415.327878 206.791367 415.327878"></polygon>
                <polygon id="Rectangle" fill="#3FB6E6" opacity="0.622256324" transform="translate(258.302236, 225.077418) scale(1, -1) translate(-258.302236, -225.077418) " points="258.302236 207.781921 275.597174 242.372914 241.007298 242.372914"></polygon>
                <polygon id="Rectangle" fill="#3473D3" opacity="0.392764137" transform="translate(223.712360, 225.077418) scale(1, -1) translate(-223.712360, -225.077418) " points="223.71236 207.781921 241.007298 242.372914 206.417422 242.372914"></polygon>
                <polygon id="Rectangle" fill="#2E51C9" opacity="0.449660528" transform="translate(241.007298, 259.668410) scale(1, -1) translate(-241.007298, -259.668410) " points="241.007298 242.372914 258.302236 276.963907 223.71236 276.963907"></polygon>
                <polygon id="Rectangle" fill="#3994DD" opacity="0.449660528" points="241.007298 207.781921 258.302236 242.372914 223.71236 242.372914"></polygon>
                <polygon id="Rectangle" fill="#0094DD" opacity="0.585588728" transform="translate(292.892112, 225.077418) scale(1, -1) translate(-292.892112, -225.077418) " points="292.892112 207.781921 310.18705 242.372914 275.597174 242.372914"></polygon>
                <polygon id="Rectangle" fill="#3FB6E6" opacity="0.74874442" transform="translate(310.187050, 259.668410) scale(1, -1) translate(-310.187050, -259.668410) " points="310.18705 242.372914 327.481988 276.963907 292.892112 276.963907"></polygon>
                <polygon id="Rectangle" fill="#46D8F0" opacity="0.74874442" points="310.18705 207.781921 327.481988 242.372914 292.892112 242.372914"></polygon>
                <polygon id="Rectangle" fill="#46D8F0" opacity="0.200000003" transform="translate(292.892112, 294.259403) scale(1, -1) translate(-292.892112, -294.259403) " points="292.892112 276.963907 310.18705 311.5549 275.597174 311.5549"></polygon>
                <polygon id="Rectangle" fill="#0094DD" opacity="0.585588728" points="292.892112 242.372914 310.18705 276.963907 275.597174 276.963907"></polygon>
                <polygon id="Rectangle" fill="#3473D3" opacity="0.449660528" transform="translate(258.302236, 294.259403) scale(1, -1) translate(-258.302236, -294.259403) " points="258.302236 276.963907 275.597174 311.5549 241.007298 311.5549"></polygon>
                <polygon id="Rectangle" fill="#3994DD" opacity="0.585588728" points="258.302236 242.372914 275.597174 276.963907 241.007298 276.963907"></polygon>
                <polygon id="Rectangle" fill="#3473D3" opacity="0.646995908" transform="translate(275.597174, 259.668410) scale(1, -1) translate(-275.597174, -259.668410) " points="275.597174 242.372914 292.892112 276.963907 258.302236 276.963907"></polygon>
                <polygon id="Rectangle" fill="#0094DD" opacity="0.646995908" points="275.597174 207.781921 292.892112 242.372914 258.302236 242.372914"></polygon>
                <polygon id="Rectangle" fill="#3994DD" opacity="0.449660528" transform="translate(275.597174, 328.850396) scale(1, -1) translate(-275.597174, -328.850396) " points="275.597174 311.5549 292.892112 346.145892 258.302236 346.145892"></polygon>
                <polygon id="Rectangle" fill="#2E51C9" transform="translate(378.618913, 259.668410) scale(1, -1) translate(-378.618913, -259.668410) " points="378.618913 242.372914 395.913851 276.963907 361.323975 276.963907"></polygon>
                <polygon id="Rectangle" fill="#3994DD" opacity="0.551688058" points="378.618913 207.781921 395.913851 242.372914 361.323975 242.372914"></polygon>
                <polygon id="Rectangle" fill="#3994DD" opacity="0.537132626" transform="translate(465.093603, 225.077418) scale(1, -1) translate(-465.093603, -225.077418) " points="465.093603 207.781921 482.388541 242.372914 447.798665 242.372914"></polygon>
                <polygon id="Rectangle" fill="#3FB6E6" opacity="0.585588728" transform="translate(447.798665, 259.668410) scale(1, -1) translate(-447.798665, -259.668410) " points="447.798665 242.372914 465.093603 276.963907 430.503727 276.963907"></polygon>
                <polygon id="Rectangle" fill="#46D8F0" opacity="0.449660528" points="447.798665 207.781921 465.093603 242.372914 430.503727 242.372914"></polygon>
                <polygon id="Rectangle" fill="#46D8F0" opacity="0.383207775" transform="translate(430.503727, 294.259403) scale(1, -1) translate(-430.503727, -294.259403) " points="430.503727 276.963907 447.798665 311.5549 413.208789 311.5549"></polygon>
                <polygon id="Rectangle" fill="#3994DD" opacity="0.449660528" points="395.913851 242.372914 413.208789 276.963907 378.618913 276.963907"></polygon>
                <polygon id="Rectangle" fill="#3473D3" opacity="0.74874442" transform="translate(413.208789, 259.668410) scale(1, -1) translate(-413.208789, -259.668410) " points="413.208789 242.372914 430.503727 276.963907 395.913851 276.963907"></polygon>
                <polygon id="Rectangle" fill="#0094DD" opacity="0.74874442" points="413.208789 207.781921 430.503727 242.372914 395.913851 242.372914"></polygon>
                <polygon id="Rectangle" fill="#3994DD" opacity="0.383207775" transform="translate(413.208789, 328.850396) scale(1, -1) translate(-413.208789, -328.850396) " points="413.208789 311.5549 430.503727 346.145892 395.913851 346.145892"></polygon>
                <polygon id="Rectangle" fill="#3FB6E6" opacity="0.200000003" transform="translate(464.719659, 363.441389) scale(1, -1) translate(-464.719659, -363.441389) " points="464.719659 346.145892 482.014597 380.736885 447.424721 380.736885"></polygon>
                <polygon id="Rectangle" fill="#46D8F0" opacity="0.200000003" points="464.719659 311.5549 482.014597 346.145892 447.424721 346.145892"></polygon>
                <polygon id="Rectangle" fill="#0094DD" opacity="0.200000003" transform="translate(447.424721, 328.850396) scale(1, -1) translate(-447.424721, -328.850396) " points="447.424721 311.5549 464.719659 346.145892 430.129783 346.145892"></polygon>
                <polygon id="Rectangle" fill="#46D8F0" opacity="0.585588728" points="447.424721 276.963907 464.719659 311.5549 430.129783 311.5549"></polygon>
                <polygon id="Rectangle" fill="#2E51C9" transform="translate(447.424721, 398.032382) scale(1, -1) translate(-447.424721, -398.032382) " points="447.424721 380.736885 464.719659 415.327878 430.129783 415.327878"></polygon>
                <polygon id="Rectangle" fill="#3994DD" opacity="0.200000003" points="447.424721 346.145892 464.719659 380.736885 430.129783 380.736885"></polygon>
                <polygon id="Rectangle" fill="#3994DD" opacity="0.200000003" transform="translate(533.899411, 363.441389) scale(1, -1) translate(-533.899411, -363.441389) " points="533.899411 346.145892 551.194349 380.736885 516.604473 380.736885"></polygon>
                <polygon id="Rectangle" fill="#2E51C9" points="533.899411 311.5549 551.194349 346.145892 516.604473 346.145892"></polygon>
                <polygon id="Rectangle" fill="#0094DD" opacity="0.200000003" transform="translate(499.309535, 363.441389) scale(1, -1) translate(-499.309535, -363.441389) " points="499.309535 346.145892 516.604473 380.736885 482.014597 380.736885"></polygon>
                <polygon id="Rectangle" fill="#3473D3" opacity="0.200000003" points="499.309535 311.5549 516.604473 346.145892 482.014597 346.145892"></polygon>
                <polygon id="Rectangle" fill="#2E51C9" opacity="0.585588728" transform="translate(516.604473, 328.850396) scale(1, -1) translate(-516.604473, -328.850396) " points="516.604473 311.5549 533.899411 346.145892 499.309535 346.145892"></polygon>
                <polygon id="Rectangle" fill="#3994DD" opacity="0.585588728" points="516.604473 276.963907 533.899411 311.5549 499.309535 311.5549"></polygon>
                <polygon id="Rectangle" fill="#46D8F0" opacity="0.200000003" points="516.604473 346.145892 533.899411 380.736885 499.309535 380.736885"></polygon>
                <polygon id="Rectangle" fill="#46D8F0" opacity="0.74874442" points="499.309535 242.372914 516.604473 276.963907 482.014597 276.963907"></polygon>
                <polygon id="Rectangle" fill="#3473D3" transform="translate(464.719659, 294.259403) scale(1, -1) translate(-464.719659, -294.259403) " points="464.719659 276.963907 482.014597 311.5549 447.424721 311.5549"></polygon>
                <polygon id="Rectangle" fill="#0094DD" opacity="0.74874442" points="464.719659 242.372914 482.014597 276.963907 447.424721 276.963907"></polygon>
                <polygon id="Rectangle" fill="#3473D3" opacity="0.80766369" points="482.014597 207.781921 499.309535 242.372914 464.719659 242.372914"></polygon>
                <polygon id="Rectangle" fill="#3994DD" opacity="0.200000003" transform="translate(482.014597, 328.850396) scale(1, -1) translate(-482.014597, -328.850396) " points="482.014597 311.5549 499.309535 346.145892 464.719659 346.145892"></polygon>
                <polygon id="Rectangle" fill="#2E51C9" opacity="0.585588728" points="482.014597 276.963907 499.309535 311.5549 464.719659 311.5549"></polygon>
                <polygon id="Rectangle" fill="#46D8F0" opacity="0.585588728" transform="translate(499.309535, 432.623374) scale(1, -1) translate(-499.309535, -432.623374) " points="499.309535 415.327878 516.604473 449.918871 482.014597 449.918871"></polygon>
                <polygon id="Rectangle" fill="#3473D3" transform="translate(464.719659, 432.623374) scale(1, -1) translate(-464.719659, -432.623374) " points="464.719659 415.327878 482.014597 449.918871 447.424721 449.918871"></polygon>
                <polygon id="Rectangle" fill="#3994DD" opacity="0.200000003" points="464.719659 380.736885 482.014597 415.327878 447.424721 415.327878"></polygon>
                <polygon id="Rectangle" fill="#3473D3" opacity="0.200000003" transform="translate(482.014597, 398.032382) scale(1, -1) translate(-482.014597, -398.032382) " points="482.014597 380.736885 499.309535 415.327878 464.719659 415.327878"></polygon>
                <polygon id="Rectangle" fill="#0094DD" opacity="0.200000003" points="482.014597 346.145892 499.309535 380.736885 464.719659 380.736885"></polygon>
                <polygon id="Rectangle" fill="#3994DD" opacity="0.200000003" transform="translate(482.014597, 467.214367) scale(1, -1) translate(-482.014597, -467.214367) " points="482.014597 449.918871 499.309535 484.509863 464.719659 484.509863"></polygon>
                <polygon id="Rectangle" fill="#3473D3" opacity="0.74874442" transform="translate(498.935590, 225.077418) scale(1, -1) translate(-498.935590, -225.077418) " points="498.93559 207.781921 516.230528 242.372914 481.640652 242.372914"></polygon>
                <polygon id="Rectangle" fill="#2E51C9" opacity="0.74874442" transform="translate(516.230528, 259.668410) scale(1, -1) translate(-516.230528, -259.668410) " points="516.230528 242.372914 533.525466 276.963907 498.93559 276.963907"></polygon>
                <polygon id="Rectangle" fill="#3994DD" opacity="0.537132626" points="516.230528 207.781921 533.525466 242.372914 498.93559 242.372914"></polygon>
                <polygon id="Rectangle" fill="#0094DD" opacity="0.502022879" points="568.115342 242.372914 585.41028 276.963907 550.820404 276.963907"></polygon>
                <polygon id="Rectangle" fill="#3473D3" transform="translate(533.525466, 294.259403) scale(1, -1) translate(-533.525466, -294.259403) " points="533.525466 276.963907 550.820404 311.5549 516.230528 311.5549"></polygon>
                <polygon id="Rectangle" fill="#3473D3" opacity="0.80766369" transform="translate(550.820404, 259.668410) scale(1, -1) translate(-550.820404, -259.668410) " points="550.820404 242.372914 568.115342 276.963907 533.525466 276.963907"></polygon>
                <polygon id="Rectangle" fill="#3994DD" opacity="0.74874442" transform="translate(550.820404, 328.850396) scale(1, -1) translate(-550.820404, -328.850396) " points="550.820404 311.5549 568.115342 346.145892 533.525466 346.145892"></polygon>
                <polygon id="Rectangle" fill="#2E51C9" opacity="0.481677827" points="550.820404 276.963907 568.115342 311.5549 533.525466 311.5549"></polygon>
                <polygon id="Rectangle" fill="#2E51C9" opacity="0.481677827" points="567.36585 311.485451 584.660788 346.076443 550.070912 346.076443"></polygon>
                <polygon id="Rectangle" fill="#3994DD" opacity="0.80766369" points="584.660788 346.076443 601.955726 380.667436 567.36585 380.667436"></polygon>
            </g>
            <g id="3" transform="translate(172.201491, 173.151555)">
                <polygon id="Rectangle" fill="#2E51C9" transform="translate(223.003327, 17.295496) scale(-1, -1) translate(-223.003327, -17.295496) " points="223.003327 34.5909928 205.708389 -7.10542736e-15 240.298265 -7.10542736e-15"></polygon>
                <polygon id="Rectangle" fill="#2E51C9" opacity="0.620884487" points="103.395683 242.372914 120.690621 276.963907 86.1007455 276.963907"></polygon>
                <polygon id="Rectangle" fill="#3FB6E6" opacity="0.785993304" transform="translate(241.007298, 225.077418) scale(1, -1) translate(-241.007298, -225.077418) " points="241.007298 207.781921 258.302236 242.372914 223.71236 242.372914"></polygon>
                <polygon id="Rectangle" fill="#0094DD" opacity="0.668945312" points="17.294938 69.4179502 34.589876 104.008943 3.44613227e-13 104.008943"></polygon>
                <polygon id="Rectangle" fill="#2E51C9" points="103.395683 104.008943 120.690621 138.599936 86.1007455 138.599936"></polygon>
                <polygon id="Rectangle" fill="#3FB6E6" transform="translate(223.712360, 52.122454) scale(1, -1) translate(-223.712360, -52.122454) " points="223.71236 34.8269574 241.007298 69.4179502 206.417422 69.4179502"></polygon>
                <polygon id="Rectangle" fill="#2E51C9" points="241.007298 104.008943 258.302236 138.599936 223.71236 138.599936"></polygon>
                <polygon id="Rectangle" fill="#3FB6E6" transform="translate(344.402982, 225.077418) scale(1, -1) translate(-344.402982, -225.077418) " points="344.402982 207.781921 361.69792 242.372914 327.108044 242.372914"></polygon>
                <polygon id="Rectangle" fill="#2E51C9" points="309.813106 242.372914 327.108044 276.963907 292.518168 276.963907"></polygon>
                <polygon id="Rectangle" fill="#0094DD" opacity="0.80766369" transform="translate(412.459297, 155.825983) scale(1, -1) translate(-412.459297, -155.825983) " points="412.459297 138.530487 429.754236 173.121479 395.164359 173.121479"></polygon>
            </g>
            <g id="2" transform="translate(69.179752, 103.969569)">
                <polygon id="Rectangle" fill="#2E51C9" transform="translate(308.730128, 86.477482) scale(-1, -1) translate(-308.730128, -86.477482) " points="308.730128 69.1819856 326.025066 103.772978 291.43519 103.772978"></polygon>
                <polygon id="Rectangle" fill="#0094DD" transform="translate(309.104072, 17.295496) scale(-1, -1) translate(-309.104072, -17.295496) " points="309.104072 3.55271368e-15 326.39901 34.5909928 291.809134 34.5909928"></polygon>
                <polygon id="Rectangle" fill="#0094DD" opacity="0.681710379" transform="translate(17.294938, 259.668410) scale(1, -1) translate(-17.294938, -259.668410) " points="17.294938 242.372914 34.589876 276.963907 -6.03961325e-14 276.963907"></polygon>
                <polygon id="Rectangle" fill="#3473D3" points="206.417422 242.372914 223.71236 276.963907 189.122484 276.963907"></polygon>
                <polygon id="Rectangle" fill="#46D8F0" opacity="0.74874442" points="154.906553 138.599936 172.201491 173.190929 137.611615 173.190929"></polygon>
                <polygon id="Rectangle" fill="#0094DD" transform="translate(361.323975, 121.304439) scale(1, -1) translate(-361.323975, -121.304439) " points="361.323975 104.008943 378.618913 138.599936 344.029037 138.599936"></polygon>
                <polygon id="Rectangle" fill="#2E51C9" points="360.950031 207.781921 378.244969 242.372914 343.655093 242.372914"></polygon>
                <polygon id="Rectangle" fill="#0094DD" points="430.129783 276.963907 447.424721 311.5549 412.834845 311.5549"></polygon>
                <polygon id="Rectangle" fill="#3473D3" transform="translate(498.186098, 259.598961) scale(1, -1) translate(-498.186098, -259.598961) " points="498.186098 242.303465 515.481036 276.894458 480.89116 276.894458"></polygon>
            </g>
            <g id="1" transform="translate(34.589876, 34.787584)">
                <polygon id="Rectangle" fill="#2E51C9" points="516.501905 381.008271 533.796843 415.599264 499.206967 415.599264"></polygon>
                <polygon id="Rectangle" fill="#2E51C9" opacity="0.717285156" transform="translate(429.420749, 17.295496) scale(-1, -1) translate(-429.420749, -17.295496) " points="429.420749 34.5909928 412.125811 -2.48689958e-14 446.715687 -2.48689958e-14"></polygon>
                <polygon id="Rectangle" fill="#3994DD" transform="translate(395.204818, 155.659467) scale(-1, -1) translate(-395.204818, -155.659467) " points="395.204818 172.954964 377.90988 138.363971 412.499756 138.363971"></polygon>
                <polygon id="Rectangle" fill="#46D8F0" transform="translate(274.888141, 155.659467) scale(-1, -1) translate(-274.888141, -155.659467) " points="274.888141 138.363971 292.183079 172.954964 257.593203 172.954964"></polygon>
                <polygon id="Rectangle" fill="#3994DD" opacity="0.668945312" points="17.294938 346.145892 34.589876 380.736885 1.03028697e-13 380.736885"></polygon>
                <polygon id="Rectangle" fill="#2E51C9" opacity="0.681710379" transform="translate(275.597174, 432.623374) scale(1, -1) translate(-275.597174, -432.623374) " points="275.597174 415.327878 292.892112 449.918871 258.302236 449.918871"></polygon>
                <polygon id="Rectangle" fill="#3994DD" opacity="0.681710379" transform="translate(103.395683, 294.259403) scale(1, -1) translate(-103.395683, -294.259403) " points="103.395683 276.963907 120.690621 311.5549 86.1007455 311.5549"></polygon>
                <polygon id="Rectangle" fill="#3994DD" points="206.791367 242.372914 224.086305 276.963907 189.496429 276.963907"></polygon>
                <polygon id="Rectangle" fill="#3994DD" transform="translate(292.892112, 190.486425) scale(1, -1) translate(-292.892112, -190.486425) " points="292.892112 173.190929 310.18705 207.781921 275.597174 207.781921"></polygon>
                <polygon id="Rectangle" fill="#3473D3" transform="translate(326.734099, 190.486425) scale(1, -1) translate(-326.734099, -190.486425) " points="326.734099 173.190929 344.029037 207.781921 309.439161 207.781921"></polygon>
                <polygon id="Rectangle" fill="#0094DD" points="395.913851 207.781921 413.208789 242.372914 378.618913 242.372914"></polygon>
                <polygon id="Rectangle" fill="#3473D3" transform="translate(361.323975, 259.668410) scale(1, -1) translate(-361.323975, -259.668410) " points="361.323975 242.372914 378.618913 276.963907 344.029037 276.963907"></polygon>
                <polygon id="Rectangle" fill="#3473D3" transform="translate(395.539907, 328.850396) scale(1, -1) translate(-395.539907, -328.850396) " points="395.539907 311.5549 412.834845 346.145892 378.244969 346.145892"></polygon>
                <polygon id="Rectangle" fill="#3994DD" transform="translate(464.719659, 259.668410) scale(1, -1) translate(-464.719659, -259.668410) " points="464.719659 242.372914 482.014597 276.963907 447.424721 276.963907"></polygon>
                <polygon id="Rectangle" fill="#3FB6E6" transform="translate(447.424721, 225.077418) scale(1, -1) translate(-447.424721, -225.077418) " points="447.424721 207.781921 464.719659 242.372914 430.129783 242.372914"></polygon>
                <polygon id="Rectangle" fill="#3994DD" points="498.93559 207.781921 516.230528 242.372914 481.640652 242.372914"></polygon>
            </g>
        </g>
    </g>
</svg>