<?xml version="1.0" encoding="UTF-8"?>
<svg width="16px" height="16px" viewBox="0 0 16 16" version="1.1" xmlns="http://www.w3.org/2000/svg" xmlns:xlink="http://www.w3.org/1999/xlink">
    <!-- Generator: Sketch 55.2 (78181) - https://sketchapp.com -->
    <title>instagram</title>
    <desc>Created with Sketch.</desc>
    <g id="instagram" stroke="none" stroke-width="1" fill="none" fill-rule="evenodd">
        <path d="M8.00001389,1 C9.90108586,1 10.1394666,1.0080581 10.886091,1.0421244 C11.6311594,1.07610734 12.1400144,1.19445023 12.585266,1.36750483 C13.0455779,1.54636681 13.435951,1.7857201 13.8251294,2.17487064 C14.2142799,2.56404898 14.4536332,2.95442213 14.632523,3.41473401 C14.8055498,3.85998559 14.9238927,4.36884057 14.9578756,5.11390895 C14.9919419,5.86053338 15,6.09891414 15,8.00001389 C15,9.90108586 14.9919419,10.1394666 14.9578756,10.886091 C14.9238927,11.6311594 14.8055498,12.1400144 14.632523,12.585266 C14.4536332,13.0455779 14.2142799,13.435951 13.8251294,13.8251294 C13.435951,14.2142799 13.0455779,14.4536332 12.585266,14.632523 C12.1400144,14.8055498 11.6311594,14.9238927 10.886091,14.9578756 C10.1394666,14.9919419 9.90108586,15 8.00001389,15 C6.09891414,15 5.86053338,14.9919419 5.11390895,14.9578756 C4.36884057,14.9238927 3.85998559,14.8055498 3.41473401,14.632523 C2.95442213,14.4536332 2.56404898,14.2142799 2.17487064,13.8251294 C1.7857201,13.435951 1.54636681,13.0455779 1.36750483,12.585266 C1.19445023,12.1400144 1.07610734,11.6311594 1.0421244,10.886091 C1.0080581,10.1394666 1,9.90108586 1,8.00001389 C1,6.09891414 1.0080581,5.86053338 1.0421244,5.11390895 C1.07610734,4.36884057 1.19445023,3.85998559 1.36750483,3.41473401 C1.54636681,2.95442213 1.7857201,2.56404898 2.17487064,2.17487064 C2.56404898,1.7857201 2.95442213,1.54636681 3.41473401,1.36750483 C3.85998559,1.19445023 4.36884057,1.07610734 5.11390895,1.0421244 C5.86053338,1.0080581 6.09891414,1 8.00001389,1 Z M8.00001389,4.40540766 C6.0147487,4.40540766 4.40540766,6.0147487 4.40540766,8.00001389 C4.40540766,9.9852513 6.0147487,11.5945923 8.00001389,11.5945923 C9.9852513,11.5945923 11.5945923,9.9852513 11.5945923,8.00001389 C11.5945923,6.0147487 9.9852513,4.40540766 8.00001389,4.40540766 Z M8.00001389,10.3333333 C6.71132957,10.3333333 5.66666667,9.28867043 5.66666667,8.00001389 C5.66666667,6.71132957 6.71132957,5.66666667 8.00001389,5.66666667 C9.28867043,5.66666667 10.3333333,6.71132957 10.3333333,8.00001389 C10.3333333,9.28867043 9.28867043,10.3333333 8.00001389,10.3333333 Z M12.5766244,4.26339063 C12.5766244,3.7994665 12.2005335,3.42337563 11.7366094,3.42337563 C11.272713,3.42337563 10.8966221,3.7994665 10.8966221,4.26339063 C10.8966221,4.72731477 11.272713,5.10337785 11.7366094,5.10337785 C12.2005335,5.10337785 12.5766244,4.72731477 12.5766244,4.26339063 Z" id="Combined-Shape" fill="#FFFFFF"></path>
    </g>
</svg>