<?xml version="1.0" encoding="UTF-8"?>
<svg width="128px" height="48px" viewBox="0 0 128 48" version="1.1" xmlns="http://www.w3.org/2000/svg" xmlns:xlink="http://www.w3.org/1999/xlink">
    <!-- Generator: sketchtool 55.2 (78181) - https://sketchapp.com -->
    <title>CE85DEB0-5747-4648-B7C2-174A6F4CBA33</title>
    <desc>Created with sketchtool.</desc>
    <g id="Asset-Artboard-Page" stroke="none" stroke-width="1" fill="none" fill-rule="evenodd">
        <g id="logo" transform="translate(0.600000, 0.000000)">
            <g id="logo-symbol">
                <g id="Group" transform="translate(1.200000, 0.000000)">
                    <polyline id="Fill-9" fill="#0072D3" points="13.8177769 0 6.94977738 11.7597782 20.3146653 11.6684449 13.8177769 0"></polyline>
                    <polyline id="Fill-10" fill="#0094DD" points="13.6531105 23.2962215 20.3091104 11.6657776 6.94977738 11.7597776 13.6531105 23.2962215"></polyline>
                    <polyline id="Fill-11" fill="#00B6E6" points="0 23.3666668 6.94977764 11.7597782 13.6531108 23.2962224 0 23.3666668"></polyline>
                    <polyline id="Fill-12" fill="#00D8F0" points="6.77355542 35.1146667 13.6531108 23.2962227 0 23.3666671 6.77355542 35.1146667"></polyline>
                    <polyline id="Fill-13" fill="#0072D3" points="16.2653322 25.4544434 30.2362203 25.4544434 23.0744429 36.5595543 16.2653322 25.4544434"></polyline>
                    <polyline id="Fill-14" fill="#0050C9" points="36.9393323 36.5931095 23.074444 36.559554 30.2362215 25.4544434 36.9393323 36.5931095"></polyline>
                    <polyline id="Fill-15" fill="#0094DD" points="30.0948881 47.8766682 23.074444 36.5595566 36.9393323 36.5931121 30.0948881 47.8766682"></polyline>
                    <polyline id="Fill-16" fill="#00D8F0" points="30.235331 25.456889 23.1671091 13.8764442 37.0688863 14.1888887 30.235331 25.456889"></polyline>
                    <polyline id="Fill-17" fill="#0094DD" points="16.2708883 25.456889 23.1671099 13.8764442 30.2362203 25.456889 16.2708883 25.456889"></polyline>
                </g>
            </g>
            <g id="logo-text-dark" transform="translate(46.799999, 0.000000)" fill="#FFFFFF">
                <path d="M11.2006157,18.7479457 L4.84631593,25.6105894 L11.5716891,33.1099915 L8.48332226,33.1099915 L2.45935755,26.1990817 L2.45935755,33.1099915 L1.44950721e-13,33.1099915 L1.44950721e-13,13.2 L2.45935755,13.2 L2.45935755,25.239516 L8.32191862,18.7479457 L11.2006157,18.7479457 Z M22.2347344,28.7069261 L22.2347344,25.7635792 C21.4817388,25.7852768 20.9282284,25.8027677 20.5733175,25.8162734 C20.218628,25.8295576 19.7211328,25.8634325 19.0814962,25.9170123 C18.4416381,25.9708135 17.9149176,26.0432126 17.5008918,26.1346526 C17.0924011,26.2260925 16.7563096,26.331038 16.49306,26.4490465 C16.2295891,26.5674977 16.0050852,26.7315582 15.8195486,26.9410065 C15.6342333,27.1506762 15.5024978,27.4101619 15.4245635,27.7194635 C15.3466292,28.0285437 15.3076621,28.4140084 15.3076621,28.8765217 C15.3076621,29.3764523 15.3734191,29.7904781 15.5051546,30.1181562 C15.6368901,30.4462772 15.8492167,30.7028846 16.1421344,30.8884213 C16.4352735,31.073958 16.7817711,31.2028152 17.1825126,31.2754358 C17.5828114,31.3480563 18.0867273,31.3843666 18.6944817,31.3843666 C20.0977413,31.3843666 21.256128,31.1935162 22.169863,30.8118154 C22.2130368,30.2472348 22.2347344,29.5456051 22.2347344,28.7069261 Z M23.5895067,19.8649294 C23.9171849,20.1901722 24.177999,20.6161538 24.3712849,21.1430957 C24.5650135,21.6700376 24.6619885,22.2855412 24.6619885,22.9896064 L24.6619885,29.5619889 C24.6619885,30.4221441 24.6294421,31.2687936 24.5650135,32.1019375 C23.0328966,32.9031992 20.9685241,33.3034979 18.371896,33.3034979 C16.4419158,33.3034979 15.0399846,32.9556719 14.1665451,32.2591345 C13.2928842,31.5632612 12.8560538,30.4515909 12.8560538,28.9247878 C12.8560538,27.6399794 13.1545066,26.6224059 13.7511909,25.8727314 C14.3478751,25.1226141 15.2914997,24.648145 16.5816218,24.449324 C17.6997129,24.2828281 19.5840838,24.1508712 22.2347346,24.0541176 L22.2347346,23.7073987 C22.2347346,23.1483532 22.1767267,22.6765409 22.0613751,22.2921833 C21.9453593,21.9078257 21.7534019,21.5825829 21.4843958,21.3164551 C21.2158326,21.0503273 20.855608,20.8554917 20.4041649,20.7317267 C19.9525004,20.6081832 19.3932334,20.5464115 18.7268069,20.5464115 C17.3932895,20.5464115 15.7617622,20.6754901 13.831782,20.9334259 L13.6221122,19.0625608 C15.7188098,18.7238124 17.5279033,18.5544382 19.0493927,18.5544382 C19.7105056,18.5544382 20.3043116,18.5920769 20.8314749,18.6673543 C21.3581955,18.7428532 21.8676465,18.8799023 22.3596065,19.0787233 C22.8513452,19.2777656 23.2613857,19.5396867 23.5895067,19.8649294 Z M37.8127304,27.0459522 C37.826236,26.7286801 37.8328782,26.3578281 37.8328782,25.9329535 C37.8328782,25.4279306 37.8193725,24.9802513 37.7925826,24.59058 C37.7655713,24.2006873 37.7133199,23.8110159 37.6351642,23.4211232 C37.5574514,23.0314518 37.4538342,22.6940319 37.324977,22.4090847 C37.1958984,22.124359 37.0276312,21.8580097 36.8210611,21.6107013 C36.6138268,21.3636142 36.3680682,21.161915 36.083121,21.0060465 C35.7981739,20.850178 35.4592041,20.7290699 35.0670973,20.6431651 C34.6743263,20.5570388 34.2308538,20.5140864 33.7364583,20.5140864 C33.1933538,20.5140864 32.6425003,20.5639024 32.0832334,20.6633128 C31.5241878,20.7629447 31.0510471,20.9039792 30.6640326,21.0866376 C30.6155451,21.7264957 30.5914121,22.4279041 30.5914121,23.1913057 L30.5914121,30.8441408 C31.010973,30.9840682 31.4878775,31.1007482 32.02279,31.194845 C32.5577025,31.2889417 33.0536478,31.3358794 33.510626,31.3358794 C33.9405929,31.3358794 34.3331425,31.3117464 34.6880534,31.2632589 C35.0427429,31.2149927 35.3584652,31.1479073 35.6354418,31.0617811 C35.912197,30.9756548 36.1568486,30.8589748 36.3693966,30.7108555 C36.5817232,30.5631789 36.7657101,30.4059819 36.9218,30.2392646 C37.0776685,30.0725472 37.209404,29.8670842 37.3167851,29.6222112 C37.4241661,29.3777809 37.5116207,29.1344578 37.5789276,28.892463 C37.646013,28.6506897 37.6984858,28.3617572 37.7361245,28.0256657 C37.7735418,27.6897956 37.7994461,27.3632244 37.8127304,27.0459522 Z M39.3368763,20.9132781 C39.662119,21.4858292 39.9065492,22.1834737 40.0706097,23.0057687 C40.2346702,23.8282851 40.3165897,24.8042346 40.3165897,25.932953 C40.3165897,27.32005 40.2023452,28.4813148 39.9738561,29.4165259 C39.745367,30.3521799 39.3771719,31.1089393 38.8692708,31.6865827 C38.3611482,32.264669 37.7292607,32.6786947 36.9740512,32.92866 C36.2188416,33.1786253 35.2873943,33.3034972 34.1799307,33.3034972 C33.0456772,33.3034972 31.8494305,33.1476287 30.5914121,32.8358917 L30.5914121,38.3999994 L28.1320547,38.3999994 L28.1320547,22.2961684 C28.1320547,21.4306996 28.1641583,20.5840501 28.2285869,19.7559985 C28.981361,19.3475079 29.8399664,19.0450698 30.8052885,18.8489057 C31.7699464,18.6527417 32.7472244,18.5544382 33.7364581,18.5544382 C34.6880532,18.5544382 35.5118981,18.631044 36.2079928,18.7844771 C36.9043088,18.9374674 37.518484,19.1874327 38.0505182,19.534373 C38.5829952,19.8810919 39.0114122,20.3407269 39.3368763,20.9132781 Z M52.4756648,27.1991637 C52.5859241,27.4411585 52.6813493,27.7300909 52.7621618,28.065961 C52.8425315,28.4020525 52.8830485,28.7715761 52.8830485,29.1747531 C52.8830485,29.8039837 52.7902801,30.360151 52.6047435,30.8441405 C52.4192068,31.3279085 52.1652562,31.7228936 51.8426703,32.0293169 C51.5200845,32.3359617 51.1211142,32.585927 50.6450952,32.7794342 C50.1695191,32.9729415 49.6640534,33.1086622 49.1291409,33.1865965 C48.594007,33.2643093 47.9988726,33.3034979 47.3428521,33.3034979 C45.6708079,33.3034979 44.0877681,33.1314669 42.59329,32.7874048 L42.8352847,30.892628 C44.2274741,31.139715 45.4773006,31.2632585 46.5849857,31.2632585 C46.8159102,31.2632585 46.9881626,31.2632585 47.1010788,31.2632585 C47.2139949,31.2632585 47.392668,31.2566164 47.6373196,31.2431108 C47.8819712,31.2298265 48.0728216,31.2123356 48.2098708,31.1908594 C48.34692,31.1693832 48.5255931,31.1370582 48.7461117,31.0941058 C48.9664088,31.0509319 49.1413181,30.9971307 49.2701753,30.9327021 C49.399254,30.8682735 49.5418383,30.7848041 49.6977068,30.6827368 C49.8535753,30.5806695 49.974462,30.466425 50.0605882,30.3400032 C50.146493,30.2138028 50.2188922,30.0605911 50.2782285,29.8803681 C50.3375648,29.7003665 50.3670116,29.5026526 50.3670116,29.2876692 C50.3670116,29.0671506 50.3428785,28.8643444 50.294391,28.6788077 C50.2459035,28.4934925 50.1841317,28.3334173 50.1088543,28.1990249 C50.0335769,28.0646326 49.9261959,27.9397607 49.7862685,27.8239663 C49.646341,27.7086147 49.5121701,27.6116397 49.3830915,27.5339268 C49.2542343,27.4559926 49.0833102,27.3765085 48.8709836,27.2956959 C48.6586571,27.2153262 48.4678067,27.1493478 48.2986539,27.0984248 C48.1292797,27.0472805 47.9100896,26.981302 47.6413049,26.9007109 C47.4369489,26.8418174 47.2810803,26.7959867 47.1734779,26.7636617 C46.1091881,26.4410759 45.3836467,26.1939888 44.9961894,26.0219578 C44.0448157,25.5973046 43.3943303,25.0271889 43.0449545,24.3122749 C42.797646,23.8070306 42.6738811,23.2021544 42.6738811,22.4978677 C42.6738811,21.8958698 42.7571291,21.3662711 42.9238464,20.9092929 C43.0905637,20.4523147 43.3190528,20.0759276 43.6093137,19.7803531 C43.8995746,19.4847785 44.2597991,19.2438908 44.6899874,19.0585755 C45.1199543,18.8730388 45.5771539,18.7428532 46.0607006,18.6673543 C46.5446901,18.5920769 47.0875731,18.5544382 47.6897924,18.5544382 C49.3722427,18.5544382 50.9960208,18.7266906 52.5604626,19.0707527 L52.3266598,20.925234 C50.9825151,20.6781469 49.7836116,20.554382 48.7299492,20.554382 C48.4611645,20.554382 48.2435242,20.5559318 48.0768069,20.5583673 C47.9100896,20.5612455 47.6869142,20.5745298 47.4075021,20.5986628 C47.1278687,20.6230173 46.8967227,20.6566707 46.7138429,20.6994017 C46.5311844,20.7425755 46.3310351,20.8072256 46.1131734,20.8931304 C45.8955331,20.9792566 45.7235021,21.0839808 45.5970803,21.2075243 C45.4706585,21.3312892 45.3632775,21.4871577 45.2744944,21.6753513 C45.1859327,21.8635448 45.1416519,22.0785283 45.1416519,22.320523 C45.1416519,22.5299713 45.1684418,22.7237 45.222243,22.9010447 C45.2758228,23.0786109 45.338923,23.2316011 45.4115436,23.3606798 C45.4843856,23.4897584 45.5957519,23.6135233 45.7463067,23.7317531 C45.8968615,23.849983 46.028597,23.9440797 46.1412917,24.013822 C46.2544292,24.0837858 46.4238034,24.16172 46.6494143,24.2478462 C46.8752465,24.3337511 47.0539197,24.3984011 47.1856552,24.4413535 C47.3173906,24.4843059 47.5190898,24.5458562 47.7905313,24.6266688 C48.0619728,24.7072599 48.264779,24.769253 48.3993928,24.8122055 C48.8831609,24.9682954 49.2526844,25.0902891 49.5081848,25.1790722 C49.7634638,25.2676338 50.0780791,25.3900703 50.451588,25.5459388 C50.8253182,25.7020288 51.1089369,25.8483769 51.3024442,25.9854261 C51.4959514,26.1226967 51.7122633,26.298713 51.9516012,26.5136964 C52.1907177,26.7286799 52.365627,26.957169 52.4756648,27.1991637 Z M61.6021674,28.9894378 L64.9650751,18.7479452 L67.47292,18.7479452 L60.7878429,38.4000006 L58.279998,38.4000006 L60.4814195,32.1183215 L54.6753169,18.7479452 L57.3040485,18.7479452 L61.6021674,28.9894378 Z M79.272877,28.065961 C79.3532468,28.4020525 79.3937637,28.7715761 79.3937637,29.1747531 C79.3937637,29.8039837 79.3009954,30.360151 79.1154587,30.8441405 C78.929922,31.3279085 78.6761928,31.7228936 78.353607,32.0293169 C78.0310211,32.3359617 77.6318294,32.585927 77.1558104,32.7794342 C76.6802343,32.9729415 76.1747686,33.1086622 75.6400775,33.1865965 C75.1049437,33.2643093 74.5095879,33.3034979 73.8535673,33.3034979 C72.1817445,33.3034979 70.5984833,33.1314669 69.1040052,32.7874048 L69.346,30.892628 C70.7381893,31.139715 71.9882373,31.2632585 73.0959223,31.2632585 C73.3268468,31.2632585 73.4988779,31.2632585 73.6120154,31.2632585 C73.7247101,31.2632585 73.9033833,31.2566164 74.1480349,31.2431108 C74.3926865,31.2298265 74.5835369,31.2123356 74.720586,31.1908594 C74.8578566,31.1693832 75.0363084,31.1370582 75.2568269,31.0941058 C75.4771241,31.0509319 75.6520334,30.9971307 75.7808906,30.9327021 C75.9099692,30.8682735 76.0525535,30.7848041 76.208422,30.6827368 C76.3642905,30.5806695 76.4851772,30.466425 76.5713034,30.3400032 C76.6572083,30.2138028 76.7298288,30.0605911 76.7889437,29.8803681 C76.84828,29.7003665 76.8779482,29.5026526 76.8779482,29.2876692 C76.8779482,29.0671506 76.8535937,28.8643444 76.8051062,28.6788077 C76.7568401,28.4934925 76.694847,28.3334173 76.619791,28.1990249 C76.5445135,28.0646326 76.4369111,27.9397607 76.2972051,27.8239663 C76.1572777,27.7086147 76.0228853,27.6116397 75.8938067,27.5339268 C75.7649495,27.4559926 75.5942469,27.3765085 75.3819203,27.2956959 C75.1695937,27.2153262 74.9785219,27.1493478 74.8093691,27.0984248 C74.6399949,27.0472805 74.4208048,26.981302 74.1520201,26.9007109 C73.9476641,26.8418174 73.7917956,26.7959867 73.6844146,26.7636617 C72.6199033,26.4410759 71.8943619,26.1939888 71.507126,26.0219578 C70.5555309,25.5973046 69.9050455,25.0271889 69.5556697,24.3122749 C69.3083613,23.8070306 69.1845963,23.2021544 69.1845963,22.4978677 C69.1845963,21.8958698 69.2678443,21.3662711 69.4345616,20.9092929 C69.601279,20.4523147 69.8299895,20.0759276 70.1200289,19.7803531 C70.4105112,19.4847785 70.7707358,19.2438908 71.2007026,19.0585755 C71.6306695,18.8730388 72.0878691,18.7428532 72.5714158,18.6673543 C73.0554053,18.5920769 73.5982883,18.5544382 74.2005077,18.5544382 C75.8829579,18.5544382 77.506736,18.7266906 79.0711778,19.0707527 L78.8373751,20.925234 C77.4932304,20.6781469 76.2943268,20.554382 75.2406644,20.554382 C74.9718798,20.554382 74.7542395,20.5559318 74.5875221,20.5583673 C74.4208048,20.5612455 74.1976294,20.5745298 73.9182173,20.5986628 C73.6388053,20.6230173 73.4074379,20.6566707 73.2247795,20.6994017 C73.0418997,20.7425755 72.8417503,20.8072256 72.62411,20.8931304 C72.4062483,20.9792566 72.2342173,21.0839808 72.1080169,21.2075243 C71.9813737,21.3312892 71.8739927,21.4871577 71.785431,21.6753513 C71.696648,21.8635448 71.6523671,22.0785283 71.6523671,22.320523 C71.6523671,22.5299713 71.679157,22.7237 71.7329583,22.9010447 C71.7865381,23.0786109 71.8498597,23.2316011 71.9224802,23.3606798 C71.9951008,23.4897584 72.1064671,23.6135233 72.2570219,23.7317531 C72.4075767,23.849983 72.5393122,23.9440797 72.6522283,24.013822 C72.7651445,24.0837858 72.9345186,24.16172 73.1603509,24.2478462 C73.3859617,24.3337511 73.5648563,24.3984011 73.6963704,24.4413535 C73.8281059,24.4843059 74.029805,24.5458562 74.3012466,24.6266688 C74.5726881,24.7072599 74.7754943,24.769253 74.910108,24.8122055 C75.3938761,24.9682954 75.7633996,25.0902891 76.0191215,25.1790722 C76.2741791,25.2676338 76.5887944,25.3900703 76.9623032,25.5459388 C77.3360334,25.7020288 77.6196522,25.8483769 77.8131594,25.9854261 C78.0066666,26.1226967 78.2231999,26.298713 78.4623164,26.5136964 C78.7014329,26.7286799 78.8763422,26.957169 78.9863801,27.1991637 C79.0966393,27.4411585 79.1922859,27.7300909 79.272877,28.065961 Z" id="Combined-Shape"></path>
            </g>
        </g>
    </g>
</svg>