<?xml version="1.0" encoding="UTF-8"?>
<svg width="32px" height="40px" viewBox="0 0 32 40" version="1.1" xmlns="http://www.w3.org/2000/svg" xmlns:xlink="http://www.w3.org/1999/xlink">
    <!-- Generator: Sketch 55.2 (78181) - https://sketchapp.com -->
    <title>logo-symbol</title>
    <desc>Created with Sketch.</desc>
    <g id="logo-symbol" stroke="none" stroke-width="1" fill="none" fill-rule="evenodd">
        <g id="Group" transform="translate(1.000000, 0.000000)">
            <polyline id="Fill-9" fill="#0072D3" points="11.5148148 0 5.79148148 9.79981481 16.9288889 9.7237037 11.5148148 0"></polyline>
            <polyline id="Fill-10" fill="#0094DD" points="11.3775926 19.4135185 16.9242593 9.72148148 5.79148148 9.79981481 11.3775926 19.4135185"></polyline>
            <polyline id="Fill-11" fill="#00B6E6" points="0 19.4722222 5.79148148 9.79981481 11.3775926 19.4135185 0 19.4722222"></polyline>
            <polyline id="Fill-12" fill="#00D8F0" points="5.64462963 29.2622222 11.3775926 19.4135185 0 19.4722222 5.64462963 29.2622222"></polyline>
            <polyline id="Fill-13" fill="#0072D3" points="13.5544444 21.212037 25.1968519 21.212037 19.2287037 30.4662963 13.5544444 21.212037"></polyline>
            <polyline id="Fill-14" fill="#0050C9" points="30.7827778 30.4942593 19.2287037 30.4662963 25.1968519 21.212037 30.7827778 30.4942593"></polyline>
            <polyline id="Fill-15" fill="#0094DD" points="25.0790741 39.8972222 19.2287037 30.4662963 30.7827778 30.4942593 25.0790741 39.8972222"></polyline>
            <polyline id="Fill-16" fill="#00D8F0" points="25.1961111 21.2140741 19.3059259 11.5637037 30.8907407 11.8240741 25.1961111 21.2140741"></polyline>
            <polyline id="Fill-17" fill="#0094DD" points="13.5590741 21.2140741 19.3059259 11.5637037 25.1968519 21.2140741 13.5590741 21.2140741"></polyline>
        </g>
    </g>
</svg>