<?xml version="1.0" encoding="UTF-8"?>
<svg width="67px" height="40px" viewBox="0 0 67 40" version="1.1" xmlns="http://www.w3.org/2000/svg" xmlns:xlink="http://www.w3.org/1999/xlink">
    <!-- Generator: Sketch 55.2 (78181) - https://sketchapp.com -->
    <title>logo-text</title>
    <desc>Created with Sketch.</desc>
    <g id="logo-text" stroke="none" stroke-width="1" fill="none" fill-rule="evenodd">
        <path d="M9.33384584,15.6232879 L4.03859637,21.3421573 L9.64307365,27.5916587 L7.0694348,27.5916587 L2.0494645,21.8325675 L2.0494645,27.5916587 L1.20792265e-13,27.5916587 L1.20792265e-13,11 L2.0494645,11 L2.0494645,21.0329295 L6.93493178,15.6232879 L9.33384584,15.6232879 Z M18.5289451,23.9224383 L18.5289451,21.4696492 C17.9014488,21.4877305 17.4401901,21.5023063 17.1444311,21.513561 C16.8488565,21.5246312 16.4342772,21.5528602 15.9012467,21.5975101 C15.3680317,21.6423444 14.929098,21.7026771 14.5840765,21.778877 C14.2436676,21.8550769 13.9635913,21.9425316 13.7442167,22.0408719 C13.5246576,22.1395813 13.3375711,22.2762983 13.1829572,22.4508386 C13.0285278,22.6255634 12.9187482,22.8418015 12.853803,23.0995528 C12.7888577,23.3571196 12.7563851,23.6783402 12.7563851,24.0637679 C12.7563851,24.4803767 12.8111827,24.8253982 12.9209622,25.0984633 C13.0307418,25.3718975 13.2076806,25.585737 13.4517787,25.7403509 C13.6960613,25.8949648 13.9848092,26.0023458 14.3187605,26.062863 C14.6523428,26.1233801 15.0722726,26.1536387 15.5787347,26.1536387 C16.7481176,26.1536387 17.7134398,25.9945967 18.4748856,25.6765127 C18.5108637,25.2060289 18.5289451,24.6213374 18.5289451,23.9224383 Z M19.6579218,16.5541078 C19.9309869,16.8251434 20.148332,17.1801281 20.3094035,17.6192463 C20.4708441,18.0583646 20.5516566,18.5712842 20.5516566,19.1580053 L20.5516566,24.6349906 C20.5516566,25.3517866 20.5245346,26.0573279 20.4708441,26.7516144 C19.1940801,27.4193324 17.4737698,27.7529147 15.3099131,27.7529147 C13.7015964,27.7529147 12.5333204,27.4630598 11.8054543,26.8826119 C11.0774036,26.3027175 10.7133783,25.3763256 10.7133783,24.1039897 C10.7133783,23.0333161 10.9620889,22.1853381 11.4593258,21.5606094 C11.9565626,20.9355116 12.7429164,20.5401207 13.8180181,20.3744366 C14.7497606,20.23569 16.3200696,20.1257259 18.5289451,20.0450979 L18.5289451,19.7561655 C18.5289451,19.2902942 18.4806052,18.8971174 18.3844789,18.5768193 C18.287799,18.2565213 18.1278345,17.9854857 17.9036628,17.7637126 C17.6798601,17.5419394 17.379673,17.3795763 17.0034704,17.2764389 C16.6270834,17.173486 16.1610276,17.1220095 15.6056722,17.1220095 C14.4944078,17.1220095 13.1348017,17.229575 11.526485,17.4445216 L11.3517603,15.8854673 C13.0990081,15.603177 14.6065859,15.4620318 15.8744937,15.4620318 C16.4254211,15.4620318 16.9202594,15.4933974 17.3595621,15.5561286 C17.7984959,15.6190443 18.2230383,15.7332519 18.633005,15.898936 C19.0427872,16.0648046 19.3844877,16.2830722 19.6579218,16.5541078 Z M31.5106089,22.5382933 C31.5218637,22.2738998 31.5273988,21.9648565 31.5273988,21.6107943 C31.5273988,21.1899419 31.5161441,20.8168759 31.4938191,20.4921498 C31.4713097,20.1672392 31.4277669,19.8425131 31.3626372,19.5176025 C31.2978765,19.1928764 31.2115288,18.9116931 31.1041478,18.6742372 C30.9965823,18.4369657 30.8563597,18.215008 30.6842179,18.0089177 C30.5115227,17.8030118 30.3067238,17.6349291 30.0692679,17.5050387 C29.8318119,17.3751483 29.5493371,17.2742249 29.2225815,17.2026375 C28.8952723,17.1308657 28.5257119,17.095072 28.1137156,17.095072 C27.6611286,17.095072 27.202084,17.1365853 26.7360283,17.2194273 C26.270157,17.3024539 25.8758731,17.4199826 25.553361,17.572198 C25.5129548,18.105413 25.4928439,18.68992 25.4928439,19.3260879 L25.4928439,25.7034502 C25.842478,25.8200564 26.2398984,25.9172897 26.6856588,25.9957037 C27.1314192,26.0741177 27.5447069,26.1132324 27.9255221,26.1132324 C28.2838278,26.1132324 28.6109525,26.0931215 28.9067115,26.0527153 C29.2022861,26.0124935 29.465388,25.956589 29.6962019,25.8848171 C29.9268312,25.8130453 30.1307075,25.7158119 30.3078309,25.5923791 C30.4847697,25.4693153 30.6380921,25.3383179 30.768167,25.1993867 C30.8980574,25.0604556 31.007837,24.8892364 31.0973212,24.6851756 C31.1868054,24.4814838 31.2596842,24.2787145 31.3157733,24.0770522 C31.3716778,23.8755744 31.4154052,23.6347974 31.4467708,23.3547211 C31.4779518,23.0748293 31.4995387,22.8026867 31.5106089,22.5382933 Z M32.7807308,17.4277317 C33.0517664,17.9048577 33.2554582,18.4862281 33.3921753,19.171474 C33.5288924,19.8569044 33.5971586,20.6701957 33.5971586,21.6107943 C33.5971586,22.7667085 33.5019549,23.7344292 33.3115473,24.5137719 C33.1211397,25.2934835 32.8143104,25.9241164 32.3910595,26.4054859 C31.967624,26.8872245 31.4410511,27.2322459 30.8117098,27.4405503 C30.1823685,27.6488548 29.4061624,27.7529147 28.4832761,27.7529147 C27.5380648,27.7529147 26.5411926,27.6230243 25.4928439,27.3632434 L25.4928439,32 L23.4433794,32 L23.4433794,18.5801404 C23.4433794,17.8589163 23.4701324,17.1533751 23.5238229,16.4633321 C24.1511347,16.1229232 24.8666391,15.8708915 25.6710742,15.7074214 C26.4749559,15.5439514 27.2893542,15.4620318 28.1137156,15.4620318 C28.9067115,15.4620318 29.5932489,15.52587 30.1733278,15.6537309 C30.7535912,15.7812228 31.2654038,15.9895272 31.7087657,16.2786442 C32.1524965,16.5675766 32.5095107,16.9506058 32.7807308,17.4277317 Z M43.72972,22.6659697 C43.8216027,22.8676319 43.9011237,23.108409 43.9684675,23.3883007 C44.0354422,23.668377 44.0692064,23.9763133 44.0692064,24.3122941 C44.0692064,24.8366529 43.9918994,25.3001256 43.8372855,25.7034502 C43.6826716,26.1065903 43.4710461,26.4357445 43.2022246,26.6910973 C42.933403,26.9466346 42.6009278,27.154939 42.2042453,27.316195 C41.8079319,27.477451 41.3867105,27.5905517 40.9409501,27.6554969 C40.4950052,27.7202576 39.9990599,27.7529147 39.4523761,27.7529147 C38.059006,27.7529147 36.7398062,27.6095555 35.4944078,27.3228371 L35.6960701,25.7438565 C36.8562279,25.9497623 37.8977499,26.0527153 38.8208208,26.0527153 C39.0132579,26.0527153 39.1568016,26.0527153 39.2508984,26.0527153 C39.3449951,26.0527153 39.4938894,26.0471802 39.6977658,26.0359255 C39.9016421,26.0248553 40.0606841,26.0102795 40.1748917,25.9923826 C40.2890994,25.9744858 40.4379937,25.9475483 40.6217591,25.9117546 C40.8053401,25.8757765 40.9510978,25.8309421 41.0584788,25.7772516 C41.1660443,25.7235611 41.2848646,25.6540033 41.414755,25.5689472 C41.5446454,25.4838911 41.6453843,25.3886873 41.7171562,25.2833358 C41.7887435,25.1781688 41.8490762,25.0504924 41.8985231,24.9003066 C41.94797,24.7503053 41.972509,24.5855437 41.972509,24.4063908 C41.972509,24.2226254 41.9523981,24.0536202 41.9119918,23.8990063 C41.8715856,23.7445769 41.8201091,23.6111809 41.7573779,23.4991873 C41.6946468,23.3871937 41.6051626,23.2831337 41.4885564,23.1866384 C41.3719502,23.0905121 41.2601411,23.0096996 41.1525756,22.9449389 C41.0451946,22.8799937 40.9027579,22.8137569 40.7258191,22.7464132 C40.5488802,22.6794384 40.3898383,22.6244564 40.2488776,22.5820206 C40.1077325,22.5394003 39.925074,22.4844182 39.7010868,22.417259 C39.5307901,22.3681811 39.4008997,22.3299888 39.311231,22.3030513 C38.4243228,22.0342298 37.819705,21.8283239 37.4968239,21.6849647 C36.7040125,21.3310871 36.1619413,20.8559907 35.8707949,20.260229 C35.6647045,19.8391921 35.561567,19.3351286 35.561567,18.7482231 C35.561567,18.2465581 35.6309404,17.8052258 35.7698715,17.4244107 C35.9088026,17.0435955 36.0992101,16.7299396 36.3410942,16.4836275 C36.5829782,16.2373154 36.8831654,16.0365756 37.2416556,15.8821462 C37.5999613,15.7275323 37.980961,15.6190443 38.3839166,15.5561286 C38.7872411,15.4933974 39.2396436,15.4620318 39.7414931,15.4620318 C41.1435349,15.4620318 42.4966833,15.6055755 43.8003848,15.8922939 L43.6055492,17.4376949 C42.4854286,17.2317891 41.4863424,17.1286516 40.6082904,17.1286516 C40.3843031,17.1286516 40.2029362,17.1299432 40.0640051,17.1319727 C39.925074,17.1343712 39.7390945,17.1454414 39.5062512,17.1655523 C39.2732233,17.1858477 39.0806017,17.2138922 38.9282018,17.2495014 C38.7759864,17.2854796 38.6091953,17.3393546 38.4276439,17.4109419 C38.246277,17.4827138 38.1029178,17.5699839 37.9975663,17.6729369 C37.8922148,17.7760743 37.8027307,17.9059647 37.7287448,18.0627927 C37.6549434,18.2196206 37.6180427,18.3987735 37.6180427,18.6004358 C37.6180427,18.7749761 37.6403676,18.9364166 37.6852019,19.0842039 C37.7298518,19.2321756 37.7824353,19.3596675 37.8429524,19.4672331 C37.903654,19.5747986 37.9964593,19.677936 38.1219216,19.7764609 C38.247384,19.8749857 38.3571636,19.9533997 38.4510758,20.0115183 C38.5453571,20.0698214 38.6865023,20.1347666 38.8745113,20.2065385 C39.0627048,20.2781258 39.2115991,20.3320008 39.3213787,20.3677945 C39.4311582,20.4035882 39.5992409,20.4548801 39.8254421,20.5222239 C40.0516434,20.5893831 40.2206486,20.6410441 40.3328267,20.6768378 C40.7359668,20.8069127 41.043903,20.9085741 41.25682,20.98256 C41.4695525,21.0563614 41.731732,21.1583918 42.0429893,21.2882823 C42.3544312,21.4183572 42.5907801,21.540314 42.7520361,21.6545217 C42.9132922,21.7689138 43.093552,21.9155941 43.2930003,22.0947469 C43.492264,22.2738998 43.6380218,22.4643074 43.72972,22.6659697 Z M51.3351374,24.1578647 L54.1375605,15.6232879 L56.2274313,15.6232879 L50.6565336,32 L48.5666629,32 L50.4011808,26.7652677 L45.5627619,15.6232879 L47.7533716,15.6232879 L51.3351374,24.1578647 Z M66.060728,23.3883007 C66.1277028,23.668377 66.1614669,23.9763133 66.1614669,24.3122941 C66.1614669,24.8366529 66.0841599,25.3001256 65.929546,25.7034502 C65.7749321,26.1065903 65.5634912,26.4357445 65.2946696,26.6910973 C65.0258481,26.9466346 64.6931883,27.154939 64.2965059,27.316195 C63.9001924,27.477451 63.478971,27.5905517 63.0333951,27.6554969 C62.5874502,27.7202576 62.0913204,27.7529147 61.5446367,27.7529147 C60.151451,27.7529147 58.8320667,27.6095555 57.5866683,27.3228371 L57.7883306,25.7438565 C58.9484884,25.9497623 59.990195,26.0527153 60.9132658,26.0527153 C61.1057029,26.0527153 61.2490621,26.0527153 61.3433434,26.0527153 C61.4372556,26.0527153 61.5861499,26.0471802 61.7900263,26.0359255 C61.9939026,26.0248553 62.1529446,26.0102795 62.2671522,25.9923826 C62.3815444,25.9744858 62.5302542,25.9475483 62.7140196,25.9117546 C62.8976006,25.8757765 63.0433583,25.8309421 63.1507393,25.7772516 C63.2583049,25.7235611 63.3771251,25.6540033 63.5070155,25.5689472 C63.636906,25.4838911 63.7376449,25.3886873 63.8094167,25.2833358 C63.8810041,25.1781688 63.9415212,25.0504924 63.9907836,24.9003066 C64.0402305,24.7503053 64.064954,24.5855437 64.064954,24.4063908 C64.064954,24.2226254 64.0446586,24.0536202 64.0042524,23.8990063 C63.9640306,23.7445769 63.9123696,23.6111809 63.849823,23.4991873 C63.7870918,23.3871937 63.6974231,23.2831337 63.5810014,23.1866384 C63.4643952,23.0905121 63.3524016,23.0096996 63.2448361,22.9449389 C63.1374551,22.8799937 62.9952029,22.8137569 62.8182641,22.7464132 C62.6413253,22.6794384 62.4820988,22.6244564 62.3411381,22.5820206 C62.199993,22.5394003 62.0173345,22.4844182 61.7933473,22.417259 C61.6230506,22.3681811 61.4931602,22.3299888 61.403676,22.3030513 C60.5165833,22.0342298 59.9119655,21.8283239 59.5892689,21.6849647 C58.796273,21.3310871 58.2542018,20.8559907 57.9630554,20.260229 C57.756965,19.8391921 57.6538276,19.3351286 57.6538276,18.7482231 C57.6538276,18.2465581 57.7232009,17.8052258 57.862132,17.4244107 C58.0010631,17.0435955 58.1916552,16.7299396 58.4333547,16.4836275 C58.6754233,16.2373154 58.9756104,16.0365756 59.3339161,15.8821462 C59.6922219,15.7275323 60.0732215,15.6190443 60.4761771,15.5561286 C60.8795017,15.4933974 61.3319042,15.4620318 61.8337536,15.4620318 C63.2357954,15.4620318 64.5889438,15.6055755 65.8926453,15.8922939 L65.6978097,17.4376949 C64.5776891,17.2317891 63.5786029,17.1286516 62.7005509,17.1286516 C62.4765637,17.1286516 62.2951968,17.1299432 62.1562656,17.1319727 C62.0173345,17.1343712 61.831355,17.1454414 61.5985117,17.1655523 C61.3656683,17.1858477 61.1728622,17.2138922 61.0206468,17.2495014 C60.868247,17.2854796 60.7014558,17.3393546 60.5200889,17.4109419 C60.3385375,17.4827138 60.1951783,17.5699839 60.0900113,17.6729369 C59.9844754,17.7760743 59.8949912,17.9059647 59.8211898,18.0627927 C59.7472039,18.2196206 59.7103032,18.3987735 59.7103032,18.6004358 C59.7103032,18.7749761 59.7326281,18.9364166 59.7774625,19.0842039 C59.8221123,19.2321756 59.8748803,19.3596675 59.9353974,19.4672331 C59.9959146,19.5747986 60.0887198,19.677936 60.2141822,19.7764609 C60.3396445,19.8749857 60.4494241,19.9533997 60.5435209,20.0115183 C60.6376176,20.0698214 60.7787628,20.1347666 60.9669563,20.2065385 C61.1549653,20.2781258 61.3040441,20.3320008 61.4136392,20.3677945 C61.5234188,20.4035882 61.6915014,20.4548801 61.9177027,20.5222239 C62.1439039,20.5893831 62.3129091,20.6410441 62.4250872,20.6768378 C62.8282273,20.8069127 63.1361636,20.9085741 63.3492651,20.98256 C63.5618131,21.0563614 63.8239925,21.1583918 64.1352498,21.2882823 C64.4466917,21.4183572 64.6830406,21.540314 64.8442966,21.6545217 C65.0055527,21.7689138 65.1859971,21.9155941 65.3852608,22.0947469 C65.5845246,22.2738998 65.7302823,22.4643074 65.8219805,22.6659697 C65.9138632,22.8676319 65.9935687,23.108409 66.060728,23.3883007 Z" id="Combined-Shape" fill="#414042"></path>
    </g>
</svg>