<?xml version="1.0" encoding="UTF-8"?>
<svg width="16px" height="16px" viewBox="0 0 16 16" version="1.1" xmlns="http://www.w3.org/2000/svg" xmlns:xlink="http://www.w3.org/1999/xlink">
    <!-- Generator: Sketch 55.2 (78181) - https://sketchapp.com -->
    <title>search</title>
    <desc>Created with Sketch.</desc>
    <g id="search" stroke="none" stroke-width="1" fill="none" fill-rule="evenodd">
        <path d="M11.3092724,12.5167483 C10.1212064,13.44609 8.62528952,14 7,14 C3.13400675,14 0,10.8659932 0,7 C0,3.13400675 3.13400675,0 7,0 C10.8659932,0 14,3.13400675 14,7 C14,8.62528952 13.44609,10.1212064 12.5167483,11.3092724 L16,14.792524 L14.792524,16 L11.3092724,12.5167483 Z M7,12.4 C9.98233765,12.4 12.4,9.98233765 12.4,7 C12.4,4.01766235 9.98233765,1.6 7,1.6 C4.01766235,1.6 1.6,4.01766235 1.6,7 C1.6,9.98233765 4.01766235,12.4 7,12.4 Z" id="Combined-Shape" fill="#414042"></path>
    </g>
</svg>