<?xml version="1.0" encoding="UTF-8"?>
<svg width="258px" height="56px" viewBox="0 0 258 56" version="1.1" xmlns="http://www.w3.org/2000/svg" xmlns:xlink="http://www.w3.org/1999/xlink">
    <!-- Generator: Sketch 55.2 (78181) - https://sketchapp.com -->
    <title>client logo/shaped</title>
    <desc>Created with Sketch.</desc>
    <g id="client-logo/shaped" stroke="none" stroke-width="1" fill="none" fill-rule="evenodd">
        <g>
            <rect id="Rectangle" x="0" y="0" width="258" height="56"></rect>
            <path d="M27.0000046,3.85032962 C13.68392,3.85032962 2.85032962,14.68392 2.85032962,28.0001224 C2.85032962,41.316207 13.68392,52.1496796 27.0000046,52.1496796 C40.316207,52.1496796 51.1496796,41.316207 51.1496796,28.0001224 C51.1496796,14.68392 40.316207,3.85032962 27.0000046,3.85032962 Z M27,54.000127 C12.6636008,54.000127 1,42.3365262 1,28.0001224 C1,13.6636008 12.6636008,2 27,2 C41.3364084,2 53,13.6636008 53,28.0001224 C53,42.3365262 41.3364084,54.000127 27,54.000127 Z M13.0910891,32.9155315 C13.0910891,34.5629514 14.4313769,35.9034747 16.0790323,35.9034747 L22.6061784,35.9034747 L22.0246529,39.7727739 L15.7183169,39.7691232 C11.9389904,39.7691232 8.86425418,36.6946225 8.86425418,32.9155315 L8.86425418,32.6774099 L13.0910891,32.6774099 L13.0910891,32.9155315 Z M39.5028015,23.0789428 C39.5028015,21.4315229 38.1625137,20.0912351 36.5148583,20.0912351 L31.3974816,20.0912351 L31.9783004,16.2252333 L36.8755737,16.2252333 C40.6549002,16.2252333 43.7296364,19.2998518 43.7296364,23.0789428 C43.7296364,24.1222263 43.499994,25.1248807 43.0469506,26.0588779 L42.9194106,26.3214947 L42.6880017,26.1440223 C41.7278606,25.4079886 40.7877395,25.0350257 39.3348681,24.8133913 L39.0041829,24.7627521 L39.160222,24.4668077 C39.3843295,24.0419103 39.5028015,23.5618986 39.5028015,23.0789428 Z M15.705245,29.9326522 C11.9259185,29.9326522 8.85141775,26.8582693 8.85141775,23.0790605 C8.85141775,19.299734 11.9259185,16.2252333 15.705245,16.2252333 L25.5732771,16.2252333 L24.9923405,20.0911174 L16.0660781,20.0911174 C14.4186582,20.0911174 13.0781349,21.4314051 13.0781349,23.0790605 C13.0781349,24.7264804 14.4186582,26.0667682 16.0660781,26.0667682 L24.0854293,26.0661793 L23.5046104,29.9324167 L15.705245,29.9326522 Z M30.7259834,16.2244089 L30.1471666,20.0868778 L26.2483082,20.0899397 L26.2498392,20.0792231 L26.8291271,16.2244089 L30.7259834,16.2244089 Z M38.2947643,26.0654728 C42.0740908,26.0654728 45.1487093,29.1399735 45.1487093,32.9190645 C45.1487093,36.6982732 42.0740908,39.7730095 38.2947643,39.7730095 L23.288511,39.7727739 L26.0601191,21.3320112 L29.961215,21.3288315 L27.7772561,35.9033569 L37.9340489,35.9070076 C39.5814688,35.9070076 40.9219921,34.5667199 40.9219921,32.9190645 C40.9219921,31.2716446 39.5814688,29.9315923 37.9340489,29.9315923 L29.9198794,29.9317101 L30.5009338,26.065826 L38.2947643,26.0654728 Z" id="Combined-Shape" fill="#FFFFFF" opacity="0.5"></path>
        </g>
    </g>
</svg>