<?xml version="1.0" encoding="UTF-8"?>
<svg width="16px" height="16px" viewBox="0 0 16 16" version="1.1" xmlns="http://www.w3.org/2000/svg" xmlns:xlink="http://www.w3.org/1999/xlink">
    <!-- Generator: Sketch 55.2 (78181) - https://sketchapp.com -->
    <title>twitter</title>
    <desc>Created with Sketch.</desc>
    <g id="twitter" stroke="none" stroke-width="1" fill="none" fill-rule="evenodd">
        <path d="M16,3.53896714 C15.4121031,3.8 14.7791278,3.97652582 14.1151611,4.05539906 C14.7932148,3.64976526 15.3134942,3.00657277 15.5586077,2.24037559 C14.9237542,2.61596244 14.2222222,2.88920188 13.4727945,3.03568075 C12.8755063,2.39812207 12.0218348,2 11.0770676,2 C9.26548101,2 7.79573869,3.46948357 7.79573869,5.28169014 C7.79573869,5.53896714 7.82391266,5.78873239 7.88026061,6.02910798 C5.15208077,5.89201878 2.73381464,4.58685446 1.11381112,2.59906103 C0.831132242,3.08544601 0.669601456,3.64976526 0.669601456,4.25070423 C0.669601456,5.38873239 1.24904619,6.39342723 2.12995246,6.98215962 C1.59276868,6.96619718 1.08563714,6.81690141 0.642366614,6.57276995 L0.642366614,6.61314554 C0.642366614,8.20375587 1.77402125,9.53051643 3.27663321,9.83098592 C3.00146739,9.90798122 2.71127546,9.94647887 2.4116922,9.94647887 C2.20038739,9.94647887 1.99377825,9.92676056 1.79374303,9.88826291 C2.21165698,11.1915493 3.42313788,12.1408451 4.86001057,12.1661972 C3.73680812,13.0469484 2.32059635,13.571831 0.783236485,13.571831 C0.518401127,13.571831 0.256383166,13.5568075 0,13.5267606 C1.45283794,14.456338 3.17896343,15 5.03187181,15 C11.0704936,15 14.3715443,10 14.3715443,5.6629108 C14.3715443,5.52018779 14.3687269,5.37746479 14.3630921,5.23755869 C15.0045196,4.77464789 15.5614251,4.1971831 16,3.53896714" id="Twitter" fill="#FFFFFF"></path>
    </g>
</svg>